<svg width="672" height="598" viewBox="0 0 672 598" fill="none" xmlns="http://www.w3.org/2000/svg">
<path opacity="0.15" d="M525.833 30.0345L663.862 269.009C674.539 287.585 674.539 310.415 663.862 328.991L525.833 567.965C515.155 586.542 495.276 598 473.92 598H197.95C176.507 598 156.715 586.542 146.037 567.965L8.00827 328.991C-2.66942 310.415 -2.66942 287.585 8.00827 269.009L146.037 30.0345C156.715 11.4583 176.507 0 197.95 0H473.92C495.362 0 515.155 11.4583 525.833 30.0345ZM488.678 451.647V301.821C488.678 217.273 419.49 145.659 334.937 146.18C251.425 146.701 183.626 214.495 183.105 298.002C182.584 382.55 254.203 451.733 338.756 451.733H369.748C372.873 451.733 375.39 449.216 375.39 446.091V373.001C375.39 372.914 375.303 372.914 375.303 372.914H337.714C300.126 372.914 267.138 345.571 262.623 308.245C256.72 260.155 297.261 219.617 345.354 225.52C382.682 230.12 410.028 263.019 410.028 300.606V412.237C410.028 434.025 427.737 451.733 449.526 451.733H488.765C488.678 451.82 488.678 451.733 488.678 451.647Z" fill="#F2F2F2"/>
</svg>
