<svg width="122" height="146" viewBox="0 0 122 146" fill="none" xmlns="http://www.w3.org/2000/svg">
<path d="M3.70459 53.5L2.75864 53.1757L3.70459 53.5ZM52.5545 139.473C52.8455 139.942 52.7009 140.559 52.2315 140.85L44.5824 145.592C44.113 145.883 43.4966 145.739 43.2056 145.269C42.9145 144.8 43.0591 144.184 43.5285 143.893L50.3277 139.677L46.1122 132.878C45.8212 132.408 45.9658 131.792 46.4352 131.501C46.9046 131.21 47.521 131.355 47.812 131.824L52.5545 139.473ZM121.205 2C120.893 2 120.569 2 120.235 2.00016L120.234 0.000156616C120.569 -5.55656e-08 120.893 -2.72627e-08 121.205 0L121.205 2ZM118.212 2.0038C117.565 2.00606 116.887 2.00967 116.179 2.01541L116.163 0.0154708C116.874 0.0097023 117.556 0.00608502 118.205 0.00381652L118.212 2.0038ZM114.167 2.0371C113.52 2.04587 112.854 2.05671 112.168 2.07011L112.129 0.0704885C112.819 0.0570052 113.49 0.0461014 114.14 0.0372835L114.167 2.0371ZM110.141 2.11622C109.486 2.13327 108.815 2.15281 108.131 2.17522L108.066 0.176292C108.755 0.15373 109.429 0.134056 110.089 0.1169L110.141 2.11622ZM106.126 2.24787C105.46 2.27431 104.783 2.30357 104.095 2.33594L104.001 0.338154C104.694 0.30554 105.376 0.276073 106.046 0.249448L106.126 2.24787ZM102.105 2.43695C101.437 2.4733 100.76 2.51268 100.075 2.55534L99.9504 0.559196C100.641 0.516213 101.323 0.476535 101.996 0.439907L102.105 2.43695ZM98.0859 2.68683C97.4188 2.73355 96.7443 2.78346 96.063 2.83676L95.907 0.842849C96.5939 0.789117 97.2737 0.738812 97.9461 0.691715L98.0859 2.68683ZM94.0727 3.00065C93.4057 3.05835 92.7328 3.11937 92.0544 3.18391L91.8649 1.1929C92.5492 1.12781 93.2278 1.06627 93.9004 1.00809L94.0727 3.00065ZM90.0667 3.38165C89.3996 3.45094 88.7277 3.52371 88.0515 3.60012L87.8269 1.61277C88.5093 1.53567 89.1871 1.46225 89.86 1.39235L90.0667 3.38165ZM86.0688 3.83328C85.404 3.91454 84.7354 3.99941 84.0634 4.08803L83.8019 2.1052C84.4803 2.01573 85.1551 1.93007 85.8261 1.84805L86.0688 3.83328ZM82.0805 4.35924C81.4187 4.45303 80.7539 4.55054 80.0866 4.65192L79.7862 2.67461C80.4603 2.57221 81.1316 2.47373 81.7999 2.37902L82.0805 4.35924ZM78.1039 4.96351C77.4452 5.07049 76.7844 5.18133 76.1217 5.29616L75.7802 3.32553C76.45 3.20947 77.1177 3.09747 77.7832 2.98938L78.1039 4.96351ZM74.1415 5.65037C73.4861 5.7713 72.8292 5.89623 72.1711 6.02529L71.7862 4.06268C72.4518 3.93216 73.116 3.80583 73.7785 3.68357L74.1415 5.65037ZM70.1965 6.42439C69.5446 6.56012 68.8917 6.7 68.2383 6.84417L67.8074 4.89113C68.4687 4.74523 69.1293 4.60368 69.7889 4.46637L70.1965 6.42439ZM66.2764 7.28963C65.6269 7.44136 64.9771 7.59743 64.3272 7.75796L63.8476 5.81633C64.5058 5.65373 65.1639 5.49568 65.8215 5.34207L66.2764 7.28963ZM62.3814 8.25215C61.7348 8.42092 61.0885 8.59424 60.4427 8.77221L59.9113 6.84409C60.566 6.66367 61.2211 6.48801 61.8763 6.31699L62.3814 8.25215ZM58.5136 9.31838C57.8715 9.50507 57.2302 9.6965 56.59 9.89281L56.0037 7.98068C56.6534 7.78148 57.304 7.58726 57.9552 7.39791L58.5136 9.31838ZM54.679 10.4945C54.0432 10.6999 53.4088 10.9103 52.7759 11.1258L52.1313 9.23257C52.7741 9.01367 53.4185 8.79998 54.064 8.59137L54.679 10.4945ZM50.8843 11.7869C50.2557 12.0124 49.6291 12.243 49.0045 12.4789L48.2978 10.6079C48.9331 10.3679 49.5702 10.1335 50.2091 9.90435L50.8843 11.7869ZM47.1371 13.2027C46.5167 13.4494 45.8987 13.7015 45.2833 13.9592L44.5109 12.1144C45.1375 11.852 45.7666 11.5953 46.398 11.3442L47.1371 13.2027ZM43.4456 14.7489C42.8346 15.0183 42.2266 15.2933 41.6218 15.5741L40.7795 13.7601C41.3963 13.4737 42.0161 13.1934 42.6387 12.9189L43.4456 14.7489ZM39.8173 16.434C39.218 16.7271 38.6222 17.0261 38.0301 17.3311L37.1141 15.5532C37.7188 15.2417 38.3271 14.9364 38.9387 14.6373L39.8173 16.434ZM36.2638 18.2653C35.6784 18.5832 35.097 18.9073 34.52 19.2376L33.5263 17.5019C34.1166 17.164 34.7111 16.8326 35.3095 16.5077L36.2638 18.2653ZM32.798 20.2501C32.2285 20.5939 31.6637 20.9442 31.1037 21.3011L30.0289 19.6145C30.6026 19.2488 31.1811 18.8901 31.7641 18.538L32.798 20.2501ZM29.4337 22.3949C28.8821 22.7662 28.3356 23.1442 27.7947 23.5291L26.6353 21.8994C27.1906 21.5044 27.7512 21.1165 28.3169 20.7357L29.4337 22.3949ZM26.1862 24.7059C25.6552 25.1054 25.1301 25.5119 24.6109 25.9254L23.3647 24.3612C23.8985 23.9359 24.4382 23.5182 24.9836 23.1078L26.1862 24.7059ZM23.0716 27.1878C22.5646 27.6158 22.0639 28.0511 21.5698 28.4937L20.2353 27.004C20.7442 26.5481 21.2597 26.1001 21.7814 25.6596L23.0716 27.1878ZM20.1073 29.8438C19.6277 30.3001 19.1548 30.764 18.6891 31.2353L17.2664 29.8296C17.7468 29.3434 18.2343 28.8652 18.7287 28.3949L20.1073 29.8438ZM17.3133 32.6722C16.8637 33.1569 16.4213 33.6493 15.9864 34.1494L14.4772 32.8371C14.9262 32.3206 15.3829 31.8123 15.847 31.3121L17.3133 32.6722ZM14.7075 35.6697C14.2902 36.1827 13.8805 36.7035 13.4787 37.2323L11.8862 36.0224C12.3015 35.4758 12.7249 34.9376 13.1561 34.4075L14.7075 35.6697ZM12.3064 38.8302C11.9236 39.3707 11.5489 39.9192 11.1825 40.4757L9.51198 39.376C9.8909 38.8004 10.2784 38.2332 10.6742 37.6743L12.3064 38.8302ZM10.1236 42.1451C9.77944 42.7086 9.44353 43.2802 9.11618 43.8598L7.37474 42.8762C7.71334 42.2767 8.06079 41.6855 8.41682 41.1026L10.1236 42.1451ZM8.16996 45.6037C7.86641 46.1866 7.57128 46.7774 7.28477 47.3761L5.48068 46.5128C5.77693 45.8937 6.08214 45.2828 6.39608 44.68L8.16996 45.6037ZM6.45217 49.1946C6.19056 49.7925 5.93731 50.3981 5.69267 51.0114L3.83499 50.2705C4.08776 49.6367 4.34948 49.0109 4.61991 48.3929L6.45217 49.1946ZM4.98474 52.8749C4.87113 53.1894 4.75972 53.5059 4.65053 53.8243L2.75864 53.1757C2.87136 52.8469 2.98639 52.5201 3.10372 52.1954L4.98474 52.8749ZM4.65053 53.8243C4.54412 54.1347 4.44093 54.4474 4.34095 54.7625L2.43461 54.1577C2.5392 53.8281 2.6472 53.5007 2.75864 53.1757L4.65053 53.8243ZM3.78038 56.6775C3.60946 57.3131 3.45087 57.9571 3.3046 58.609L1.35313 58.1711C1.5054 57.4925 1.67066 56.8213 1.849 56.1581L3.78038 56.6775ZM2.90733 60.5624C2.78816 61.214 2.68074 61.8726 2.58509 62.5375L0.605471 62.2527C0.704668 61.5631 0.816149 60.8796 0.939959 60.2026L2.90733 60.5624ZM2.33678 64.5188C2.26625 65.177 2.20682 65.8406 2.15847 66.5093L0.163683 66.365C0.213663 65.6737 0.275141 64.9871 0.348162 64.3057L2.33678 64.5188ZM2.04732 68.5125C2.02153 69.1749 2.00631 69.8416 2.00163 70.512L0.00167239 70.4981C0.00650186 69.8066 0.0222108 69.1186 0.0488299 68.4347L2.04732 68.5125ZM2.01872 72.5153C2.03464 73.182 2.06074 73.8518 2.09701 74.5244L0.0999081 74.6321C0.0625775 73.9398 0.035684 73.2499 0.0192885 72.5631L2.01872 72.5153ZM2.23381 76.5204C2.28896 77.1845 2.35386 77.8508 2.42848 78.5189L0.440835 78.7409C0.364137 78.0542 0.297402 77.3691 0.24067 76.686L2.23381 76.5204ZM2.67919 80.5119C2.77144 81.1715 2.87305 81.8323 2.98399 82.4941L1.01152 82.8247C0.897599 82.1453 0.793236 81.4665 0.698472 80.7889L2.67919 80.5119ZM3.34319 84.4733C3.47099 85.1276 3.60783 85.7823 3.75372 86.4371L1.80159 86.872C1.65189 86.2002 1.51145 85.5282 1.38029 84.8567L3.34319 84.4733ZM4.21629 88.3925C4.37862 89.0409 4.54978 89.689 4.72976 90.3364L2.80284 90.8721C2.61825 90.2081 2.44268 89.5434 2.27616 88.8782L4.21629 88.3925ZM5.2923 92.2636C5.48803 92.9035 5.69239 93.5423 5.90536 94.1797L4.00844 94.8135C3.79005 94.1599 3.58049 93.5048 3.37976 92.8485L5.2923 92.2636ZM6.5658 96.0755C6.79388 96.7044 7.03041 97.3314 7.27534 97.9563L5.41327 98.6861C5.1621 98.0453 4.91955 97.4023 4.68566 96.7575L6.5658 96.0755ZM8.0326 99.8178C8.29249 100.434 8.56064 101.048 8.83702 101.658L7.01487 102.483C6.73138 101.856 6.45637 101.227 6.18983 100.595L8.0326 99.8178ZM9.68954 103.479C9.98082 104.081 10.2802 104.68 10.5877 105.275L8.81085 106.193C8.49534 105.582 8.18818 104.968 7.88937 104.351L9.68954 103.479ZM11.5335 107.048C11.8561 107.634 12.1866 108.216 12.5252 108.794L10.7995 109.805C10.4519 109.211 10.1126 108.614 9.78149 108.012L11.5335 107.048ZM13.5634 110.513C13.917 111.08 14.2785 111.644 14.6478 112.203L12.9795 113.306C12.6 112.732 12.2287 112.153 11.8656 111.57L13.5634 110.513ZM15.7776 113.861C16.1619 114.409 16.5539 114.951 16.9537 115.488L15.3496 116.683C14.9384 116.13 14.5354 115.573 14.1405 115.01L15.7776 113.861ZM18.1743 117.08C18.5886 117.604 19.0107 118.123 19.4405 118.636L17.9077 119.921C17.4654 119.393 17.0311 118.859 16.6048 118.319L18.1743 117.08ZM20.7511 120.154C21.195 120.653 21.6466 121.145 22.1059 121.631L20.6521 123.005C20.1791 122.504 19.714 121.997 19.2568 121.483L20.7511 120.154ZM23.5048 123.067C23.9777 123.538 24.4581 124.002 24.946 124.459L23.5794 125.919C23.0763 125.448 22.581 124.97 22.0937 124.485L23.5048 123.067ZM26.4311 125.805C26.9319 126.245 27.44 126.677 27.9556 127.102L26.6844 128.646C26.1523 128.208 25.6279 127.762 25.1112 127.308L26.4311 125.805ZM29.5225 128.35C30.0503 128.756 30.5854 129.155 31.1278 129.545L29.9601 131.169C29.3998 130.766 28.8471 130.354 28.3021 129.934L29.5225 128.35ZM32.7718 130.686C33.3252 131.057 33.8859 131.419 34.4537 131.772L33.3972 133.47C32.8103 133.105 32.2308 132.731 31.6588 132.348L32.7718 130.686ZM36.1687 132.799C36.7461 133.132 37.3305 133.455 37.922 133.769L36.9837 135.536C36.372 135.211 35.7676 134.876 35.1705 134.532L36.1687 132.799ZM39.7008 134.676C40.2994 134.968 40.9048 135.25 41.5171 135.523L40.7028 137.35C40.0693 137.068 39.443 136.775 38.8238 136.473L39.7008 134.676ZM43.3536 136.304C43.97 136.554 44.5931 136.794 45.2228 137.024L44.5366 138.902C43.8852 138.664 43.2406 138.416 42.6028 138.158L43.3536 136.304ZM47.1105 137.677C47.7418 137.883 48.3795 138.079 49.0235 138.265L48.468 140.187C47.802 139.994 47.1424 139.791 46.4894 139.578L47.1105 137.677ZM50.9538 138.788C51.2786 138.87 51.605 138.95 51.9329 139.026L51.4762 140.974C51.1372 140.894 50.7998 140.812 50.464 140.727L50.9538 138.788Z" fill="#CFD5DA"/>
</svg>
