<svg width="122" height="147" viewBox="0 0 122 147" fill="none" xmlns="http://www.w3.org/2000/svg">
<path d="M117.5 54L118.446 53.6757L117.5 54ZM68.6501 139.973C68.3591 140.442 68.5037 141.059 68.9731 141.35L76.6222 146.092C77.0916 146.383 77.708 146.239 77.999 145.769C78.29 145.3 78.1455 144.684 77.6761 144.393L70.8768 140.177L75.0924 133.378C75.3834 132.908 75.2388 132.292 74.7694 132.001C74.3 131.71 73.6836 131.855 73.3926 132.324L68.6501 139.973ZM0 2.5C0.311911 2.5 0.635201 2.5 0.96974 2.50016L0.970676 0.500157C0.635596 0.5 0.311849 0.5 0 0.5V2.5ZM2.99268 2.5038C3.63956 2.50606 4.31767 2.50967 5.02533 2.51541L5.04155 0.515471C4.33032 0.509703 3.64909 0.506085 2.99967 0.503817L2.99268 2.5038ZM7.03773 2.5371C7.68413 2.54587 8.35074 2.55671 9.03649 2.57011L9.07557 0.570489C8.38557 0.557006 7.71496 0.546102 7.06486 0.537284L7.03773 2.5371ZM11.0638 2.61622C11.719 2.63327 12.3892 2.65281 13.0734 2.67522L13.1389 0.676293C12.45 0.653731 11.7753 0.634057 11.1159 0.616901L11.0638 2.61622ZM15.0791 2.74787C15.7444 2.77431 16.4214 2.80357 17.1094 2.83594L17.2034 0.838155C16.5104 0.805542 15.8285 0.776074 15.1585 0.749449L15.0791 2.74787ZM19.1001 2.93695C19.7677 2.9733 20.4445 3.01268 21.13 3.05534L21.2542 1.0592C20.5634 1.01621 19.8814 0.976537 19.2088 0.939909L19.1001 2.93695ZM23.1187 3.18683C23.7858 3.23356 24.4603 3.28346 25.1416 3.33676L25.2976 1.34285C24.6107 1.28912 23.9309 1.23881 23.2585 1.19172L23.1187 3.18683ZM27.1318 3.50065C27.7989 3.55835 28.4718 3.61937 29.1502 3.68392L29.3396 1.6929C28.6554 1.62781 27.9768 1.56627 27.3042 1.50809L27.1318 3.50065ZM31.1379 3.88165C31.805 3.95095 32.4769 4.02371 33.1531 4.10012L33.3777 2.11277C32.6953 2.03567 32.0175 1.96226 31.3446 1.89236L31.1379 3.88165ZM35.1358 4.33328C35.8006 4.41455 36.4692 4.49941 37.1412 4.58803L37.4027 2.6052C36.7243 2.51574 36.0494 2.43008 35.3785 2.34806L35.1358 4.33328ZM39.1241 4.85924C39.7859 4.95303 40.4506 5.05054 41.118 5.15193L41.4184 3.17462C40.7443 3.07221 40.073 2.97373 39.4047 2.87903L39.1241 4.85924ZM43.1007 5.46351C43.7594 5.57049 44.4202 5.68133 45.0829 5.79617L45.4244 3.82554C44.7546 3.70948 44.0869 3.59747 43.4214 3.48938L43.1007 5.46351ZM47.0631 6.15037C47.7185 6.2713 48.3754 6.39623 49.0335 6.5253L49.4184 4.56269C48.7528 4.43216 48.0886 4.30584 47.4261 4.18357L47.0631 6.15037ZM51.0081 6.92439C51.66 7.06012 52.3129 7.2 52.9663 7.34417L53.3972 5.39114C52.7359 5.24523 52.0753 5.10369 51.4157 4.96637L51.0081 6.92439ZM54.9281 7.78964C55.5777 7.94137 56.2275 8.09744 56.8774 8.25797L57.357 6.31633C56.6988 6.15373 56.0407 5.99569 55.3831 5.84207L54.9281 7.78964ZM58.8232 8.75216C59.4698 8.92093 60.1161 9.09424 60.7619 9.27222L61.2933 7.3441C60.6386 7.16367 59.9835 6.98801 59.3283 6.817L58.8232 8.75216ZM62.691 9.81838C63.3331 10.0051 63.9744 10.1965 64.6146 10.3928L65.2009 8.48068C64.5512 8.28148 63.9006 8.08727 63.2494 7.89792L62.691 9.81838ZM66.5256 10.9945C67.1614 11.1999 67.7958 11.4103 68.4287 11.6258L69.0733 9.73257C68.4304 9.51367 67.7861 9.29998 67.1406 9.09138L66.5256 10.9945ZM70.3203 12.2869C70.9488 12.5124 71.5755 12.743 72.2001 12.9789L72.9067 11.1079C72.2715 10.868 71.6344 10.6335 70.9955 10.4044L70.3203 12.2869ZM74.0675 13.7027C74.6879 13.9494 75.3059 14.2015 75.9212 14.4592L76.6937 12.6144C76.0671 12.352 75.438 12.0953 74.8066 11.8442L74.0675 13.7027ZM77.759 15.2489C78.37 15.5183 78.978 15.7933 79.5828 16.0741L80.4251 14.2601C79.8083 13.9738 79.1885 13.6934 78.5659 13.4189L77.759 15.2489ZM81.3873 16.934C81.9866 17.2271 82.5824 17.5261 83.1745 17.8311L84.0904 16.0532C83.4858 15.7417 82.8775 15.4364 82.2659 15.1373L81.3873 16.934ZM84.9408 18.7654C85.5262 19.0832 86.1076 19.4073 86.6846 19.7376L87.6783 18.0019C87.088 17.664 86.4935 17.3326 85.8951 17.0077L84.9408 18.7654ZM88.4066 20.7501C88.9761 21.0939 89.5409 21.4443 90.1009 21.8011L91.1757 20.1145C90.602 19.7489 90.0235 19.3901 89.4405 19.038L88.4066 20.7501ZM91.7709 22.8949C92.3225 23.2662 92.869 23.6442 93.4099 24.0291L94.5693 22.3994C94.014 22.0044 93.4534 21.6165 92.8877 21.2357L91.7709 22.8949ZM95.0184 25.2059C95.5494 25.6054 96.0745 26.0119 96.5937 26.4255L97.8399 24.8612C97.3061 24.4359 96.7664 24.0182 96.221 23.6078L95.0184 25.2059ZM98.1329 27.6878C98.64 28.1158 99.1407 28.5511 99.6348 28.9937L100.969 27.504C100.46 27.0482 99.9449 26.6001 99.4232 26.1596L98.1329 27.6878ZM101.097 30.3438C101.577 30.8002 102.05 31.264 102.516 31.7354L103.938 30.3296C103.458 29.8435 102.97 29.3652 102.476 28.8949L101.097 30.3438ZM103.891 33.1722C104.341 33.6569 104.783 34.1493 105.218 34.6494L106.727 33.3371C106.278 32.8206 105.822 32.3123 105.358 31.8121L103.891 33.1722ZM106.497 36.1697C106.914 36.6827 107.324 37.2035 107.726 37.7323L109.318 36.5224C108.903 35.9758 108.48 35.4376 108.048 34.9075L106.497 36.1697ZM108.898 39.3302C109.281 39.8707 109.656 40.4192 110.022 40.9757L111.693 39.876C111.314 39.3004 110.926 38.7333 110.53 38.1743L108.898 39.3302ZM111.081 42.6451C111.425 43.2086 111.761 43.7802 112.088 44.3598L113.83 43.3762C113.491 42.7767 113.144 42.1855 112.788 41.6026L111.081 42.6451ZM113.035 46.1037C113.338 46.6866 113.633 47.2774 113.92 47.8761L115.724 47.0128C115.428 46.3937 115.122 45.7828 114.809 45.18L113.035 46.1037ZM114.752 49.6946C115.014 50.2925 115.267 50.8981 115.512 51.5114L117.37 50.7705C117.117 50.1367 116.855 49.5109 116.585 48.8929L114.752 49.6946ZM116.22 53.3749C116.333 53.6894 116.445 54.0059 116.554 54.3243L118.446 53.6757C118.333 53.3469 118.218 53.0201 118.101 52.6954L116.22 53.3749ZM116.554 54.3243C116.66 54.6347 116.764 54.9474 116.864 55.2626L118.77 54.6577C118.665 54.3281 118.557 54.0007 118.446 53.6757L116.554 54.3243ZM117.424 57.1775C117.595 57.8131 117.754 58.4571 117.9 59.109L119.851 58.6711C119.699 57.9925 119.534 57.3213 119.356 56.6581L117.424 57.1775ZM118.297 61.0624C118.416 61.714 118.524 62.3726 118.619 63.0375L120.599 62.7527C120.5 62.0631 120.388 61.3796 120.265 60.7026L118.297 61.0624ZM118.868 65.0188C118.938 65.677 118.998 66.3406 119.046 67.0093L121.041 66.865C120.991 66.1738 120.929 65.4871 120.856 64.8057L118.868 65.0188ZM119.157 69.0125C119.183 69.6749 119.198 70.3416 119.203 71.012L121.203 70.9981C121.198 70.3066 121.182 69.6186 121.156 68.9347L119.157 69.0125ZM119.186 73.0154C119.17 73.682 119.144 74.3518 119.108 75.0244L121.105 75.1321C121.142 74.4398 121.169 73.7499 121.185 73.0631L119.186 73.0154ZM118.971 77.0204C118.916 77.6846 118.851 78.3509 118.776 79.0189L120.764 79.2409C120.84 78.5542 120.907 77.8691 120.964 77.186L118.971 77.0204ZM118.525 81.0119C118.433 81.6715 118.332 82.3323 118.221 82.9941L120.193 83.3248C120.307 82.6453 120.411 81.9665 120.506 81.2889L118.525 81.0119ZM117.861 84.9733C117.734 85.6276 117.597 86.2823 117.451 86.9371L119.403 87.372C119.553 86.7002 119.693 86.0283 119.824 85.3567L117.861 84.9733ZM116.988 88.8925C116.826 89.541 116.655 90.189 116.475 90.8364L118.402 91.3721C118.586 90.7081 118.762 90.0434 118.928 89.3782L116.988 88.8925ZM115.912 92.7636C115.717 93.4035 115.512 94.0423 115.299 94.6797L117.196 95.3135C117.415 94.6599 117.624 94.0048 117.825 93.3486L115.912 92.7636ZM114.639 96.5756C114.411 97.2044 114.174 97.8314 113.929 98.4563L115.791 99.1861C116.042 98.5453 116.285 97.9024 116.519 97.2575L114.639 96.5756ZM113.172 100.318C112.912 100.934 112.644 101.548 112.368 102.158L114.19 102.983C114.473 102.356 114.748 101.727 115.015 101.095L113.172 100.318ZM111.515 103.979C111.224 104.581 110.924 105.18 110.617 105.775L112.394 106.693C112.709 106.082 113.016 105.468 113.315 104.851L111.515 103.979ZM109.671 107.548C109.349 108.134 109.018 108.716 108.679 109.294L110.405 110.305C110.753 109.711 111.092 109.114 111.423 108.512L109.671 107.548ZM107.641 111.013C107.288 111.58 106.926 112.144 106.557 112.703L108.225 113.806C108.605 113.232 108.976 112.653 109.339 112.07L107.641 111.013ZM105.427 114.361C105.043 114.909 104.651 115.451 104.251 115.988L105.855 117.183C106.266 116.63 106.669 116.073 107.064 115.51L105.427 114.361ZM103.03 117.58C102.616 118.104 102.194 118.623 101.764 119.136L103.297 120.421C103.739 119.893 104.173 119.359 104.6 118.819L103.03 117.58ZM100.454 120.654C100.01 121.153 99.5579 121.645 99.0987 122.131L100.552 123.505C101.025 123.004 101.491 122.497 101.948 121.983L100.454 120.654ZM97.6998 123.567C97.2269 124.038 96.7465 124.502 96.2586 124.959L97.6252 126.419C98.1283 125.948 98.6235 125.47 99.1109 124.985L97.6998 123.567ZM94.7735 126.305C94.2727 126.745 93.7645 127.177 93.249 127.602L94.5202 129.146C95.0523 128.708 95.5767 128.262 96.0934 127.808L94.7735 126.305ZM91.6821 128.85C91.1543 129.256 90.6191 129.655 90.0768 130.045L91.2444 131.669C91.8048 131.266 92.3575 130.854 92.9025 130.434L91.6821 128.85ZM88.4328 131.186C87.8793 131.557 87.3187 131.919 86.7509 132.272L87.8074 133.97C88.3943 133.605 88.9738 133.231 89.5458 132.848L88.4328 131.186ZM85.0359 133.299C84.4585 133.632 83.8741 133.955 83.2826 134.269L84.2209 136.036C84.8326 135.711 85.437 135.376 86.0341 135.032L85.0359 133.299ZM81.5038 135.176C80.9052 135.468 80.2998 135.75 79.6875 136.023L80.5018 137.85C81.1352 137.568 81.7616 137.275 82.3808 136.973L81.5038 135.176ZM77.851 136.804C77.2346 137.054 76.6115 137.294 75.9818 137.524L76.668 139.402C77.3194 139.164 77.964 138.916 78.6018 138.658L77.851 136.804ZM74.0941 138.177C73.4628 138.383 72.8251 138.579 72.1811 138.765L72.7366 140.687C73.4026 140.494 74.0621 140.291 74.7151 140.078L74.0941 138.177ZM70.2508 139.288C69.926 139.37 69.5996 139.45 69.2716 139.526L69.7284 141.474C70.0674 141.394 70.4048 141.312 70.7406 141.227L70.2508 139.288Z" fill="#CFD5DA"/>
</svg>
