<svg xmlns="http://www.w3.org/2000/svg" xmlns:xlink="http://www.w3.org/1999/xlink" width="186.667" height="63.812" viewBox="0 0 186.667 63.812">
  <defs>
    <clipPath id="clip-path">
      <rect id="rec_248" data-name="rec 248" width="186.667" height="63.812" fill="none"/>
    </clipPath>
  </defs>
  <g id="group_368" data-name="group 368" transform="translate(0 0)">
    <g id="group_366" data-name="group 366" transform="translate(0 0)" clip-path="url(#clip-path)">
      <path id="cont_237" data-name="cont_237" d="M124.636,63.5H93.408A32.275,32.275,0,0,1,63.42,43.307V63.7a.024.024,0,0,1-.022.022H55.25a8.185,8.185,0,0,1-8.192-8.181V32.37A15.587,15.587,0,0,0,33.642,16.784,15.37,15.37,0,0,0,16.473,33.953a15.59,15.59,0,0,0,15.6,13.417h7.793a.024.024,0,0,1,.022.022V62.557a1.162,1.162,0,0,1-1.162,1.162H32.3C14.746,63.731-.11,49.362,0,31.816A31.748,31.748,0,0,1,31.506.3C46.062.223,58.416,10.418,62.213,23.9A31.9,31.9,0,0,1,90.231.19c17.623-1.483,32.39,11.723,34.206,28.571a1.18,1.18,0,0,1-1.162,1.328H108.142a15.326,15.326,0,0,0-30.553,2.17,15.592,15.592,0,0,0,15.73,14.878h14.955A16.358,16.358,0,0,1,124.636,63.5" transform="translate(0 0.008)" fill="#fff"/>
      <path id="cont_238" data-name="cont 238" d="M173.207,47.412a1.1,1.1,0,0,1,1.02,1.109V63.81a31.893,31.893,0,0,1-28.239-17.051.825.825,0,0,0-1.46,0,31.894,31.894,0,0,1-28.238,17.053V48.533a1.116,1.116,0,0,1,1.029-1.12,15.54,15.54,0,0,0,.266-30.992,1.41,1.41,0,0,1-1.3-1.4V0a31.894,31.894,0,0,1,28.246,17.066.817.817,0,0,0,1.446,0A31.9,31.9,0,0,1,174.226,0V15.3a1.1,1.1,0,0,1-1.012,1.1,15.54,15.54,0,0,0-.008,31.014" transform="translate(12.44 0)" fill="#37afa0"/>
    </g>
  </g>
</svg>
