<svg width="125" height="44" viewBox="0 0 125 44" fill="none" xmlns="http://www.w3.org/2000/svg">
<path d="M83.4594 42.9316C78.2335 42.9316 62.5483 42.9316 62.5483 42.9316C53.4901 42.9316 45.6178 37.2967 42.4675 29.2821V43.0663C42.4675 43.0737 42.46 43.0812 42.4526 43.0812H36.9969C33.9652 43.0812 31.5116 40.6043 31.5116 37.5511V21.8886C31.5116 16.6204 27.7089 11.9957 22.5274 11.3521C15.8486 10.5215 10.2076 16.2088 11.0304 22.9587C11.6679 28.1895 16.2489 32.0284 21.4748 32.0284H26.6933C26.7008 32.0284 26.7082 32.0359 26.7082 32.0434V42.2955C26.7082 42.7295 26.3598 43.0812 25.9298 43.0812H21.6305C9.87405 43.0887 -0.0737148 33.3754 0.000411621 21.5144C0.0671254 9.8031 9.49601 0.284369 21.0968 0.209536C30.8444 0.157153 39.1169 7.04925 41.6595 16.1639C43.8759 7.5207 51.3626 0.905481 60.4209 0.134703C72.2218 -0.868056 82.1103 8.05949 83.326 19.449C83.3778 19.928 83.022 20.347 82.5476 20.347H72.4145C71.7771 15.2883 67.626 11.2324 62.4594 11.1202C56.5811 10.9929 51.7777 15.872 51.9556 21.8138C52.1187 27.4636 56.8851 31.8713 62.489 31.8713H72.5035C78.5596 31.8713 83.4594 36.8252 83.4594 42.9316Z" fill="white"/>
<path d="M124.318 32.0509C124.703 32.0733 125 32.4101 125 32.7992V43.1336C116.794 43.1336 109.671 38.464 106.09 31.6094C105.883 31.2128 105.319 31.2128 105.112 31.6094C101.532 38.464 94.4079 43.1336 86.2021 43.1411V32.8142C86.2021 32.4176 86.4987 32.0808 86.8915 32.0584C92.3102 31.6992 96.6095 27.1344 96.6095 21.5743C96.6095 16.0741 92.4065 11.5542 87.0694 11.1052C86.5802 11.0678 86.2021 10.6487 86.2021 10.1548V0.00748328C94.4154 0.00748328 101.539 4.68453 105.119 11.5467C105.327 11.9433 105.883 11.9433 106.09 11.5467C109.656 4.67705 116.787 0 125 0V10.3419C125 10.731 124.703 11.0603 124.325 11.0827C118.899 11.4344 114.6 16.0067 114.6 21.5668C114.593 27.1269 118.892 31.6917 124.318 32.0509Z" fill="white"/>
</svg>
