<svg id="Сгруппировать_106" data-name="Сгруппировать 106" xmlns="http://www.w3.org/2000/svg" xmlns:xlink="http://www.w3.org/1999/xlink" width="167.794" height="49.929" viewBox="0 0 167.794 49.929">
  <defs>
    <clipPath id="clip-path">
      <rect id="Прямоугольник_51" data-name="Прямоугольник 51" width="167.794" height="49.929" fill="none"/>
    </clipPath>
  </defs>
  <g id="Сгруппировать_105" data-name="Сгруппировать 105" transform="translate(0)" clip-path="url(#clip-path)">
    <path id="Контур_110" data-name="Контур 110" d="M303.689,42.7v5.231c0,1.79.336,2.433,1.678,2.433s1.65-.671,1.65-2.433v-5.2h1.706v5.147c0,2.713-.867,3.86-3.413,3.86-2.517,0-3.329-1.035-3.329-3.748V42.728h1.706Z" transform="translate(-217.515 -30.756)"/>
    <path id="Контур_111" data-name="Контур 111" d="M332.083,51.412h1.371l.112.643A4.053,4.053,0,0,1,335.8,51.3c1.315,0,1.9.615,1.9,2.07v4.336h-1.678v-4c0-.811-.252-1.063-.783-1.063a2.811,2.811,0,0,0-1.454.559v4.475h-1.678V51.412Z" transform="translate(-239.195 -36.951)"/>
    <path id="Контур_112" data-name="Контур 112" d="M358.834,43.046c-.755,0-.951-.2-.951-.923s.224-.923.951-.923c.755,0,.951.2.951.923,0,.7-.2.923-.951.923m-.839,1.091h1.678V50.43h-1.678Z" transform="translate(-257.779 -29.676)"/>
    <path id="Контур_113" data-name="Контур 113" d="M369.006,46.586V44.824l1.678-.224v1.986h1.371v1.259h-1.371v2.993c0,.643.2.867.643.867a2.086,2.086,0,0,0,.727-.112l.14,1.2a4.9,4.9,0,0,1-1.371.2c-1.371,0-1.818-.5-1.818-1.706v-3.44h-.923V46.586Z" transform="translate(-265.126 -32.125)"/>
    <path id="Контур_114" data-name="Контур 114" d="M390.674,57.349a10.611,10.611,0,0,1-2.182.252c-1.874,0-2.909-.559-2.909-3.245,0-2.6,1.147-3.357,2.881-3.357s2.489.587,2.489,2.853c0,.308-.028.643-.028.951h-3.636c.028,1.287.392,1.51,1.51,1.51a7.606,7.606,0,0,0,1.762-.224Zm-1.2-3.58c0-1.175-.308-1.482-1.063-1.482-.727,0-1.091.308-1.119,1.482Z" transform="translate(-277.731 -36.735)"/>
    <path id="Контур_115" data-name="Контур 115" d="M413.051,49.455a3.528,3.528,0,0,1-1.986.727c-1.315,0-2.182-.727-2.182-3.161,0-2.461,1.175-3.357,2.657-3.357a2.841,2.841,0,0,1,1.371.336l.028-.028a9.938,9.938,0,0,1-.084-1.287V40.7h1.678v9.37h-1.371Zm-.2-4.2a2.006,2.006,0,0,0-1.007-.308c-.643,0-1.259.42-1.259,2.014,0,1.566.364,1.874.979,1.874a2.451,2.451,0,0,0,1.287-.559Z" transform="translate(-294.514 -29.316)"/>
    <path id="Контур_116" data-name="Контур 116" d="M448.083,42.7h2.182l2.406,4.643c.42.783.7,1.482,1.091,2.35h.028a19.261,19.261,0,0,1-.168-2.35V42.7H455.1v8.811h-2.182l-2.406-4.643c-.392-.783-.727-1.482-1.063-2.35h-.028c.084.867.14,1.678.14,2.35v4.643h-1.482Z" transform="translate(-322.749 -30.756)"/>
    <path id="Контур_117" data-name="Контур 117" d="M482.651,57.09a3.528,3.528,0,0,1-1.986.727c-1.315,0-2.182-.727-2.182-3.161,0-2.461,1.175-3.357,2.657-3.357a2.887,2.887,0,0,1,1.538.42l.056-.308h1.371v6.294h-1.371Zm-.2-4.2a2.005,2.005,0,0,0-1.007-.308c-.643,0-1.259.42-1.259,2.014,0,1.566.364,1.874.979,1.874a2.451,2.451,0,0,0,1.287-.559Z" transform="translate(-344.646 -36.951)"/>
    <path id="Контур_118" data-name="Контур 118" d="M503.406,46.586V44.824l1.678-.224v1.986h1.37v1.259h-1.37v2.993c0,.643.2.867.643.867a1.987,1.987,0,0,0,.727-.112l.14,1.2a4.9,4.9,0,0,1-1.371.2c-1.371,0-1.818-.5-1.818-1.706v-3.44h-.923V46.586Z" transform="translate(-361.933 -32.125)"/>
    <path id="Контур_119" data-name="Контур 119" d="M521.934,43.046c-.755,0-.951-.2-.951-.923s.224-.923.951-.923c.755,0,.951.2.951.923,0,.7-.2.923-.951.923m-.839,1.091h1.678V50.43h-1.678Z" transform="translate(-375.258 -29.676)"/>
    <path id="Контур_120" data-name="Контур 120" d="M535.464,57.729c-1.874,0-2.881-.671-2.881-3.273,0-2.573,1.091-3.357,2.937-3.357,1.874,0,2.881.671,2.881,3.273,0,2.573-1.091,3.357-2.937,3.357m.028-5.37c-.839,0-1.2.364-1.2,2.042s.364,2.042,1.2,2.042,1.2-.364,1.2-2.042c.028-1.65-.364-2.042-1.2-2.042" transform="translate(-383.613 -36.807)"/>
    <path id="Контур_121" data-name="Контур 121" d="M558.683,51.412h1.371l.112.643A4.054,4.054,0,0,1,562.4,51.3c1.315,0,1.9.615,1.9,2.07v4.336h-1.678v-4c0-.811-.252-1.063-.783-1.063a2.811,2.811,0,0,0-1.454.559v4.475h-1.678V51.412Z" transform="translate(-402.413 -36.951)"/>
    <path id="Контур_122" data-name="Контур 122" d="M583.723,56.363a8.147,8.147,0,0,0,1.678.252c.755,0,1.119-.224,1.119-.615s-.252-.5-1.315-.923c-1.175-.476-1.622-.839-1.622-1.846,0-1.287.867-1.93,2.657-1.93a6,6,0,0,1,1.511.2l-.168,1.2a6.049,6.049,0,0,0-1.427-.2c-.671,0-1.035.168-1.035.559,0,.308.252.448,1.231.839,1.231.5,1.734.839,1.734,1.93,0,1.259-.783,1.958-2.769,1.958a5.776,5.776,0,0,1-1.734-.252Z" transform="translate(-420.348 -36.951)"/>
    <path id="Контур_123" data-name="Контур 123" d="M307.714,108.883a8.013,8.013,0,0,1-1.93.28c-2.238,0-3.3-.727-3.3-4.5,0-3.748,1.2-4.559,3.384-4.559a7.18,7.18,0,0,1,1.846.252l-.112.587a6.826,6.826,0,0,0-1.734-.252c-1.706,0-2.629.587-2.629,3.916,0,3.357.867,3.944,2.629,3.944a7.244,7.244,0,0,0,1.734-.28Z" transform="translate(-217.875 -72.101)"/>
    <rect id="Прямоугольник_50" data-name="Прямоугольник 50" width="0.755" height="9.37" transform="translate(91.517 27.58)"/>
    <path id="Контур_124" data-name="Контур 124" d="M338.514,101.563c-.42,0-.531-.112-.531-.531s.112-.531.531-.531.531.112.531.531-.112.531-.531.531m-.392,1.594h.755v6.182h-.755Z" transform="translate(-243.445 -72.389)"/>
    <path id="Контур_125" data-name="Контур 125" d="M348.911,109.64h.615l.056.671a4.745,4.745,0,0,1,2.322-.811,1.6,1.6,0,0,1,1.566.9,4.928,4.928,0,0,1,2.433-.9c1.175,0,1.762.587,1.762,2.042v4.28h-.755v-4.168c0-1.119-.392-1.538-1.175-1.538a4.413,4.413,0,0,0-2.154.839,3.744,3.744,0,0,1,.056.671v4.2h-.755v-4.168c0-1.119-.42-1.538-1.175-1.538a4.082,4.082,0,0,0-2.07.811v4.895h-.755V109.64Z" transform="translate(-251.296 -78.872)"/>
    <path id="Контур_126" data-name="Контур 126" d="M391.291,115.15a3.973,3.973,0,0,1-2.126.783c-1.371,0-2.182-.7-2.182-3.161,0-2.489,1.259-3.273,2.629-3.273a3.368,3.368,0,0,1,1.706.5l.028-.364h.615v6.182h-.615Zm-.056-4.531a3.141,3.141,0,0,0-1.594-.5c-.951,0-1.9.531-1.9,2.657,0,2.1.587,2.573,1.594,2.573a3.8,3.8,0,0,0,1.9-.783Z" transform="translate(-278.739 -78.872)"/>
    <path id="Контур_127" data-name="Контур 127" d="M411.334,104.814v-1.9l.755-.112v2.014h1.454v.587h-1.454v4.224c0,.671.224.867.7.867a2.144,2.144,0,0,0,.755-.112l.084.559a3.4,3.4,0,0,1-.979.168c-.951,0-1.315-.392-1.315-1.287V105.4h-.951v-.587Z" transform="translate(-295.594 -74.046)"/>
    <path id="Контур_128" data-name="Контур 128" d="M430.53,115.61a8.43,8.43,0,0,1-1.9.252c-1.538,0-2.545-.476-2.545-3.189,0-2.6,1.007-3.273,2.545-3.273s2.21.587,2.21,2.909a2.725,2.725,0,0,1-.028.448h-4c.028,2.21.671,2.517,1.958,2.517a6.353,6.353,0,0,0,1.65-.224Zm-.392-3.412c-.028-1.846-.5-2.21-1.538-2.21s-1.678.42-1.734,2.21Z" transform="translate(-306.903 -78.8)"/>
    <path id="Контур_129" data-name="Контур 129" d="M463.714,108.883a8.013,8.013,0,0,1-1.93.28c-2.238,0-3.3-.727-3.3-4.5,0-3.748,1.2-4.559,3.384-4.559a7.18,7.18,0,0,1,1.846.252l-.112.587a6.826,6.826,0,0,0-1.734-.252c-1.706,0-2.629.587-2.629,3.916,0,3.357.867,3.944,2.629,3.944a7.024,7.024,0,0,0,1.734-.28Z" transform="translate(-330.24 -72.101)"/>
    <path id="Контур_130" data-name="Контур 130" d="M483.183,98.6h.755v2.21c0,.476-.028,1.007-.056,1.594h.028a4.9,4.9,0,0,1,2.406-.783c1.287,0,1.874.587,1.874,2.042v4.28h-.755v-4.168c0-1.119-.42-1.538-1.287-1.538a4.142,4.142,0,0,0-2.182.811v4.895h-.783Z" transform="translate(-348.031 -71.02)"/>
    <path id="Контур_131" data-name="Контур 131" d="M511.991,115.15a3.973,3.973,0,0,1-2.126.783c-1.371,0-2.182-.7-2.182-3.161,0-2.489,1.259-3.273,2.629-3.273a3.369,3.369,0,0,1,1.706.5l.028-.364h.615v6.182h-.615Zm-.056-4.531a3.141,3.141,0,0,0-1.594-.5c-.951,0-1.93.531-1.93,2.657,0,2.1.587,2.573,1.594,2.573a3.8,3.8,0,0,0,1.9-.783v-3.944Z" transform="translate(-365.678 -78.872)"/>
    <path id="Контур_132" data-name="Контур 132" d="M533.283,109.64h.615l.056.671a4.938,4.938,0,0,1,2.433-.811c1.287,0,1.874.587,1.874,2.042v4.28h-.755v-4.168c0-1.119-.42-1.538-1.287-1.538a4.142,4.142,0,0,0-2.182.811v4.895h-.755Z" transform="translate(-384.118 -78.872)"/>
    <path id="Контур_133" data-name="Контур 133" d="M562.718,116.229c0,1.79-.867,2.517-2.713,2.517a7.823,7.823,0,0,1-1.874-.224l.084-.587a8.995,8.995,0,0,0,1.79.2c1.371,0,1.93-.5,1.93-1.846v-.979h-.028a3.857,3.857,0,0,1-2.042.727c-1.371,0-2.182-.7-2.182-3.161,0-2.489,1.259-3.273,2.629-3.273a3.368,3.368,0,0,1,1.706.5l.028-.364h.615v6.489Zm-.755-5.538a3.141,3.141,0,0,0-1.594-.5c-.951,0-1.93.531-1.93,2.657,0,2.1.587,2.573,1.594,2.573a3.8,3.8,0,0,0,1.9-.783v-3.944Z" transform="translate(-401.693 -78.944)"/>
    <path id="Контур_134" data-name="Контур 134" d="M587.33,115.61a8.429,8.429,0,0,1-1.9.252c-1.539,0-2.545-.476-2.545-3.189,0-2.6,1.007-3.273,2.545-3.273s2.21.587,2.21,2.909v.448h-4c.028,2.21.7,2.517,1.958,2.517a6.354,6.354,0,0,0,1.65-.224Zm-.392-3.412c-.028-1.846-.5-2.21-1.538-2.21s-1.678.42-1.734,2.21Z" transform="translate(-419.844 -78.8)"/>
    <path id="Контур_135" data-name="Контур 135" d="M75.544,156.233c-3.161-1.371-6.461-3.133-10.293-2.294-.42,0-.755.252-1.175.252-.392-.028-.755-.252-1.175-.252-3.832-.839-7.1.923-10.293,2.294a8.481,8.481,0,0,1-7.524-.643,8.919,8.919,0,0,0,3.832,2.629,8.7,8.7,0,0,0,7.972-1.2c1.874-1.063,3.5-3.133,5.958-2.35a23.266,23.266,0,0,0-6.881,4.923l1.287,1.063a20.439,20.439,0,0,1,5.566-4.979,3.868,3.868,0,0,1,1.259-.559,3.868,3.868,0,0,1,1.259.559,20.907,20.907,0,0,1,5.566,4.979l1.287-1.063a23.782,23.782,0,0,0-6.881-4.923c2.461-.783,4.084,1.287,5.958,2.35a8.773,8.773,0,0,0,7.972,1.2,8.683,8.683,0,0,0,3.832-2.629,8.465,8.465,0,0,1-7.524.643" transform="translate(-32.473 -110.724)"/>
    <path id="Контур_136" data-name="Контур 136" d="M11.41,31.809a12.455,12.455,0,0,0,1.007-3.44,4.733,4.733,0,0,1-.923,1.371c-1.79,1.622-3.832,3.3-4.2,5.65A6.4,6.4,0,0,1,7.1,36.4c-.084.028-.084-.056-.112-.084L7.214,33.4c.084-2.853-1.287-6.014.364-8.5-.056,0-.084.028-.14.056a10.137,10.137,0,0,0-2.489,6.573c-.2,3.161,1.818,5.37,2.042,8.363.476-3.161,3.021-5.37,4.419-8.084" transform="translate(-3.555 -17.935)"/>
    <path id="Контур_137" data-name="Контур 137" d="M9.7,96.794c-.308-.783-.755-1.482-1.007-2.294-.867-3.692-.392-7.916-1.958-11.3.28,1.93-.476,3.636-.643,5.482a8.017,8.017,0,0,0,.7,4.252c.14.392.476.727.587,1.091a9.358,9.358,0,0,1-1.343-1.79c-1.79-2.965-5.65-4.867-5.9-8.475a10.1,10.1,0,0,0,.531,4.7c1.4,4.028,5.79,6.126,9.035,8.335" transform="translate(-0.052 -59.928)"/>
    <path id="Контур_138" data-name="Контур 138" d="M15.283,22.14a9.294,9.294,0,0,1,2.406-2.853c2.294-1.622,4.727-3.916,4.755-6.8-.755,2.07-2.993,2.965-4.531,4.364a7.281,7.281,0,0,0-1.762,2.6l-.056-.028c.2-.839.559-1.594.783-2.406.671-2.21.531-4.839,2.685-6.321a5.3,5.3,0,0,0-2.853,1.93c-1.79,1.874-1.594,4.755-1.343,7.3.028.755-.14,1.482-.084,2.21" transform="translate(-10.952 -7.707)"/>
    <path id="Контур_139" data-name="Контур 139" d="M4.918,67.969l.168.14a8.566,8.566,0,0,1,.084-3.58c.5-1.818,1.091-3.58,1.482-5.454a19.12,19.12,0,0,0,.392-4.5,8.336,8.336,0,0,1-.811,2.154c-1.622,2.433-3.217,5.342-2.1,8.475-.028.028-.056.084-.112.056a25.917,25.917,0,0,1-.839-3.3C2.429,59.018.163,56.585.834,53.2a12.953,12.953,0,0,0-.671,2.378,13.154,13.154,0,0,0,.559,6.182c.671,2.322,3.021,4.028,4.2,6.21" transform="translate(0 -38.319)"/>
    <path id="Контур_140" data-name="Контур 140" d="M24.883,8.312a33.414,33.414,0,0,0,3.608-3.3A26.41,26.41,0,0,1,32.379.2c-2.154.839-4.587,1.65-5.9,3.944-.951,1.2-.951,2.825-1.594,4.168" transform="translate(-17.923 -0.144)"/>
    <path id="Контур_141" data-name="Контур 141" d="M199.686,33.159l.224,2.909c-.028.028-.028.112-.112.084-.084-.336-.112-.671-.2-1.007-.392-2.35-2.434-4.028-4.224-5.65a3.871,3.871,0,0,1-.9-1.371,11.567,11.567,0,0,0,1.007,3.44c1.4,2.713,3.944,4.923,4.419,8.028.224-2.965,2.266-5.2,2.042-8.363a10.194,10.194,0,0,0-2.489-6.573c-.056-.028-.084-.056-.14-.056,1.65,2.545.308,5.706.364,8.559" transform="translate(-140.084 -17.719)"/>
    <path id="Контур_142" data-name="Контур 142" d="M204.732,61.711a25.916,25.916,0,0,1-.839,3.3c-.056.028-.084-.028-.112-.056,1.119-3.133-.476-6.014-2.1-8.475a8.336,8.336,0,0,1-.811-2.154,19.121,19.121,0,0,0,.392,4.5c.392,1.874.979,3.636,1.482,5.454a8.565,8.565,0,0,1,.084,3.58l.168-.14c1.175-2.182,3.524-3.888,4.2-6.266a13.524,13.524,0,0,0,.559-6.182,13.608,13.608,0,0,0-.671-2.378c.671,3.412-1.594,5.874-2.35,8.811" transform="translate(-144.655 -38.103)"/>
    <path id="Контур_143" data-name="Контур 143" d="M190.749,16.949c.224.811.587,1.566.783,2.406l-.056.028a7.532,7.532,0,0,0-1.762-2.6c-1.538-1.4-3.776-2.294-4.531-4.364.028,2.909,2.433,5.175,4.755,6.8a9.525,9.525,0,0,1,2.378,2.853c.056-.727-.112-1.455-.056-2.238.252-2.517.42-5.426-1.343-7.3a5.3,5.3,0,0,0-2.853-1.93c2.126,1.482,2.014,4.14,2.685,6.349" transform="translate(-133.385 -7.635)"/>
    <path id="Контур_144" data-name="Контур 144" d="M178.371,4.839a33.416,33.416,0,0,0,3.608,3.3c-.643-1.343-.671-2.937-1.594-4.2C179.07,1.65,176.637.867,174.483,0a26.35,26.35,0,0,1,3.888,4.839" transform="translate(-125.678)"/>
    <path id="Контур_145" data-name="Контур 145" d="M174.646,114.81a8.374,8.374,0,0,1-1.454,1.063c-.112.056-.2.112-.308.168l-.028-.028c.056-.028.084-.084.14-.112a8.55,8.55,0,0,0,1.846-2.042c1.762-2.461,1.147-5.9,2.462-8.559a20.012,20.012,0,0,0-3.021,4.587c-.811,1.986-1.259,4.2-2.461,6.014a7.225,7.225,0,0,1-1.538,1.678c2.322-.755,4.951-.7,7.161-1.678a5.219,5.219,0,0,0,1.091-.615c2.6-1.594,4.923-4.336,5.426-7.328-1.79,4.028-6.293,4.363-9.314,6.853" transform="translate(-122.653 -75.846)"/>
    <path id="Контур_146" data-name="Контур 146" d="M201.449,83.659c-.252,3.58-4.112,5.482-5.9,8.475a9.357,9.357,0,0,1-1.343,1.79c.084-.392.448-.7.587-1.091a7.755,7.755,0,0,0,.7-4.252c-.168-1.846-.951-3.524-.643-5.482-1.566,3.385-1.091,7.636-1.958,11.3a23.762,23.762,0,0,1-1.007,2.294c3.217-2.21,7.636-4.28,9.063-8.335a10.893,10.893,0,0,0,.5-4.7" transform="translate(-138.211 -59.856)"/>
    <path id="Контур_147" data-name="Контур 147" d="M147.593,134.981a5.166,5.166,0,0,1-1.622.2c.448-.28,1.091-.252,1.594-.531a5.421,5.421,0,0,0,2.8-2.406c.839-1.315,1.371-2.909,2.294-4.14a34.735,34.735,0,0,0-4.783,4.14c-.336.308-.643.615-.979.951a10.029,10.029,0,0,1-4.811,2.154c.42.14.979.112,1.427.224,3.161.783,6.657,2.042,10.014.923a9.814,9.814,0,0,0,5.342-4.224l.168-.336c-.112.112-.2.224-.308.336-2.909,2.881-7.44,1.9-11.133,2.713" transform="translate(-102.341 -92.269)"/>
    <path id="Контур_148" data-name="Контур 148" d="M39.007,135.668c.448-.112,1.007-.084,1.427-.224a10.029,10.029,0,0,1-4.811-2.154c-.336-.308-.671-.615-.979-.951a34.733,34.733,0,0,0-4.783-4.14c.923,1.231,1.454,2.8,2.294,4.14a5.421,5.421,0,0,0,2.8,2.406c.5.252,1.147.224,1.594.531a6.435,6.435,0,0,1-1.622-.2c-3.72-.811-8.224.168-11.133-2.713-.112-.112-.2-.224-.308-.336l.168.336a9.852,9.852,0,0,0,5.315,4.224c3.385,1.119,6.909-.168,10.042-.923" transform="translate(-16.915 -92.341)"/>
    <path id="Контур_149" data-name="Контур 149" d="M13.6,115.7c2.21,1.007,4.867.923,7.161,1.678a8.627,8.627,0,0,1-1.538-1.678c-1.2-1.818-1.65-4-2.461-6.014A20.012,20.012,0,0,0,13.74,105.1c1.315,2.657.7,6.1,2.461,8.559a9.77,9.77,0,0,0,1.846,2.042c.056.028.084.084.14.112l-.028.028c-.112-.056-.2-.112-.308-.168l.028.028a8.557,8.557,0,0,1-1.482-1.063c-3.021-2.489-7.524-2.825-9.314-6.909.476,2.993,2.825,5.706,5.426,7.328a4.308,4.308,0,0,0,1.091.643" transform="translate(-5.102 -75.702)"/>
    <path id="Контур_150" data-name="Контур 150" d="M64.536,41.149a18.878,18.878,0,0,0,17.09-10.881l-4.28-1.986a14.125,14.125,0,1,1,0-11.916l4.28-1.986a18.845,18.845,0,1,0-17.09,26.768" transform="translate(-32.905 -2.521)"/>
    <path id="Контур_151" data-name="Контур 151" d="M86.36,37.852a6.106,6.106,0,0,1,5.007,2.6l3.468-2.433a10.357,10.357,0,1,0,.028,11.916L91.4,47.5a6.125,6.125,0,1,1-5.035-9.65" transform="translate(-54.73 -24.202)"/>
  </g>
</svg>
