<svg xmlns="http://www.w3.org/2000/svg" width="123.341" height="45.268" viewBox="0 0 123.341 45.268">
  <g id="logo-color" transform="translate(0)">
    <g id="Сгруппировать_107" data-name="Сгруппировать 107" transform="translate(12.36 0.128)">
      <path id="Контур_152" data-name="Контур 152" d="M47.321,32.362a.485.485,0,0,1,.471-.728h3.169a.5.5,0,0,1,.471.3l5.482,12.848h.214L68.306,19.9a.5.5,0,0,1,.471-.3h3.169a.493.493,0,0,1,.471.728L57.685,52.191a.482.482,0,0,1-.471.3h-.3a.482.482,0,0,1-.471-.3Z" transform="translate(-47.262 -19.6)" fill="#2b3a57"/>
      <path id="Контур_153" data-name="Контур 153" d="M104.3,49.457a.54.54,0,0,1,.557-.557h11.649a.567.567,0,0,1,.557.557v2.355a.54.54,0,0,1-.557.557h-8.48V57.08h7.066a.567.567,0,0,1,.557.557v2.4a.567.567,0,0,1-.557.557h-7.066V65.6h8.48a.567.567,0,0,1,.557.557v2.355a.54.54,0,0,1-.557.557H104.857a.567.567,0,0,1-.557-.557Z" transform="translate(-79.872 -36.352)" fill="#2b3a57"/>
      <path id="Контур_154" data-name="Контур 154" d="M145.5,49.457a.54.54,0,0,1,.557-.557h8.18a6.215,6.215,0,0,1,6.253,6.167,6.289,6.289,0,0,1-4.24,5.782l3.94,7.281a.522.522,0,0,1-.471.814h-3a.523.523,0,0,1-.471-.257l-3.812-7.58h-3.169v7.323a.567.567,0,0,1-.557.557h-2.655a.567.567,0,0,1-.557-.557Zm8.437,8.565a2.927,2.927,0,0,0,2.827-2.912,2.872,2.872,0,0,0-2.827-2.784h-4.668v5.7Z" transform="translate(-103.428 -36.352)" fill="#2b3a57"/>
      <path id="Контур_155" data-name="Контур 155" d="M191.7,49.457a.54.54,0,0,1,.557-.557h8.18a6.215,6.215,0,0,1,6.253,6.167,6.289,6.289,0,0,1-4.24,5.782l3.94,7.281a.522.522,0,0,1-.471.814h-3a.523.523,0,0,1-.471-.257l-3.812-7.58h-3.169v7.323a.567.567,0,0,1-.557.557h-2.655a.567.567,0,0,1-.557-.557Zm8.437,8.565a2.927,2.927,0,0,0,2.827-2.912,2.872,2.872,0,0,0-2.827-2.784h-4.668v5.7Z" transform="translate(-129.842 -36.352)" fill="#2b3a57"/>
      <path id="Контур_156" data-name="Контур 156" d="M232.522,67.872,241.43,48.6a.482.482,0,0,1,.471-.3h.3a.445.445,0,0,1,.471.3l8.822,19.272a.485.485,0,0,1-.471.728h-2.484a.786.786,0,0,1-.814-.557l-1.413-3.084h-8.565l-1.413,3.084a.854.854,0,0,1-.814.557h-2.484C232.565,68.6,232.35,68.257,232.522,67.872ZM244.9,61.748l-2.869-6.3h-.086l-2.827,6.3Z" transform="translate(-153.148 -36.009)" fill="#2b3a57"/>
    </g>
    <g id="Сгруппировать_108" data-name="Сгруппировать 108" transform="translate(0 0)">
      <path id="Контур_157" data-name="Контур 157" d="M140.542,64.568H19.6a1.2,1.2,0,0,1-1.2-1.2V20.542a1.2,1.2,0,0,1,1.2-1.2H46.666a.377.377,0,0,1,.343.514l-1.2,3.041a.339.339,0,0,1-.343.214H22.554a.384.384,0,0,0-.385.385V60.456a.384.384,0,0,0,.385.385H137.587a.384.384,0,0,0,.385-.385v-37a.384.384,0,0,0-.385-.385H59.6a.377.377,0,0,1-.343-.514l1.37-3.041a.339.339,0,0,1,.343-.214h79.572a1.2,1.2,0,0,1,1.2,1.2V63.326A1.235,1.235,0,0,1,140.542,64.568Z" transform="translate(-18.4 -19.3)" fill="#057299"/>
    </g>
  </g>
</svg>
