<svg width="27" height="24" viewBox="0 0 27 24" fill="none" xmlns="http://www.w3.org/2000/svg">
<path d="M1.5 10.5C0.671573 10.5 2.56371e-08 11.1716 0 12C-2.5638e-08 12.8284 0.671573 13.5 1.5 13.5L1.5 10.5ZM26.0607 13.0607C26.6464 12.4749 26.6464 11.5251 26.0607 10.9393L16.5147 1.3934C15.9289 0.807615 14.9792 0.807615 14.3934 1.3934C13.8076 1.97919 13.8076 2.92894 14.3934 3.51472L22.8787 12L14.3934 20.4853C13.8076 21.0711 13.8076 22.0208 14.3934 22.6066C14.9792 23.1924 15.9289 23.1924 16.5147 22.6066L26.0607 13.0607ZM1.5 13.5L25 13.5L25 10.5L1.5 10.5L1.5 13.5Z" fill="#396BAB"/>
</svg>
