<svg width="38" height="49" viewBox="0 0 38 49" fill="none" xmlns="http://www.w3.org/2000/svg">
<path d="M25 13C25 8.93034 25 4.93406 25 1C28.9968 4.99787 33.0016 9.00213 37 13C33.0639 13 29.0623 13 25 13Z" fill="#327292"/>
<path d="M20.3903 24.5353C19.4675 24.5338 18.5448 24.5338 17.6205 24.5353C16.9785 24.5368 16.6264 24.8844 16.6233 25.5233C16.6203 26.481 16.6218 27.4372 16.6233 28.3949C16.6233 28.492 16.64 28.5906 16.6491 28.6969C18.223 28.6969 19.7695 28.6969 21.3571 28.6969C21.3647 28.5815 21.3768 28.4935 21.3768 28.4055C21.3783 27.4372 21.3814 26.4689 21.3768 25.4991C21.3738 24.8859 21.0126 24.5353 20.3903 24.5353Z" fill="#327292"/>
<path d="M18.0466 31.1191C17.4243 31.6336 17.2786 32.6247 17.8614 33.1832C18.2636 33.5687 18.2803 33.9633 18.2666 34.4262C18.2606 34.6189 18.2651 34.8132 18.2651 35.0075C18.2651 35.2579 18.2666 35.5083 18.2651 35.7587C18.2545 36.7923 18.2287 36.7225 19.2349 36.7164C19.6523 36.7149 19.7343 36.6329 19.7373 36.2141C19.7403 35.44 19.7434 34.6645 19.7343 33.8904C19.7327 33.684 19.7798 33.5414 19.9558 33.3987C20.5978 32.8812 20.6677 31.9174 20.1349 31.2921C19.6083 30.6759 18.6749 30.5985 18.0466 31.1191Z" fill="#327292"/>
<path d="M37.1016 15.8085C32.7002 15.8085 28.3004 15.8115 23.899 15.8054C22.7668 15.8039 22.1885 15.2135 22.1809 14.0768C22.1749 13.0144 22.1794 11.952 22.1794 10.8896C22.1794 7.30018 22.1794 3.7108 22.1794 0C21.8425 0 21.5951 0 21.3477 0C14.9005 0.00151771 8.45175 0.00151771 2.003 0.00151771C0.509571 0.00151771 0.00113828 0.509951 0.00113828 2.00793C-0.000379427 16.8542 -0.000379427 31.6989 0.00113828 46.5451C0.00113828 48.0886 0.497429 48.5773 2.05308 48.5773C13.3327 48.5773 24.6123 48.5773 35.8919 48.5773C37.5326 48.5773 37.9985 48.1068 38 46.4465C38 36.5328 38 26.6191 38 16.7054C38 16.4353 38 16.1636 38 15.8085C37.6434 15.8085 37.3732 15.8085 37.1016 15.8085ZM25.8326 37.3539C25.8326 38.3616 25.4046 38.7881 24.3998 38.7881C20.7634 38.7896 17.1285 38.7911 13.4921 38.7896C12.6467 38.7896 12.1717 38.3313 12.1701 37.4859C12.1641 34.9893 12.1641 32.4926 12.1701 29.9975C12.1717 29.1734 12.6497 28.7135 13.4723 28.7075C13.7106 28.706 13.9504 28.7075 14.2448 28.7075C14.2448 28.5739 14.2448 28.454 14.2448 28.3341C14.2448 27.4114 14.2448 26.4871 14.2448 25.5643C14.2464 23.5913 15.676 22.1586 17.6491 22.1555C18.5491 22.154 19.4506 22.154 20.3506 22.1555C22.3236 22.1586 23.7548 23.5913 23.7548 25.5643C23.7548 26.4871 23.7548 27.4114 23.7563 28.3341C23.7563 28.4449 23.7563 28.5557 23.7563 28.7075C24.0887 28.7075 24.3619 28.7029 24.6351 28.709C25.3135 28.7242 25.7855 29.1825 25.828 29.8655C25.8341 29.9566 25.8341 30.0476 25.8341 30.1387C25.8341 32.5442 25.8341 34.9498 25.8326 37.3539Z" fill="#327292"/>
</svg>
