<svg width="59" height="59" viewBox="0 0 59 59" fill="none" xmlns="http://www.w3.org/2000/svg">
<path d="M15.0491 29.778L23.7391 38.468L43.2911 18.699M56.3251 29.778C56.3251 35.1488 54.7325 40.3989 51.7487 44.8646C48.7649 49.3302 44.5238 52.8107 39.5619 54.866C34.6 56.9213 29.14 57.4591 23.8725 56.4113C18.6049 55.3635 13.7664 52.7772 9.96866 48.9795C6.17097 45.1818 3.58471 40.3433 2.53692 35.0757C1.48914 29.8082 2.0269 24.3482 4.0822 19.3863C6.1375 14.4244 9.61802 10.1833 14.0836 7.19949C18.5493 4.21566 23.7994 2.62305 29.1701 2.62305C36.3713 2.6257 43.2767 5.48751 48.3687 10.5795C53.4607 15.6715 56.3225 22.5769 56.3251 29.778Z" stroke="#043451" stroke-width="4" stroke-miterlimit="8" stroke-linecap="square"/>
</svg>
