<svg width="44" height="44" viewBox="0 0 44 44" fill="none" xmlns="http://www.w3.org/2000/svg">
<path d="M1.43402e-07 22.0055C-0.00137477 9.86502 9.88426 -0.0123626 22.0289 1.1614e-05C34.1364 0.0123858 43.9973 9.8829 44 21.9931C44.0028 34.1309 34.113 44.0124 21.9725 44C9.86776 43.9876 0.00137506 34.1116 1.43402e-07 22.0055ZM19.9583 25.3961C18.373 23.8067 16.8922 22.3107 15.399 20.8286C14.5768 20.0119 13.4549 19.9679 12.7028 20.6952C11.9453 21.4281 11.9604 22.5582 12.7771 23.3832C14.6937 25.3177 16.6186 27.2439 18.5531 29.1592C19.4262 30.024 20.4491 30.0089 21.3428 29.1468C21.9354 28.5749 22.5101 27.9836 23.0917 27.4007C26.3764 24.116 29.6569 20.8286 32.9471 17.5494C33.464 17.0338 33.794 16.4619 33.6497 15.7153C33.519 15.0374 33.1217 14.5466 32.4604 14.3239C31.6918 14.0654 31.0277 14.2744 30.4598 14.8436C28.3425 16.9651 26.221 19.0824 24.105 21.2053C22.7342 22.5789 21.3744 23.9634 19.9583 25.3961Z" fill="#327292"/>
</svg>
