<svg width="29" height="34" viewBox="0 0 29 34" fill="none" xmlns="http://www.w3.org/2000/svg">
<path d="M14.2866 26.9018C14.6187 26.5545 14.9333 26.2169 15.2577 25.8892C16.0381 25.1018 16.8238 24.3199 17.6052 23.5335C17.7247 23.4136 17.8348 23.3274 18.0306 23.3656C20.239 23.7996 22.3133 24.5582 24.176 25.8483C26.8616 27.7089 28.2243 30.3121 28.5122 33.5255C28.5297 33.7202 28.486 33.8243 28.2696 33.8009C28.1889 33.7922 28.106 33.7998 28.0242 33.7998C18.8185 33.7998 9.61286 33.7998 0.407194 33.7998C-0.0224978 33.7998 -0.024679 33.7998 0.0173087 33.3652C0.380475 29.5999 2.28028 26.8669 5.58367 25.0751C7.11486 24.2441 8.74693 23.7059 10.4521 23.371C10.6391 23.3345 10.758 23.3885 10.8839 23.5155C11.9276 24.5663 12.9757 25.6122 14.0232 26.6592C14.093 26.729 14.1672 26.7922 14.2866 26.9018Z" fill="#327292"/>
<path d="M12.3325 0.168088C12.3374 0.273875 12.345 0.371482 12.3456 0.468545C12.3467 1.07709 12.3532 1.68619 12.3423 2.29474C12.3385 2.51013 12.3941 2.60174 12.6291 2.60392C13.4329 2.61101 13.4329 2.61864 13.4329 1.81215C13.4329 1.29412 13.4384 0.776091 13.4302 0.258606C13.4269 0.0721157 13.4923 -0.00368023 13.6816 0.000136832C14.0627 0.00831625 14.4444 0.00722566 14.8261 0.00177272C15.0121 -0.000953757 15.0802 0.0759327 15.0781 0.262423C15.071 0.943496 15.083 1.62511 15.0715 2.30673C15.0677 2.53303 15.144 2.60337 15.3687 2.60337C16.1577 2.60501 16.1577 2.61264 16.1577 1.82197C16.1577 1.34974 16.1665 0.87697 16.1545 0.404745C16.1485 0.174631 16.2232 0.126645 16.444 0.174086C18.3051 0.573241 19.7474 1.58858 20.8184 3.1443C21.7623 4.51627 22.3021 6.05181 22.571 7.68334C22.656 8.20027 22.7662 8.69595 23.0405 9.14582C23.204 9.4141 23.1582 9.65294 22.9767 9.90105C22.0895 11.1105 21.0458 12.1678 19.8641 13.0867C19.7163 13.2017 19.478 13.2442 19.2817 13.2453C17.1556 13.2562 15.0295 13.2519 12.904 13.2519C11.6683 13.2519 10.4327 13.2475 9.19706 13.2546C8.93586 13.2562 8.73247 13.1723 8.53016 13.0076C7.41177 12.0964 6.4057 11.0811 5.54958 9.91686C5.38436 9.6922 5.28348 9.46045 5.43944 9.21507C5.81296 8.62833 5.87567 7.95871 6.01036 7.30218C6.39643 5.41327 7.09986 3.66615 8.43038 2.22712C9.41572 1.16107 10.6279 0.484904 12.0484 0.182265C12.1106 0.169178 12.1733 0.159908 12.2365 0.151729C12.2523 0.149548 12.2709 0.157182 12.3325 0.168088Z" fill="#327292"/>
<path d="M6.39557 11.5408C6.60878 11.7665 6.82526 11.9928 7.03847 12.2224C7.39128 12.6019 7.74408 12.9809 8.09252 13.3637C8.35208 13.6489 8.66399 13.7912 9.05497 13.7912C12.4723 13.7868 15.8891 13.7857 19.3065 13.7901C19.6533 13.7907 19.9445 13.6892 20.2002 13.458C20.8202 12.8986 21.4452 12.344 22.0684 11.7878C22.0941 11.7649 22.1251 11.7474 22.1671 11.7174C22.1895 11.7573 22.2173 11.7845 22.22 11.8145C22.3487 13.1096 22.3422 14.3932 21.8623 15.631C21.6485 16.1818 21.3257 16.6562 20.8922 17.0624C20.7821 17.1655 20.7019 17.3263 20.6627 17.4747C20.1844 19.2894 19.2852 20.8386 17.7551 21.9581C16.0255 23.2237 14.1218 23.6349 12.0623 22.8976C10.4826 22.3321 9.38923 21.1947 8.67326 19.7126C8.32809 18.9982 8.1247 18.2163 7.84551 17.4692C7.78825 17.3154 7.70973 17.1502 7.59303 17.0412C6.78491 16.2843 6.40865 15.3142 6.30832 14.2542C6.2298 13.4275 6.29142 12.5883 6.2936 11.754C6.2936 11.7011 6.31323 11.6471 6.3285 11.5953C6.33286 11.5833 6.35413 11.5746 6.39557 11.5408Z" fill="#327292"/>
</svg>
