<svg width="31" height="34" viewBox="0 0 31 34" fill="none" xmlns="http://www.w3.org/2000/svg">
<path d="M20.2024 8.97254C21.4373 8.47326 22.5726 8.04288 23.6814 7.55208C24.1553 7.34219 24.575 7.34219 25.0489 7.50332C26.8001 8.09694 28.5545 8.68421 30.3173 9.24073C30.8251 9.4008 31.001 9.66475 30.9989 10.1958C30.982 15.954 30.9788 21.7132 31 27.4714C31.0021 28.0682 30.7901 28.33 30.2399 28.4657C27.5888 29.1166 24.9418 29.7865 22.2949 30.4544C17.9572 31.5494 13.6195 32.6444 9.28495 33.7522C8.79839 33.8762 8.38709 33.8582 7.93021 33.6027C5.48256 32.2342 3.0222 30.889 0.554411 29.5576C0.139933 29.3328 6.78125e-06 29.0572 6.78125e-06 28.5929C0.0127273 22.0047 0.0137874 15.4155 6.78125e-06 8.82731C-0.00105326 8.34923 0.121912 7.99518 0.54805 7.78423C0.872424 7.62416 0.951928 7.36339 0.901046 7.0422C0.783381 6.29593 1.09715 5.80936 1.68972 5.34824C3.83737 3.67973 5.94474 1.9614 8.05529 0.247305C8.38497 -0.019827 8.68708 -0.0632888 9.07612 0.0819374C12.1131 1.21513 15.1512 2.34301 18.1957 3.455C18.6632 3.62567 18.8953 3.89492 18.8572 4.39208C18.8487 4.49703 18.872 4.60727 18.854 4.70904C18.749 5.29842 18.9579 5.6334 19.5791 5.7235C20.0571 5.7924 20.2299 6.11572 20.2108 6.60016C20.1812 7.35491 20.2024 8.11178 20.2024 8.97254ZM7.45001 32.8999C7.47227 32.5427 7.49559 32.3381 7.49559 32.1324C7.49877 29.9095 7.49771 27.6876 7.49771 25.4647C7.49771 24.2065 7.49877 24.2001 6.28078 23.952C5.81118 23.8566 5.3331 23.7973 4.86244 23.722C4.82534 23.8566 4.79989 23.9065 4.79989 23.9563C4.79671 26.3552 4.79353 28.7541 4.79989 31.1529C4.79989 31.277 4.85396 31.4625 4.943 31.5144C5.73273 31.9681 6.53519 32.3985 7.45001 32.8999ZM19.4911 30.6791C19.6427 30.6939 19.6978 30.7141 19.7455 30.7024C21.2476 30.3272 22.7507 29.9572 24.2443 29.5544C24.3758 29.5194 24.5305 29.2597 24.5316 29.1039C24.5475 25.699 24.5411 22.2941 24.5485 18.8893C24.5496 18.5554 24.4351 18.4228 24.0885 18.4144C22.7666 18.3836 21.4426 18.3508 20.1239 18.267C19.5907 18.2331 19.4783 18.4133 19.4805 18.9115C19.4995 22.6333 19.4911 26.3562 19.4911 30.0791C19.4911 30.2689 19.4911 30.4586 19.4911 30.6791ZM9.77893 5.03341C9.72593 5.16486 9.67928 5.22846 9.67822 5.291C9.67292 6.64892 9.66338 8.00578 9.68565 9.36264C9.68777 9.48772 9.88387 9.68913 10.0206 9.71987C11.1347 9.97534 12.2563 10.1958 13.3746 10.4333C13.6767 10.4969 13.7997 10.3824 13.7986 10.0803C13.7944 8.8994 13.8092 7.71745 13.7827 6.53762C13.7795 6.38603 13.6015 6.14964 13.4573 6.10512C12.252 5.73092 11.0351 5.39383 9.77893 5.03341ZM9.6708 20.1772C9.6708 20.7952 9.68564 21.4132 9.6655 22.0302C9.65384 22.3906 9.76197 22.5443 10.1468 22.5178C11.2206 22.4457 12.2955 22.3917 13.3704 22.3493C13.681 22.3365 13.8082 22.2327 13.8039 21.9093C13.7901 20.7624 13.7912 19.6154 13.8039 18.4684C13.8071 18.1483 13.6767 18.0222 13.3714 18.0116C12.2785 17.9755 11.1845 17.9384 10.0927 17.8875C9.76197 17.8727 9.6602 18.0126 9.66762 18.3243C9.68034 18.9412 9.6708 19.5592 9.6708 20.1772ZM9.6708 11.4573C9.6708 12.9233 9.68458 14.2622 9.66232 15.5999C9.65596 15.9964 9.80013 16.1215 10.1733 16.1459C11.1951 16.2105 12.216 16.2879 13.2336 16.3929C13.6894 16.4395 13.8166 16.2763 13.805 15.8374C13.7795 14.8134 13.7785 13.7883 13.805 12.7643C13.8166 12.3064 13.7467 12.0159 13.1986 12.0202C12.9039 12.0223 12.6103 11.9173 12.3146 11.8696C11.4665 11.735 10.6174 11.6046 9.6708 11.4573ZM9.6708 26.6244C9.6708 27.2424 9.68776 27.8615 9.66444 28.4784C9.65066 28.8442 9.78953 28.9491 10.134 28.8887C11.228 28.6968 12.3262 28.5304 13.4149 28.3141C13.5654 28.2845 13.7764 28.029 13.7806 27.8742C13.8113 26.7272 13.7891 25.5782 13.8029 24.4301C13.8071 24.0708 13.6629 23.9743 13.3216 24.005C12.2499 24.1026 11.1761 24.1853 10.1012 24.2573C9.75455 24.2807 9.65702 24.445 9.66656 24.7693C9.68352 25.3884 9.6708 26.0064 9.6708 26.6244ZM18.4639 11.4562C18.4639 10.145 18.4745 8.95028 18.4469 7.75773C18.4437 7.64006 18.2201 7.47046 18.0685 7.42275C17.23 7.16092 16.3798 6.93725 15.5382 6.68284C15.2117 6.58426 15.077 6.67118 15.0792 7.0157C15.0855 8.14358 15.0739 9.27253 15.0919 10.4004C15.094 10.5382 15.217 10.7714 15.3219 10.7958C16.3279 11.028 17.3413 11.2251 18.4639 11.4562ZM15.0802 14.4477C15.0802 14.9766 15.1014 15.5067 15.0728 16.0346C15.0527 16.4013 15.2032 16.5455 15.5456 16.5709C16.4074 16.6346 17.2671 16.7204 18.1289 16.7607C18.236 16.766 18.449 16.5497 18.4522 16.4321C18.4777 15.3572 18.4787 14.2802 18.4533 13.2053C18.4501 13.0696 18.2741 12.8438 18.148 12.8194C17.2671 12.6509 16.3767 12.5269 15.4905 12.3848C15.1936 12.3371 15.0696 12.4474 15.077 12.7548C15.0898 13.3187 15.0802 13.8837 15.0802 14.4477ZM18.466 25.5517C18.466 25.0407 18.449 24.5287 18.4724 24.0188C18.4883 23.6616 18.3515 23.5513 18.0081 23.5863C17.1674 23.6722 16.3258 23.7475 15.483 23.8058C15.1555 23.828 15.0728 23.9849 15.076 24.2817C15.0855 25.3736 15.0908 26.4665 15.0739 27.5583C15.0686 27.9262 15.2117 28.0237 15.5498 27.9643C16.4148 27.8127 17.2862 27.6876 18.1459 27.5106C18.2763 27.4841 18.4406 27.2382 18.4522 27.0834C18.4904 26.5757 18.466 26.0626 18.466 25.5517ZM15.0802 20.1645C15.0802 20.7284 15.0908 21.2924 15.076 21.8563C15.0675 22.1871 15.2095 22.2899 15.5233 22.2708C16.3851 22.2178 17.247 22.1722 18.1098 22.1415C18.3876 22.1319 18.4724 22.0153 18.4702 21.7525C18.4618 20.6956 18.4777 19.6377 18.4522 18.5808C18.449 18.4536 18.2614 18.231 18.1459 18.2225C17.2682 18.1557 16.3862 18.1366 15.5074 18.09C15.1809 18.073 15.0686 18.214 15.076 18.5267C15.0898 19.0727 15.0802 19.6186 15.0802 20.1645ZM1.35369 23.0446C1.32188 23.1878 1.28796 23.2715 1.2869 23.3552C1.28372 25.3142 1.28266 27.2721 1.28584 29.2311C1.28584 29.3307 1.29432 29.4865 1.35475 29.5226C1.92929 29.8639 2.5155 30.1851 3.18756 30.5614C3.18756 28.0682 3.18756 25.7478 3.18756 23.3881C2.5685 23.2715 1.97063 23.1591 1.35369 23.0446ZM7.42669 5.43411C7.02387 5.67792 6.7101 5.86131 6.40374 6.05635C5.88326 6.38603 5.16455 6.61288 4.9059 7.08778C4.63665 7.58282 4.80519 8.32061 4.79671 8.95134C4.78717 9.63295 4.79459 10.3146 4.79459 11.0852C5.05112 11.0015 5.21437 10.9612 5.36702 10.8955C5.93308 10.6506 6.48537 10.3739 7.06203 10.1566C7.40337 10.0283 7.51043 9.83436 7.50513 9.4856C7.48817 8.33863 7.50089 7.1906 7.49665 6.04363C7.49453 5.87827 7.45955 5.7129 7.42669 5.43411ZM4.79671 16.6632C5.58009 16.5307 6.267 16.3865 6.96133 16.3091C7.35778 16.2646 7.51255 16.1278 7.50513 15.7187C7.48393 14.5547 7.50089 13.3908 7.49453 12.2269C7.49347 12.0647 7.45213 11.9025 7.42245 11.6884C6.58395 11.982 5.81966 12.2396 5.06597 12.5248C4.95042 12.5682 4.80943 12.741 4.80837 12.8565C4.78929 14.0862 4.79671 15.3169 4.79671 16.6632ZM7.49029 22.4648C7.49029 20.9956 7.49665 19.6048 7.47439 18.2151C7.47333 18.1313 7.23482 17.9766 7.11079 17.9808C6.45887 17.9999 5.80482 18.0381 5.15925 18.1229C5.02356 18.1409 4.81473 18.3762 4.81155 18.5161C4.78293 19.6281 4.78929 20.7401 4.80519 21.8532C4.80731 21.9761 4.92816 22.1913 5.01508 22.203C5.81224 22.3079 6.61575 22.3779 7.49029 22.4648ZM25.3404 9.50256C25.2832 9.60115 25.2196 9.65945 25.2185 9.71881C25.2079 10.6686 25.1994 11.6184 25.2079 12.5693C25.209 12.6689 25.3054 12.8385 25.3849 12.8565C26.04 13.005 26.7015 13.1237 27.4308 13.2657C27.4308 12.2195 27.4425 11.2887 27.417 10.3591C27.4139 10.2393 27.2368 10.0623 27.1043 10.0177C26.5393 9.82906 25.9626 9.67959 25.3404 9.50256ZM25.1485 20.0998C25.1644 20.1009 25.1803 20.103 25.1952 20.1041C25.1952 20.527 25.2026 20.95 25.1931 21.3719C25.1867 21.6719 25.28 21.8309 25.6181 21.8065C26.057 21.7747 26.498 21.7673 26.9379 21.7726C27.3301 21.7768 27.4541 21.5998 27.4403 21.2203C27.417 20.5345 27.4064 19.8454 27.4435 19.1606C27.47 18.672 27.2983 18.4886 26.8149 18.5193C26.3103 18.5511 25.598 18.3412 25.3489 18.5978C25.0669 18.8903 25.1973 19.5815 25.1485 20.0998ZM25.1899 24.6188C25.1899 25.0238 25.1994 25.4287 25.1867 25.8326C25.1761 26.1686 25.281 26.3255 25.6489 26.2545C26.1312 26.1612 26.6241 26.1198 27.1001 26.0043C27.2336 25.9725 27.4128 25.7605 27.417 25.6259C27.4467 24.8001 27.4457 23.9722 27.416 23.1475C27.4117 23.033 27.1923 22.8316 27.0746 22.8326C26.5669 22.839 26.0549 22.8803 25.5556 22.9673C25.4157 22.9916 25.2238 23.209 25.2068 23.3542C25.1602 23.7718 25.1909 24.1969 25.1899 24.6188ZM25.1962 15.6699C25.1962 16.0929 25.1994 16.5148 25.1952 16.9377C25.1931 17.2091 25.2853 17.3575 25.5916 17.3639C26.0135 17.3734 26.4375 17.3988 26.8531 17.4667C27.346 17.5473 27.4732 17.3405 27.4414 16.889C27.4117 16.4681 27.435 16.0441 27.435 15.6222C27.435 14.3788 27.435 14.3777 26.2224 14.1466C26.0156 14.1074 25.8058 14.0788 25.6012 14.0332C25.2832 13.9622 25.1899 14.118 25.1941 14.4032C25.1994 14.8251 25.1952 15.248 25.1962 15.6699ZM1.28584 12.6954C1.96533 12.3901 2.55578 12.1431 3.12396 11.8527C3.20771 11.8103 3.21301 11.5654 3.21407 11.4149C3.22149 10.4969 3.22043 9.57889 3.21619 8.66195C3.21513 8.51566 3.18544 8.36937 3.15258 8.07892C2.49747 8.49234 1.93671 8.84215 1.38443 9.20363C1.32612 9.24179 1.29114 9.35416 1.29008 9.4326C1.28372 10.4714 1.28584 11.5092 1.28584 12.6954ZM3.21195 13.1979C2.87485 13.3049 2.66072 13.3686 2.44871 13.4417C1.28266 13.8488 1.28266 13.8498 1.28266 15.1028C1.28266 15.8014 1.28266 16.4999 1.28266 17.2685C1.91763 17.1646 2.45507 17.0872 2.98616 16.9812C3.07414 16.9632 3.20134 16.8211 3.2024 16.7353C3.21725 15.5925 3.21195 14.4509 3.21195 13.1979ZM3.21619 22.027C3.21619 20.8217 3.22573 19.714 3.20028 18.6073C3.19816 18.5034 2.96601 18.32 2.84093 18.319C2.42009 18.3168 1.99501 18.3592 1.5816 18.4345C1.46605 18.4557 1.30174 18.6508 1.29856 18.7695C1.27524 19.6854 1.27418 20.6023 1.2975 21.5182C1.30068 21.6464 1.45545 21.8638 1.56357 21.8797C2.07982 21.957 2.60454 21.9793 3.21619 22.027ZM27.9301 24.2891C27.9301 24.6061 27.911 24.9252 27.9365 25.24C27.9545 25.4658 27.8156 25.9248 28.2301 25.8008C28.7887 25.6322 29.5361 25.9683 29.8954 25.2411C29.9378 25.1563 29.9028 25.0322 29.9028 24.9273C29.9028 24.3633 29.8785 23.7983 29.9103 23.2365C29.9378 22.7478 29.8339 22.486 29.271 22.6312C29.0537 22.6874 28.8152 22.6736 28.5873 22.6662C28.1135 22.6503 27.8569 22.8093 27.9227 23.3404C27.9619 23.651 27.9301 23.9722 27.9301 24.2891ZM27.9301 11.8304C27.9301 11.9894 27.9301 12.1484 27.9301 12.3074C27.9301 13.3834 27.9301 13.3834 28.9668 13.6134C29.9039 13.8222 29.9039 13.8222 29.9039 12.8343C29.9039 12.6573 29.9039 12.4813 29.9039 12.3043C29.9039 10.7661 29.9039 10.7661 28.4304 10.3782C28.4135 10.3739 28.3965 10.3697 28.3796 10.3644C28.0584 10.2637 27.9163 10.3771 27.928 10.7174C27.9407 11.0884 27.9301 11.4594 27.9301 11.8304ZM27.9386 14.4191C27.9386 15.4526 27.9312 16.3791 27.9502 17.3045C27.9524 17.3914 28.1145 17.5335 28.2174 17.5483C28.6509 17.6119 29.0908 17.666 29.5265 17.6575C29.6537 17.6554 29.8795 17.437 29.8848 17.3098C29.9187 16.5561 29.9124 15.7992 29.8901 15.0445C29.8869 14.9289 29.7544 14.7392 29.6527 14.7159C29.1269 14.6003 28.5916 14.5272 27.9386 14.4191ZM27.9312 20.1422C27.9312 20.5302 27.91 20.9193 27.9428 21.3041C27.9545 21.4387 28.1029 21.674 28.1856 21.6729C28.7272 21.6645 29.306 21.6973 29.7905 21.5076C29.9527 21.444 29.8753 20.7687 29.905 20.3733C29.9113 20.2853 29.9081 20.1974 29.906 20.1094C29.8573 18.3115 30.259 18.6879 28.3552 18.6009C28.0255 18.5861 27.9163 18.7239 27.928 19.0345C27.9407 19.4023 27.9301 19.7723 27.9312 20.1422Z" fill="#327292"/>
<path d="M23.972 24.3888C23.972 25.9407 23.9636 27.4926 23.9773 29.0445C23.9816 29.4813 23.8629 29.5936 23.4134 29.4728C22.5134 29.2311 21.5997 29.0424 20.6848 28.8622C20.3234 28.7912 20.1898 28.6375 20.1919 28.2633C20.2046 25.3354 20.2036 22.4086 20.194 19.4808C20.193 19.0843 20.3308 18.9592 20.7304 18.991C21.6442 19.0653 22.5601 19.1172 23.4759 19.1352C23.8841 19.1437 23.9805 19.3091 23.9773 19.6801C23.9646 21.25 23.972 22.8199 23.972 24.3888Z" fill="#327292"/>
</svg>
