<svg width="35" height="47" viewBox="0 0 35 47" fill="none" xmlns="http://www.w3.org/2000/svg">
<path fill-rule="evenodd" clip-rule="evenodd" d="M28.9182 27.7309C28.1692 27.3719 27.3092 26.9959 26.4182 26.6469C27.4072 24.9839 30.5592 18.8469 27.9702 12.0619H28.6982C28.7724 12.0619 28.846 12.0472 28.9146 12.0188C28.9832 11.9903 29.0456 11.9486 29.098 11.896C29.1505 11.8435 29.1921 11.7811 29.2204 11.7124C29.2488 11.6437 29.2633 11.5702 29.2632 11.4959C29.2633 11.4216 29.2488 11.348 29.2204 11.2794C29.1921 11.2107 29.1505 11.1483 29.098 11.0957C29.0456 11.0431 28.9832 11.0014 28.9146 10.973C28.846 10.9445 28.7724 10.9299 28.6982 10.9299H27.2762V9.94186C27.1821 8.35858 26.683 6.82599 25.8268 5.49088C24.9706 4.15576 23.7859 3.06285 22.3862 2.31686L22.0642 2.14389C21.9106 1.5812 21.5766 1.08446 21.1134 0.730011C20.6502 0.375561 20.0834 0.182998 19.5002 0.181885H16.4282C15.8415 0.182749 15.2716 0.377315 14.8068 0.735352C14.3421 1.09339 14.0086 1.59484 13.8582 2.16187L13.5662 2.31888C12.1665 3.06494 10.9819 4.15785 10.1257 5.49295C9.26945 6.82805 8.77035 8.36062 8.67616 9.94388V10.9299H7.21816C7.14388 10.9299 7.07033 10.9445 7.00172 10.973C6.9331 11.0014 6.87077 11.0431 6.81829 11.0957C6.76582 11.1483 6.72422 11.2107 6.69588 11.2794C6.66755 11.348 6.65303 11.4216 6.65316 11.4959C6.65303 11.5702 6.66755 11.6437 6.69588 11.7124C6.72422 11.7811 6.76582 11.8435 6.81829 11.896C6.87077 11.9486 6.9331 11.9903 7.00172 12.0188C7.07033 12.0472 7.14388 12.0619 7.21816 12.0619H7.95016C5.36316 18.8449 8.50716 24.9779 9.49716 26.6449C8.81216 26.9129 8.18016 27.1849 7.58016 27.4579L7.28616 27.5899C5.70807 28.2934 4.23074 29.2041 2.89316 30.2979C2.32409 30.7647 1.8605 31.3469 1.53298 32.0061C1.20547 32.6652 1.02148 33.3864 0.993164 34.1219V43.7569L1.24516 43.9269C3.88416 45.6859 11.0392 46.5669 18.1342 46.5669C25.2572 46.5669 32.3232 45.6789 34.6802 43.9079L34.9062 43.7379V34.1099C34.8772 33.3766 34.6934 32.6577 34.3668 32.0005C34.0402 31.3433 33.5782 30.7627 33.0112 30.2969C31.7613 29.2713 30.3859 28.409 28.9182 27.7309V27.7309ZM9.80416 10.0119C9.89184 8.62155 10.3327 7.27659 11.0852 6.10419C11.8376 4.93178 12.8767 3.97071 14.1042 3.31189L14.8952 6.55188C14.9223 6.66368 14.9865 6.76301 15.0773 6.83365C15.1681 6.90429 15.2801 6.94209 15.3952 6.94089H15.5352L15.5642 6.93387C15.695 6.89806 15.8063 6.81191 15.8738 6.69421C15.9413 6.57652 15.9594 6.43688 15.9242 6.30588L14.9522 2.47287C15.0351 2.14202 15.2259 1.84826 15.4945 1.638C15.7631 1.42774 16.0941 1.31299 16.4352 1.31189H19.5032C19.8443 1.31322 20.1753 1.42818 20.4439 1.63861C20.7125 1.84904 20.9033 2.14292 20.9862 2.47388L20.0142 6.30688C20.0113 6.31642 20.009 6.32609 20.0072 6.33588C19.9801 6.46708 20.0059 6.60365 20.0789 6.71597C20.1519 6.82829 20.2663 6.90732 20.3972 6.93588H20.5402C20.6552 6.93709 20.7673 6.89929 20.8581 6.82864C20.9489 6.758 21.013 6.65868 21.0402 6.54688L21.8592 3.30688C23.0866 3.96571 24.1257 4.92678 24.8781 6.09918C25.6306 7.27159 26.0715 8.61654 26.1592 10.0069V10.9229H9.80416V10.0119ZM19.6572 40.9119H29.1732L29.2672 41.5209V44.6119C26.0908 45.1424 22.8775 45.4212 19.6572 45.4459V40.9119ZM24.9472 27.3029L27.2292 28.2499L28.9992 39.7799H19.6572V36.4989L23.7272 26.7989L24.9472 27.3029ZM6.65616 41.5179L6.75616 40.9079H16.2702V45.4309C13.0489 45.3875 9.83593 45.0939 6.66016 44.5529L6.65616 41.5179ZM11.1502 27.2179L12.1952 26.7899L16.2652 36.4989V39.7789H6.92816L8.74016 28.2049L10.7182 27.3939L11.1502 27.2179ZM19.5032 12.1519C21.5705 13.3249 23.5137 14.7043 25.3032 16.2689C25.272 17.2338 25.0511 18.1831 24.6531 19.0626C24.255 19.9421 23.6876 20.7347 22.9833 21.3949C22.2789 22.0551 21.4515 22.5701 20.5481 22.9106C19.6447 23.251 18.6831 23.4101 17.7182 23.3789C15.893 23.3188 14.1555 22.5815 12.8442 21.3106C11.5328 20.0398 10.7414 18.3263 10.6242 16.5039C12.2882 16.2109 17.5112 15.0909 19.5022 12.1489L19.5032 12.1519ZM13.1982 26.2609C13.4492 26.0488 13.6509 25.7845 13.7891 25.4864C13.9273 25.1882 13.9986 24.8635 13.9982 24.5349V23.5189C15.217 24.167 16.5763 24.506 17.9567 24.506C19.3371 24.506 20.6964 24.167 21.9152 23.5189V24.5299C21.9146 24.8603 21.9867 25.1868 22.1263 25.4863C22.2659 25.7858 22.4697 26.0509 22.7232 26.2629L22.2762 27.3289C19.4502 28.0874 16.4742 28.0874 13.6482 27.3289L13.1982 26.2609ZM25.3452 26.2449L23.7452 25.5829C23.5372 25.4977 23.3594 25.3524 23.2347 25.1655C23.11 24.9785 23.044 24.7586 23.0452 24.5339V22.7969C24.0974 22.0086 24.9518 20.9863 25.5405 19.8107C26.1292 18.6351 26.4362 17.3386 26.4372 16.0239C26.4371 15.9469 26.4214 15.8708 26.391 15.8001C26.3606 15.7295 26.3161 15.6658 26.2602 15.6129C24.8164 14.28 23.2456 13.0916 21.5702 12.0649H26.7502C29.5752 18.8529 26.0822 25.0589 25.3452 26.2449ZM9.17216 12.0599H18.1322C15.7442 14.6459 10.0322 15.4539 9.97016 15.4599C9.83442 15.478 9.70987 15.5448 9.61958 15.6477C9.5293 15.7507 9.47941 15.8829 9.47916 16.0199C9.48013 17.3334 9.78666 18.6287 10.3745 19.8033C10.9623 20.978 11.8154 21.9997 12.8662 22.7879V24.5299C12.8668 24.7541 12.8005 24.9734 12.6758 25.1597C12.5511 25.346 12.3737 25.4909 12.1662 25.5759L10.5662 26.2309C9.82316 25.0239 6.35016 18.8309 9.17216 12.0599ZM2.13116 34.1309C2.1536 33.5565 2.29913 32.9937 2.55792 32.4804C2.8167 31.9671 3.18271 31.5155 3.63116 31.1559C4.81677 30.1852 6.1217 29.3703 7.51416 28.7309L5.53516 41.3859L5.52916 44.3189C4.34566 44.0881 3.20091 43.6904 2.12916 43.1379L2.13116 34.1309ZM17.3962 45.4509V36.2699L14.1962 28.6439C16.6784 29.1589 19.2399 29.1589 21.7222 28.6439L18.5222 36.2699V45.4539C18.1468 45.4552 17.7715 45.4542 17.3962 45.4509ZM33.7812 43.1569C32.7265 43.7445 31.5838 44.1575 30.3972 44.3799V41.4749L28.4502 28.7589C29.8251 29.3936 31.1141 30.2 32.2862 31.1589C32.7333 31.517 33.0986 31.9667 33.3573 32.4778C33.6161 32.9889 33.7623 33.5495 33.7862 34.1219L33.7812 43.1569Z" fill="white"/>
<path d="M28.918 27.7289C28.169 27.3699 27.309 26.9939 26.418 26.6449C27.407 24.9819 30.559 18.8449 27.97 12.0599H28.7C28.8459 12.0538 28.9837 11.9915 29.0848 11.8861C29.1858 11.7808 29.2422 11.6404 29.2422 11.4944C29.2422 11.3484 29.1858 11.2081 29.0848 11.1027C28.9837 10.9973 28.8459 10.935 28.7 10.9289H27.276V9.94091C27.1819 8.35762 26.6829 6.82502 25.8266 5.4899C24.9704 4.15479 23.7857 3.06189 22.386 2.31591L22.064 2.14291C21.9105 1.58022 21.5764 1.08349 21.1132 0.729044C20.65 0.374593 20.0833 0.182021 19.5 0.180908L16.428 0.180908C15.8414 0.181773 15.2714 0.376332 14.8067 0.734369C14.342 1.09241 14.0085 1.59388 13.858 2.16091L13.566 2.31791C12.1664 3.06397 10.9817 4.15688 10.1255 5.49198C9.26928 6.82708 8.77018 8.35965 8.676 9.94291V10.9289H7.218C7.07213 10.935 6.93428 10.9973 6.83324 11.1027C6.7322 11.2081 6.67579 11.3484 6.67579 11.4944C6.67579 11.6404 6.7322 11.7808 6.83324 11.8861C6.93428 11.9915 7.07213 12.0538 7.218 12.0599H7.953C5.366 18.8429 8.51 24.9749 9.5 26.6419C8.815 26.9099 8.183 27.1819 7.583 27.4549L7.289 27.5869C5.71226 28.2911 4.23629 29.2021 2.9 30.2959C2.33093 30.7627 1.86733 31.3449 1.53982 32.0041C1.2123 32.6633 1.02832 33.3844 1 34.1199L1 43.7549L1.252 43.9249C3.891 45.6839 11.046 46.5649 18.141 46.5649C25.264 46.5649 32.33 45.6769 34.687 43.9059L34.913 43.7359V34.1089C34.8841 33.3756 34.7003 32.6567 34.3737 31.9996C34.0471 31.3424 33.585 30.7618 33.018 30.2959C31.766 29.2694 30.3882 28.4068 28.918 27.7289ZM9.8 10.0119C9.88767 8.62158 10.3286 7.27661 11.081 6.1042C11.8335 4.9318 12.8725 3.97073 14.1 3.31191L14.891 6.55191C14.9181 6.66371 14.9823 6.76303 15.0731 6.83367C15.1639 6.90432 15.276 6.94212 15.391 6.94091H15.531L15.56 6.93391C15.6908 6.8981 15.8022 6.81192 15.8697 6.69423C15.9371 6.57654 15.9552 6.43691 15.92 6.30591L14.948 2.47191C15.0309 2.14106 15.2218 1.84728 15.4903 1.63702C15.7589 1.42676 16.0899 1.31201 16.431 1.31091H19.5C19.8408 1.31296 20.1712 1.42837 20.4392 1.63894C20.7071 1.84951 20.8974 2.14327 20.98 2.47391L20.008 6.30691C20.0048 6.31642 20.0021 6.3261 20 6.33591C19.973 6.46712 19.9988 6.60369 20.0718 6.71601C20.1448 6.82833 20.2591 6.90734 20.39 6.93591H20.533C20.648 6.93712 20.7601 6.89932 20.8509 6.82867C20.9417 6.75803 21.0059 6.65871 21.033 6.54691L21.852 3.30691C23.0795 3.96573 24.1185 4.9268 24.871 6.0992C25.6234 7.27161 26.0643 8.61658 26.152 10.0069V10.9229H9.8V10.0119ZM19.653 40.9119H29.169L29.263 41.5209V44.6119C26.0866 45.1424 22.8733 45.4212 19.653 45.4459V40.9119ZM24.943 27.3029L27.225 28.2499L29 39.7809H19.657V36.4959L23.727 26.7959L24.943 27.3029ZM6.656 41.5179L6.756 40.9079H16.27V45.4329C13.0488 45.3895 9.83577 45.0959 6.66 44.5549L6.656 41.5179ZM11.15 27.2179L12.195 26.7899L16.265 36.4989V39.7809H6.928L8.741 28.2029L10.719 27.3919L11.15 27.2179ZM19.5 12.1489C21.5673 13.322 23.5106 14.7013 25.3 16.2659C25.2364 18.1507 24.4506 19.939 23.1053 21.2606C21.7599 22.5822 19.958 23.336 18.0723 23.3661C16.1867 23.3961 14.3616 22.7001 12.9748 21.4221C11.588 20.144 10.7457 18.3817 10.622 16.4999C12.288 16.2109 17.511 15.0909 19.5 12.1489ZM13.2 26.2579C13.4512 26.0458 13.6529 25.7813 13.7911 25.4829C13.9293 25.1846 14.0006 24.8597 14 24.5309V23.5159C15.2188 24.164 16.5781 24.503 17.9585 24.503C19.3389 24.503 20.6982 24.164 21.917 23.5159V24.5269C21.9164 24.8573 21.9885 25.1839 22.1281 25.4833C22.2678 25.7828 22.4715 26.0479 22.725 26.2599L22.278 27.3259C19.452 28.0844 16.476 28.0844 13.65 27.3259L13.2 26.2579ZM25.347 26.2419L23.747 25.5799C23.539 25.4948 23.3613 25.3494 23.2365 25.1625C23.1118 24.9756 23.0458 24.7556 23.047 24.5309V22.7929C24.0993 22.0047 24.9536 20.9823 25.5423 19.8067C26.1311 18.6312 26.4381 17.3347 26.439 16.0199C26.439 15.943 26.4233 15.8668 26.3928 15.7962C26.3624 15.7255 26.3179 15.6618 26.262 15.6089C24.8182 14.276 23.2474 13.0877 21.572 12.0609H26.751C29.576 18.8489 26.083 25.0549 25.346 26.2409L25.347 26.2419ZM9.172 12.0599H18.132C15.744 14.6459 10.032 15.4539 9.97 15.4599C9.83417 15.4779 9.70949 15.5445 9.61917 15.6476C9.52885 15.7506 9.47903 15.8829 9.479 16.0199C9.47997 17.3334 9.78649 18.6287 10.3743 19.8033C10.9622 20.978 11.8152 21.9998 12.866 22.7879V24.5299C12.8666 24.7541 12.8003 24.9734 12.6756 25.1597C12.5509 25.3461 12.3735 25.491 12.166 25.5759L10.566 26.2309C9.823 25.0239 6.353 18.8309 9.172 12.0599ZM2.131 34.1319C2.15344 33.5575 2.29897 32.9947 2.55775 32.4814C2.81654 31.9682 3.18254 31.5165 3.631 31.1569C4.8179 30.1863 6.12419 29.3717 7.518 28.7329L5.535 41.3859L5.53 44.3189C4.3465 44.0881 3.20175 43.6904 2.13 43.1379L2.131 34.1319ZM17.4 45.4509V36.2699L14.2 28.6439C16.6822 29.1589 19.2438 29.1589 21.726 28.6439L18.526 36.2699V45.4539C18.148 45.4552 17.7727 45.4542 17.4 45.4509ZM33.785 43.1569C32.7301 43.745 31.587 44.1583 30.4 44.3809V41.4739L28.449 28.7589C29.824 29.3936 31.1129 30.2 32.285 31.1589C32.7322 31.517 33.0974 31.9667 33.3562 32.4778C33.6149 32.9889 33.7611 33.5495 33.785 34.1219V43.1569Z" fill="white"/>
</svg>
