<svg width="64" height="64" viewBox="0 0 64 64" fill="none" xmlns="http://www.w3.org/2000/svg">
<path fill-rule="evenodd" clip-rule="evenodd" d="M31.703 0C23.2917 0.0161525 15.2301 3.36791 9.28683 9.32004C3.34351 15.2722 0.0036918 23.3386 0 31.75C0.00369001 40.1608 3.34309 48.2269 9.28576 54.1789C15.2284 60.1309 23.2892 63.4831 31.7 63.5C40.1119 63.4846 48.1741 60.1332 54.1181 54.181C60.0621 48.2288 63.4023 40.1619 63.406 31.75C63.4023 23.3386 60.0625 15.2722 54.1192 9.32004C48.1759 3.36791 40.1143 0.0161525 31.703 0V0ZM61.692 30.892H47.983C47.726 19.308 42.671 8.492 34.445 1.892C41.7409 2.57401 48.5365 5.89764 53.5541 11.238C58.5716 16.5784 61.4656 23.5677 61.692 30.892V30.892ZM30.846 30.892H17.137C17.394 19.392 22.537 8.75301 30.846 2.57401V30.892ZM30.846 32.608V60.926C22.535 54.662 17.394 44.026 17.137 32.608H30.846ZM32.56 32.608H46.269C46.012 44.108 40.869 54.747 32.56 60.926V32.608ZM32.56 30.892V2.57401C40.871 8.83801 46.012 19.474 46.269 30.892H32.56ZM28.96 1.892C20.734 8.499 15.679 19.312 15.422 30.892H1.714C1.9394 23.567 4.83297 16.5768 9.85064 11.2355C14.8683 5.89431 21.6644 2.5701 28.961 1.888L28.96 1.892ZM1.714 32.608H15.423C15.68 44.192 20.735 55.008 28.961 61.608C21.6651 60.926 14.8695 57.6024 9.85194 52.262C4.83436 46.9216 1.94035 39.9323 1.714 32.608V32.608ZM34.445 61.608C42.671 55.001 47.726 44.188 47.983 32.608H61.692C61.4974 39.8437 58.6926 46.765 53.795 52.0949C48.8974 57.4247 42.2375 60.8036 35.044 61.608H34.445Z" fill="white"/>
</svg>
