<svg width="51" height="69" viewBox="0 0 51 69" fill="none" xmlns="http://www.w3.org/2000/svg">
<path fill-rule="evenodd" clip-rule="evenodd" d="M41.434 40.884C40.322 40.352 39.045 39.793 37.726 39.275C39.193 36.807 43.872 27.703 40.026 17.629H41.106C41.3285 17.629 41.5419 17.5406 41.6993 17.3833C41.8566 17.2259 41.945 17.0125 41.945 16.79C41.9451 16.6797 41.9235 16.5705 41.8814 16.4686C41.8393 16.3667 41.7775 16.2741 41.6996 16.1961C41.6217 16.1181 41.5292 16.0562 41.4273 16.0139C41.3254 15.9717 41.2163 15.95 41.106 15.95H38.996V14.484C38.8563 12.1343 38.1156 9.85989 36.8449 7.87851C35.5743 5.89713 33.8162 4.27518 31.739 3.168L31.261 2.91101C31.0333 2.07692 30.5383 1.34053 29.8519 0.814728C29.1655 0.288927 28.3256 0.00272065 27.461 0H22.901C22.0305 0.00142492 21.1848 0.290173 20.4951 0.821411C19.8055 1.35265 19.3105 2.09665 19.087 2.93799L18.653 3.17099C16.5758 4.27817 14.8177 5.90012 13.5471 7.8815C12.2764 9.86288 11.5357 12.1373 11.396 14.487V15.95H9.228C9.11774 15.95 9.00855 15.9717 8.9067 16.0139C8.80484 16.0562 8.7123 16.1181 8.63438 16.1961C8.55646 16.2741 8.49468 16.3667 8.45258 16.4686C8.41047 16.5705 8.38887 16.6797 8.389 16.79C8.389 17.0125 8.47739 17.2259 8.63474 17.3833C8.79208 17.5406 9.00548 17.629 9.228 17.629H10.319C6.479 27.696 11.145 36.797 12.619 39.271C11.602 39.671 10.665 40.071 9.773 40.478L9.337 40.678C6.99516 41.7222 4.80288 43.0738 2.818 44.697C1.97405 45.3897 1.28654 46.2535 0.800797 47.2314C0.315058 48.2092 0.042126 49.279 0 50.37V64.67L0.373 64.922C4.29 67.533 14.908 68.84 25.438 68.84C36.009 68.84 46.496 67.523 49.994 64.894L50.329 64.642V50.35C50.2864 49.2617 50.0138 48.1947 49.5291 47.2193C49.0445 46.2439 48.3587 45.3823 47.517 44.691C45.6593 43.1687 43.6152 41.8894 41.434 40.884V40.884ZM13.067 14.591C13.1967 12.5283 13.8503 10.5327 14.9659 8.79288C16.0816 7.05306 17.6225 5.62649 19.443 4.64801L20.618 9.457C20.6578 9.62224 20.7523 9.76919 20.886 9.87408C21.0198 9.97898 21.185 10.0357 21.355 10.035H21.562L21.605 10.025C21.7994 9.97209 21.9648 9.84429 22.0651 9.66959C22.1654 9.49488 22.1923 9.28751 22.14 9.09299L20.697 3.40399C20.8201 2.91317 21.1032 2.47736 21.5016 2.16534C21.9 1.85333 22.391 1.68291 22.897 1.681H27.45C27.9561 1.68314 28.4471 1.85374 28.8455 2.16592C29.2439 2.4781 29.5269 2.91407 29.65 3.405L28.208 9.09299C28.2039 9.10714 28.2006 9.12149 28.198 9.13599C28.1768 9.2331 28.175 9.33345 28.1927 9.43127C28.2103 9.5291 28.2471 9.62249 28.3009 9.70609C28.3546 9.78968 28.4244 9.86184 28.5061 9.91846C28.5878 9.97507 28.6798 10.015 28.777 10.036H28.785H28.985C29.155 10.0367 29.3202 9.97999 29.454 9.87509C29.5877 9.7702 29.6822 9.62325 29.722 9.45801L30.937 4.64899C32.7575 5.62747 34.2984 7.05407 35.4141 8.79388C36.5297 10.5337 37.1833 12.5293 37.313 14.592V15.952H13.067V14.591ZM27.69 60.444H41.813L41.952 61.344V65.932C37.238 66.719 32.4691 67.1327 27.69 67.169V60.444ZM35.541 40.25L38.928 41.655L41.556 58.767H27.69V53.898L33.731 39.498L35.541 40.25ZM8.394 61.35L8.536 60.45H22.656V67.166C17.8755 67.1025 13.1072 66.6679 8.394 65.866V61.35ZM15.064 40.123L16.614 39.488L22.655 53.898V58.766H8.798L11.488 41.588L14.424 40.388L15.064 40.123ZM27.464 17.763C30.5346 19.5035 33.421 21.5506 36.079 23.873C36.0327 25.305 35.7049 26.7139 35.1141 28.0192C34.5233 29.3245 33.6813 30.5006 32.6359 31.4805C31.5906 32.4603 30.3626 33.2247 29.0218 33.7299C27.6811 34.2351 26.254 34.4713 24.822 34.425C22.1139 34.3358 19.5358 33.242 17.5897 31.3565C15.6437 29.4711 14.4689 26.929 14.294 24.225C16.75 23.791 24.504 22.128 27.46 17.762L27.464 17.763ZM18.106 38.702C18.479 38.3875 18.7787 37.9952 18.9841 37.5526C19.1895 37.11 19.2956 36.6279 19.295 36.14V34.632C21.1039 35.594 23.1213 36.0971 25.17 36.0971C27.2187 36.0971 29.2361 35.594 31.045 34.632V36.132C31.0443 36.6224 31.1514 37.1071 31.3588 37.5515C31.5662 37.996 31.8687 38.3894 32.245 38.704L31.581 40.285C27.3885 41.4097 22.9735 41.4097 18.781 40.285L18.106 38.702ZM36.134 38.678L33.764 37.695C33.4552 37.5688 33.1911 37.3531 33.0058 37.0756C32.8205 36.7982 32.7223 36.4716 32.724 36.138V33.56C34.2845 32.3891 35.5511 30.8711 36.4234 29.1261C37.2957 27.381 37.7499 25.4569 37.75 23.506C37.7499 23.3918 37.7265 23.2788 37.6813 23.1739C37.6361 23.069 37.57 22.9745 37.487 22.896C35.3441 20.9177 33.0126 19.1539 30.526 17.63H38.212C42.405 27.704 37.22 36.914 36.126 38.675L36.134 38.678ZM12.134 17.631H25.434C21.889 21.469 13.415 22.668 13.32 22.677C13.1186 22.7039 12.9338 22.8029 12.7999 22.9557C12.666 23.1086 12.5922 23.3048 12.592 23.508C12.593 25.4563 13.0469 27.3778 13.9179 29.1205C14.789 30.8633 16.0533 32.3797 17.611 33.55V36.136C17.6119 36.469 17.5134 36.7946 17.3281 37.0713C17.1428 37.3479 16.8792 37.563 16.571 37.689L14.203 38.66C13.094 36.87 7.944 27.678 12.128 17.63L12.134 17.631ZM1.678 50.388C1.71069 49.536 1.92588 48.701 2.30904 47.9393C2.6922 47.1776 3.23441 46.5071 3.899 45.973C5.66044 44.5316 7.59921 43.3218 9.668 42.373L6.731 61.15L6.723 65.503C4.96687 65.1603 3.26827 64.5701 1.678 63.75V50.388ZM24.334 67.188V53.56L19.588 42.242C23.2721 43.0065 27.0739 43.0065 30.758 42.242L26.012 53.56V67.19C25.45 67.192 24.8907 67.1903 24.334 67.185V67.188ZM48.652 63.788C47.0869 64.66 45.391 65.273 43.63 65.603V61.291L40.738 42.42C42.7785 43.3614 44.6914 44.5576 46.431 45.98C47.094 46.5122 47.6353 47.1803 48.0184 47.9393C48.4015 48.6983 48.6176 49.5305 48.652 50.38V63.788Z" fill="white"/>
</svg>
