<svg width="51" height="69" viewBox="0 0 51 69" fill="none" xmlns="http://www.w3.org/2000/svg">
<path fill-rule="evenodd" clip-rule="evenodd" d="M44.4 66.75V5.271H39.87V0H10.87V5.271H6.343V66.75H0V68.507H50.743V66.75H44.4ZM12.686 1.757H38.058V5.271H12.686V1.757ZM8.155 7.028H42.588V66.75H27.188V57.103H23.559V66.75H8.155V7.028Z" fill="white"/>
<path fill-rule="evenodd" clip-rule="evenodd" d="M15.2219 36.7888H17.7589V30.4458H15.2219V36.7888Z" fill="white"/>
<path fill-rule="evenodd" clip-rule="evenodd" d="M15.2219 27.9089H17.7589V21.5659H15.2219V27.9089Z" fill="white"/>
<path fill-rule="evenodd" clip-rule="evenodd" d="M15.2219 45.6692H17.7589V39.3262H15.2219V45.6692Z" fill="white"/>
<path fill-rule="evenodd" clip-rule="evenodd" d="M15.2219 54.5491H17.7589V48.2061H15.2219V54.5491Z" fill="white"/>
<path fill-rule="evenodd" clip-rule="evenodd" d="M24.104 36.7888H26.641V30.4458H24.104V36.7888Z" fill="white"/>
<path fill-rule="evenodd" clip-rule="evenodd" d="M24.104 54.5491H26.641V48.2061H24.104V54.5491Z" fill="white"/>
<path fill-rule="evenodd" clip-rule="evenodd" d="M32.9819 63.4289H35.5189V57.0859H32.9819V63.4289Z" fill="white"/>
<path fill-rule="evenodd" clip-rule="evenodd" d="M32.9819 19.029H35.5189V12.686H32.9819V19.029Z" fill="white"/>
<path fill-rule="evenodd" clip-rule="evenodd" d="M24.104 45.6692H26.641V39.3262H24.104V45.6692Z" fill="white"/>
<path fill-rule="evenodd" clip-rule="evenodd" d="M24.104 27.9089H26.641V21.5659H24.104V27.9089Z" fill="white"/>
<path fill-rule="evenodd" clip-rule="evenodd" d="M24.104 19.029H26.641V12.686H24.104V19.029Z" fill="white"/>
<path fill-rule="evenodd" clip-rule="evenodd" d="M15.2219 19.029H17.7589V12.686H15.2219V19.029Z" fill="white"/>
<path fill-rule="evenodd" clip-rule="evenodd" d="M15.2219 63.4289H17.7589V57.0859H15.2219V63.4289Z" fill="white"/>
<path fill-rule="evenodd" clip-rule="evenodd" d="M32.9819 36.7888H35.5189V30.4458H32.9819V36.7888Z" fill="white"/>
<path fill-rule="evenodd" clip-rule="evenodd" d="M32.9819 45.6692H35.5189V39.3262H32.9819V45.6692Z" fill="white"/>
<path fill-rule="evenodd" clip-rule="evenodd" d="M32.9819 54.5491H35.5189V48.2061H32.9819V54.5491Z" fill="white"/>
<path fill-rule="evenodd" clip-rule="evenodd" d="M32.9819 27.9089H35.5189V21.5659H32.9819V27.9089Z" fill="white"/>
</svg>
