<svg width="39" height="49" viewBox="0 0 39 49" fill="none" xmlns="http://www.w3.org/2000/svg">
<path d="M22.882 0C22.882 3.74309 22.882 7.3637 22.882 10.9843C22.882 12.056 22.8774 13.1276 22.8835 14.1992C22.8897 15.3459 23.4745 15.9414 24.6165 15.9429C29.0562 15.9475 33.4943 15.946 37.9339 15.946C38.2065 15.946 38.4805 15.946 38.8387 15.946C38.8387 16.3042 38.8387 16.5767 38.8387 16.8508C38.8387 26.8507 38.8387 36.8507 38.8387 46.8506C38.8387 48.5254 38.3672 49 36.7123 49C25.3345 49 13.9568 49 2.579 49C1.00981 49 0.509205 48.507 0.509205 46.9501C0.507674 31.9732 0.507674 16.9993 0.509205 2.02387C0.509205 0.512857 1.02206 0 2.52848 0C9.03334 0 15.5382 0 22.0431 0C22.2926 0 22.5421 0 22.882 0ZM19.713 23.4261C16.0909 23.4261 12.4672 23.4245 8.84504 23.4276C7.64174 23.4276 6.92527 24.0201 6.91302 25.0121C6.89924 26.0026 7.62949 26.6379 8.80217 26.6379C16.048 26.6395 23.2938 26.6395 30.5396 26.6379C31.7138 26.6379 32.4441 26.0041 32.4334 25.0136C32.4227 24.0216 31.7062 23.4261 30.5044 23.4261C26.9068 23.4245 23.3091 23.4261 19.713 23.4261ZM19.7543 29.8452C16.0817 29.8452 12.409 29.8421 8.73634 29.8467C7.59275 29.8483 6.90537 30.456 6.91302 31.4373C6.92068 32.3926 7.64174 33.0402 8.7639 33.0417C16.0327 33.0479 23.3015 33.0479 30.5702 33.0417C31.697 33.0402 32.4196 32.4018 32.4334 31.4481C32.4471 30.4453 31.7491 29.8467 30.5442 29.8467C26.9466 29.8421 23.3505 29.8452 19.7543 29.8452ZM14.8707 39.392C16.9084 39.392 18.946 39.3966 20.9837 39.3904C22.1395 39.3874 22.8453 38.801 22.8682 37.8473C22.8912 36.869 22.1671 36.2352 20.9714 36.2337C16.8961 36.226 12.8208 36.226 8.744 36.2352C7.59275 36.2383 6.90996 36.8507 6.91455 37.8228C6.91915 38.7888 7.61265 39.3874 8.75777 39.392C10.7954 39.3966 12.8331 39.392 14.8707 39.392Z" fill="#327292"/>
<path d="M26.1306 12.7384C26.1306 8.83308 26.1306 4.99814 26.1306 1.2229C29.9625 5.05937 33.802 8.90197 37.6354 12.7384C33.8617 12.7384 30.0253 12.7384 26.1306 12.7384Z" fill="#327292"/>
</svg>
