<svg width="71" height="71" viewBox="0 0 71 71" fill="none" xmlns="http://www.w3.org/2000/svg">
<path d="M17.75 0C7.94728 0 0 7.94728 0 17.75V71H0.00416016H4.44166L8.875 66.5625L13.3125 71H17.75L22.1875 66.5625L26.625 71H31.0625L35.5 66.5625L39.9375 71H44.375L48.8125 66.5625L53.25 71V17.75C53.25 7.94728 61.1973 0 71 0H17.75ZM31.0625 48.8125H8.875V44.375H31.0625V48.8125ZM31.0625 39.9375H8.875V35.5H31.0625V39.9375ZM31.0625 31.0625H8.875V26.625H31.0625V31.0625ZM44.375 48.8125H39.9375V44.375H44.375V48.8125ZM44.375 39.9375H39.9375V35.5H44.375V39.9375ZM44.375 31.0625H39.9375V26.625H44.375V31.0625Z" fill="white"/>
</svg>
