<svg width="54" height="55" viewBox="0 0 54 55" fill="none" xmlns="http://www.w3.org/2000/svg">
<path d="M44.3061 22.1573C44.2994 34.3495 34.3444 44.2994 22.1539 44.2977C9.96504 44.296 0.0033754 34.336 8.5493e-07 22.1488C-0.00337369 9.97348 9.98359 -0.00843102 22.1606 5.34367e-06C34.3512 0.00844171 44.3129 9.97517 44.3061 22.1573ZM22.1336 6.34247C13.4104 6.3644 6.28341 13.5168 6.34415 22.191C6.40489 30.9446 13.5286 38.0261 22.2163 37.9687C30.9108 37.9113 37.9788 30.8164 37.9755 22.1505C37.9721 13.4391 30.8383 6.32222 22.1336 6.34247Z" fill="#327292"/>
<path d="M36.396 43.0729C39.04 41.2338 41.2469 39.0184 43.005 36.4993C46.3543 39.7945 49.6816 43.0223 52.9397 46.3192C53.4358 46.822 53.7361 47.615 53.9015 48.3271C54.3435 50.2235 53.2535 52.3782 51.4718 53.3686C49.636 54.3894 47.5809 54.2224 46.1046 52.773C42.8566 49.5891 39.6659 46.3462 36.396 43.0729Z" fill="#327292"/>
<path d="M33.2949 22.1825C33.2797 28.368 28.3174 33.2982 22.115 33.2864C15.9649 33.2763 10.9082 28.2111 10.9554 22.1099C11.0027 15.9885 16.1218 10.903 22.1893 10.9503C28.3461 10.9992 33.3084 16.0188 33.2949 22.1825Z" fill="#327292"/>
</svg>
