<svg width="48" height="47" viewBox="0 0 48 47" fill="none" xmlns="http://www.w3.org/2000/svg">
<path d="M24.0487 0.750444C30.2048 0.750444 36.3608 0.766498 42.5168 0.741525C44.8045 0.732605 46.5788 1.5817 47.5273 3.71693C48.4722 5.84503 47.9518 7.74123 46.4012 9.44477C41.2327 15.128 36.0997 20.8452 30.9259 26.5231C30.4019 27.0974 30.1977 27.6558 30.2083 28.4175C30.2456 31.2412 30.203 34.0668 30.235 36.8906C30.2456 37.8075 29.9241 38.4657 29.2119 39.0276C26.4696 41.1967 23.745 43.389 21.0275 45.5903C20.3349 46.1522 19.6226 46.5018 18.7577 46.0559C17.9389 45.6331 17.7737 44.8839 17.7772 44.0223C17.7915 38.76 17.7755 33.496 17.7968 28.2337C17.7986 27.5987 17.6405 27.1278 17.2036 26.6479C11.9533 20.8826 6.72622 15.0906 1.49022 9.3092C-0.0106019 7.65204 -0.435095 5.77011 0.479607 3.71693C1.37655 1.69765 3.03545 0.754011 5.22363 0.752227C11.4987 0.74866 17.7737 0.750444 24.0487 0.750444Z" fill="#327292"/>
</svg>
