<svg width="41" height="54" viewBox="0 0 41 54" fill="none" xmlns="http://www.w3.org/2000/svg">
<path fill-rule="evenodd" clip-rule="evenodd" d="M34.7453 51.3659V5.14391H31.3383V1.18091H9.53733V5.14391H6.13033V51.3659H1.36133V52.6869H39.5113V51.3659H34.7453ZM10.8993 2.50191H29.9763V5.14391H10.8993V2.50191ZM7.49333 6.46491H33.3823V51.3649H21.8003V44.1159H19.0753V51.3669H7.49333V6.46491Z" fill="white"/>
<path d="M34.7453 51.3659V5.14391H31.3383V1.18091H9.53733V5.14391H6.13033V51.3659H1.36133V52.6869H39.5143V51.3659H34.7453ZM10.8993 2.50191H29.9763V5.14391H10.8993V2.50191ZM7.49333 6.46491H33.3823V51.3649H21.8003V44.1159H19.0753V51.3669H7.49333V6.46491Z" fill="white" stroke="white" stroke-miterlimit="8"/>
<path fill-rule="evenodd" clip-rule="evenodd" d="M12.8071 28.8418H14.7151V24.0728H12.8071V28.8418Z" fill="white"/>
<path d="M12.8071 24.0728H14.7151V28.8418H12.8071V24.0728Z" fill="white" stroke="white" stroke-miterlimit="8"/>
<path fill-rule="evenodd" clip-rule="evenodd" d="M12.8071 22.165H14.7151V17.396H12.8071V22.165Z" fill="white"/>
<path d="M12.8071 17.396H14.7151V22.165H12.8071V17.396Z" fill="white" stroke="white" stroke-miterlimit="8"/>
<path fill-rule="evenodd" clip-rule="evenodd" d="M12.8071 35.519H14.7151V30.75H12.8071V35.519Z" fill="white"/>
<path d="M12.8071 30.75H14.7151V35.519H12.8071V30.75Z" fill="white" stroke="white" stroke-miterlimit="8"/>
<path fill-rule="evenodd" clip-rule="evenodd" d="M12.8071 42.1948H14.7151V37.4258H12.8071V42.1948Z" fill="white"/>
<path d="M12.8071 37.4258H14.7151V42.1948H12.8071V37.4258Z" fill="white" stroke="white" stroke-miterlimit="8"/>
<path fill-rule="evenodd" clip-rule="evenodd" d="M19.4834 28.8418H21.3914V24.0728H19.4834V28.8418Z" fill="white"/>
<path d="M19.4834 24.0728H21.3914V28.8418H19.4834V24.0728Z" fill="white" stroke="white" stroke-miterlimit="8"/>
<path fill-rule="evenodd" clip-rule="evenodd" d="M19.4834 42.1948H21.3914V37.4258H19.4834V42.1948Z" fill="white"/>
<path d="M19.4834 37.4258H21.3914V42.1948H19.4834V37.4258Z" fill="white" stroke="white" stroke-miterlimit="8"/>
<path fill-rule="evenodd" clip-rule="evenodd" d="M26.1611 48.872H28.0691V44.103H26.1611V48.872Z" fill="white"/>
<path d="M26.1611 44.103H28.0691V48.872H26.1611V44.103Z" fill="white" stroke="white" stroke-miterlimit="8"/>
<path fill-rule="evenodd" clip-rule="evenodd" d="M26.1611 15.4877H28.0691V10.7188H26.1611V15.4877Z" fill="white"/>
<path d="M26.1611 10.7188H28.0691V15.4878H26.1611V10.7188Z" fill="white" stroke="white" stroke-miterlimit="8"/>
<path fill-rule="evenodd" clip-rule="evenodd" d="M19.4834 35.519H21.3914V30.75H19.4834V35.519Z" fill="white"/>
<path d="M19.4834 30.75H21.3914V35.519H19.4834V30.75Z" fill="white" stroke="white" stroke-miterlimit="8"/>
<path fill-rule="evenodd" clip-rule="evenodd" d="M19.4834 22.165H21.3914V17.396H19.4834V22.165Z" fill="white"/>
<path d="M19.4834 17.396H21.3914V22.165H19.4834V17.396Z" fill="white" stroke="white" stroke-miterlimit="8"/>
<path fill-rule="evenodd" clip-rule="evenodd" d="M19.4834 15.4877H21.3914V10.7188H19.4834V15.4877Z" fill="white"/>
<path d="M19.4834 10.7188H21.3914V15.4878H19.4834V10.7188Z" fill="white" stroke="white" stroke-miterlimit="8"/>
<path fill-rule="evenodd" clip-rule="evenodd" d="M12.8071 15.4877H14.7151V10.7188H12.8071V15.4877Z" fill="white"/>
<path d="M12.8071 10.7188H14.7151V15.4878H12.8071V10.7188Z" fill="white" stroke="white" stroke-miterlimit="8"/>
<path fill-rule="evenodd" clip-rule="evenodd" d="M12.8071 48.872H14.7151V44.103H12.8071V48.872Z" fill="white"/>
<path d="M12.8071 44.103H14.7151V48.872H12.8071V44.103Z" fill="white" stroke="white" stroke-miterlimit="8"/>
<path fill-rule="evenodd" clip-rule="evenodd" d="M26.1611 28.8418H28.0691V24.0728H26.1611V28.8418Z" fill="white"/>
<path d="M26.1611 24.0728H28.0691V28.8418H26.1611V24.0728Z" fill="white" stroke="white" stroke-miterlimit="8"/>
<path fill-rule="evenodd" clip-rule="evenodd" d="M26.1611 35.519H28.0691V30.75H26.1611V35.519Z" fill="white"/>
<path d="M26.1611 30.75H28.0691V35.519H26.1611V30.75Z" fill="white" stroke="white" stroke-miterlimit="8"/>
<path fill-rule="evenodd" clip-rule="evenodd" d="M26.1611 42.1948H28.0691V37.4258H26.1611V42.1948Z" fill="white"/>
<path d="M26.1611 37.4258H28.0691V42.1948H26.1611V37.4258Z" fill="white" stroke="white" stroke-miterlimit="8"/>
<path fill-rule="evenodd" clip-rule="evenodd" d="M26.1611 22.165H28.0691V17.396H26.1611V22.165Z" fill="white"/>
<path d="M26.1611 17.396H28.0691V22.165H26.1611V17.396Z" fill="white" stroke="white" stroke-miterlimit="8"/>
</svg>
