<svg width="85" height="69" viewBox="0 0 85 69" fill="none" xmlns="http://www.w3.org/2000/svg">
<path fill-rule="evenodd" clip-rule="evenodd" d="M84.513 21.222L60.403 17.506L60.366 17.706V23.59L64.39 24.21V28.81H51.312V6.865L54.33 6.171V0L0 12.493V18.664L4.024 17.738V68.756H80.488V26.692L84.512 27.313L84.513 21.222ZM64.391 30.805V45.785H51.312V30.805H64.391ZM21.129 30.805H34.209V45.785H21.128L21.129 30.805ZM21.129 28.805V13.805L34.209 10.797V28.807L21.129 28.805ZM36.221 30.805H49.299V45.785H36.22L36.221 30.805ZM36.221 28.805V10.335L49.3 7.327V28.807L36.221 28.805ZM2.012 14.08L52.317 2.513V4.583L2.012 16.15V14.08ZM19.112 14.268V28.807H6.037V17.276L19.112 14.268ZM19.112 30.804V45.785H6.037V30.805L19.112 30.804ZM61.372 66.759H54.329V55.773H61.372V66.759ZM78.472 66.759H63.385V53.775H52.317V66.759H6.037V47.783H78.476L78.472 66.759ZM78.472 45.786H66.403V24.521L78.476 26.382L78.472 45.786ZM82.5 24.981L62.378 21.881V19.832L82.5 22.932V24.981Z" fill="white"/>
</svg>
