<svg width="28" height="35" viewBox="0 0 28 35" fill="none" xmlns="http://www.w3.org/2000/svg">
<path d="M27.1848 4.19115C27.1848 4.39335 27.1857 4.55895 27.1848 4.72456C27.1747 7.63682 27.1555 10.55 27.1564 13.4623C27.1592 18.8906 27.1693 24.319 27.194 29.7482C27.1958 30.1426 27.064 30.3018 26.7072 30.4134C22.729 31.655 18.7545 32.9103 14.7782 34.161C14.6373 34.2058 14.4927 34.2406 14.318 34.2891C14.3097 34.1107 14.2979 33.9762 14.2979 33.8417C14.3043 25.1634 14.3152 16.4861 14.3116 7.80791C14.3116 7.39619 14.3893 7.22418 14.8395 7.11805C18.8945 6.16376 22.9404 5.17196 26.989 4.19206C27.0302 4.18291 27.0759 4.19115 27.1848 4.19115ZM25.8563 14.1613C24.5361 14.5391 23.2689 14.8914 22.0117 15.2784C21.891 15.3159 21.7647 15.5675 21.7619 15.7222C21.74 16.8494 21.7473 17.9775 21.751 19.1047C21.751 19.2172 21.7839 19.3298 21.8086 19.4908C23.1353 19.0425 24.4162 18.6161 25.6889 18.1669C25.7813 18.1339 25.8645 17.9391 25.87 17.8155C25.9021 17.0854 25.9204 16.3544 25.9204 15.6243C25.9185 15.1567 25.8801 14.6892 25.8563 14.1613ZM21.7482 26.7005C23.0703 26.2504 24.3009 25.8176 25.5434 25.4187C25.827 25.3272 25.8819 25.1817 25.8801 24.9256C25.8719 23.9338 25.8764 22.9429 25.8764 21.9511C25.8764 21.7763 25.8764 21.6016 25.8764 21.3628C24.5077 21.7544 23.2213 22.1185 21.9404 22.4982C21.858 22.5229 21.7574 22.6702 21.7565 22.7608C21.7446 24.0399 21.7482 25.3199 21.7482 26.7005ZM16.0527 21.5147C17.4242 21.0517 18.7051 20.6262 19.9769 20.1752C20.083 20.1377 20.1828 19.9263 20.1882 19.7918C20.2111 19.2136 20.1983 18.6335 20.1983 18.0534C20.1983 17.4477 20.1983 16.843 20.1983 16.1677C18.8268 16.5648 17.5285 16.9363 16.2348 17.3242C16.1552 17.348 16.0609 17.4971 16.06 17.5886C16.049 18.8677 16.0527 20.1468 16.0527 21.5147ZM21.7482 12.583C21.8534 12.5885 21.9019 12.604 21.9404 12.5912C23.1783 12.1786 24.418 11.7687 25.6486 11.335C25.7548 11.2975 25.8618 11.0935 25.8664 10.9635C25.8874 10.249 25.8774 9.53258 25.8774 8.81709C25.8774 8.33675 25.8774 7.8564 25.8774 7.33306C24.5333 7.71733 23.2625 8.07142 22.0017 8.45478C21.8882 8.48954 21.7647 8.71187 21.7601 8.85003C21.7363 9.59571 21.7501 10.3414 21.7501 11.088C21.7482 11.5848 21.7482 12.0816 21.7482 12.583ZM20.1974 23.0856C18.8424 23.4726 17.5697 23.8258 16.3071 24.2128C16.1872 24.2494 16.0628 24.4983 16.0591 24.6511C16.0372 25.641 16.0481 26.6319 16.0481 27.6228C16.0481 27.8717 16.0481 28.1205 16.0481 28.427C17.4215 27.9641 18.7024 27.5368 19.9778 27.0958C20.0684 27.0647 20.1873 26.9348 20.1882 26.8506C20.2011 25.6191 20.1974 24.3876 20.1974 23.0856ZM16.0491 14.3077C16.1433 14.3214 16.1771 14.3369 16.2018 14.3287C17.47 13.9078 18.739 13.4897 20.0007 13.0505C20.0958 13.0176 20.1873 12.8282 20.1919 12.7074C20.213 12.1905 20.2011 11.6717 20.2011 11.1539C20.2011 10.4722 20.2011 9.79151 20.2011 9.05498C18.8323 9.44566 17.5349 9.81072 16.2439 10.1959C16.1561 10.2224 16.0582 10.3954 16.0573 10.5006C16.0445 11.7632 16.0491 13.0267 16.0491 14.3077Z" fill="#327292"/>
<path d="M0.0109962 4.14478C3.28832 4.93346 6.48055 5.70018 9.67187 6.47056C10.5877 6.69197 11.4963 6.94999 12.4204 7.13298C12.779 7.20434 12.8476 7.34433 12.8467 7.66913C12.8385 10.5832 12.8431 13.4964 12.8476 16.4105C12.8568 22.085 12.8678 27.7585 12.8778 33.433C12.8787 33.6901 12.8778 33.9463 12.8778 34.2711C12.6802 34.2235 12.5384 34.1979 12.403 34.1549C8.44127 32.9078 4.4814 31.6562 0.516959 30.4182C0.144578 30.302 -0.00181296 30.1401 1.69251e-05 29.7247C0.0183158 25.8197 0.0109962 21.9148 0.0109962 18.0098C0.0109962 13.5714 0.0109962 9.13304 0.0119112 4.69466C0.0109962 4.52997 0.0109962 4.36528 0.0109962 4.14478ZM5.40824 12.4826C5.45033 12.4296 5.48418 12.4067 5.48418 12.3829C5.4796 11.166 5.47686 9.94917 5.45673 8.73229C5.4549 8.6472 5.33687 8.5182 5.24629 8.48617C3.97178 8.04426 2.69269 7.61698 1.40994 7.1833C1.37517 7.26839 1.34407 7.30864 1.34407 7.3489C1.33949 8.58407 1.33034 9.82016 1.34956 11.0553C1.35139 11.1688 1.50967 11.3335 1.63136 11.3801C1.99916 11.5201 2.38436 11.6162 2.76406 11.726C3.6488 11.9813 4.53538 12.2338 5.40824 12.4826ZM5.47137 19.6768C5.47137 18.7097 5.47137 17.8442 5.47137 16.9796C5.47137 15.7618 5.4732 15.7572 4.31488 15.3519C3.3487 15.0143 2.37795 14.6895 1.33766 14.3345C1.33766 15.717 1.33034 17.0043 1.3523 18.2898C1.35413 18.395 1.54169 18.5441 1.67162 18.5908C2.05681 18.7289 2.45664 18.8268 2.85098 18.9385C3.69455 19.1764 4.53904 19.4142 5.47137 19.6768ZM5.46588 26.4602C5.46588 25.4355 5.46588 24.4949 5.46588 23.5544C5.46588 22.536 5.46954 22.5269 4.51251 22.1947C3.48503 21.8379 2.45023 21.5003 1.34224 21.1279C1.34224 22.504 1.33949 23.8069 1.35047 25.1088C1.35139 25.1829 1.45569 25.3001 1.53346 25.3238C2.81255 25.7017 4.09621 26.0668 5.46588 26.4602ZM7.0039 16.0683C7.0039 17.4352 6.99658 18.7125 7.01762 19.9897C7.01945 20.095 7.19786 20.2514 7.32321 20.2908C8.17868 20.5607 9.04056 20.8077 9.90243 21.0566C10.2895 21.1682 10.6801 21.2652 11.1257 21.385C11.1257 20.0986 11.1294 18.8817 11.1175 17.664C11.1166 17.5725 11.0223 17.427 10.9391 17.3977C9.66363 16.9567 8.3818 16.5303 7.0039 16.0683ZM7.08441 8.90705C7.05513 8.98573 7.0103 9.05161 7.00939 9.11657C7.0039 10.3353 6.99475 11.554 7.01671 12.7718C7.01854 12.8889 7.20427 13.0645 7.33694 13.1057C8.20613 13.3784 9.08447 13.6208 9.96007 13.8734C10.3315 13.9804 10.7021 14.0865 11.1266 14.2082C11.1266 12.9191 11.133 11.7022 11.1156 10.4862C11.1138 10.3819 10.9729 10.2227 10.8631 10.1843C9.61514 9.75154 8.36259 9.33616 7.08441 8.90705ZM7.00024 22.913C7.00024 23.9807 7.00024 24.9533 7.00024 25.925C7.00024 27.0467 6.99749 27.0558 8.06523 27.3715C9.06435 27.6661 10.0699 27.9388 11.1266 28.2361C11.1266 26.9488 11.1349 25.7182 11.112 24.4876C11.1102 24.3842 10.9226 24.2387 10.7927 24.1912C10.1083 23.9405 9.41477 23.7136 8.72399 23.4812C8.18051 23.3 7.63612 23.1225 7.00024 22.913Z" fill="#327292"/>
<path d="M0.431935 2.58921C2.69733 2.13357 4.96181 1.67976 7.22721 1.2232C9.16323 0.833439 11.0965 0.430865 13.0353 0.0566536C13.3692 -0.00830727 13.737 -0.0229463 14.0691 0.0420145C16.7389 0.565361 19.4042 1.11433 22.0703 1.65323C23.5004 1.94235 24.9313 2.22598 26.3614 2.51327C26.4895 2.53889 26.6139 2.57823 26.8179 2.6313C24.8691 3.17478 22.9962 3.70087 21.1224 4.21964C18.7939 4.86376 16.4663 5.51245 14.1314 6.13278C13.812 6.21787 13.4323 6.2316 13.1167 6.14651C8.87776 4.99825 4.64707 3.82438 0.414551 2.65692C0.42004 2.63496 0.42553 2.61209 0.431935 2.58921Z" fill="#327292"/>
</svg>
