<svg width="54" height="48" viewBox="0 0 54 48" fill="none" xmlns="http://www.w3.org/2000/svg">
<path d="M19.6268 28.5301C19.6268 24.9954 19.6268 21.542 19.6268 18.087C19.6268 16.5114 19.6069 14.9341 19.6484 13.3585C19.6551 13.1211 19.9191 12.716 20.1133 12.6861C23.4638 12.1432 26.2348 10.3949 28.9576 8.53042C31.6008 6.72072 34.2041 4.84793 36.917 3.1478C39.4738 1.54564 42.3046 0.632483 45.3412 0.414987C47.1509 0.283825 47.7735 0.821755 47.7735 2.63644C47.7752 14.6386 47.7752 26.6407 47.7735 38.6429C47.7735 40.4576 47.3219 40.9091 45.5106 40.851C42.0074 40.7381 38.8744 39.4581 35.9822 37.6085C33.4702 36.003 31.0711 34.2199 28.6156 32.5247C25.8944 30.6437 23.0653 29.0016 19.6268 28.5301Z" fill="#327292"/>
<path d="M16.4788 12.9783C16.4788 18.0853 16.4788 23.1957 16.4788 28.3475C16.2663 28.3691 16.0803 28.404 15.896 28.404C13.4338 28.4073 10.9716 28.4239 8.5111 28.4006C4.49987 28.3641 1.18098 25.2229 0.882126 21.21C0.583276 17.1871 3.46386 13.4017 7.47011 13.0049C10.4005 12.7143 13.3774 12.8953 16.3327 12.8687C16.3542 12.8704 16.3775 12.9003 16.4788 12.9783Z" fill="#327292"/>
<path d="M10.329 31.6514C13.4636 31.6514 16.5169 31.6514 19.6299 31.6514C19.6299 32.8468 19.6299 33.9492 19.6299 35.0533C19.6299 38.4286 19.6316 41.804 19.6282 45.1793C19.6266 46.5673 19.0637 47.1268 17.6592 47.1318C15.8611 47.1384 14.063 47.1401 12.2649 47.1318C10.9051 47.1252 10.3307 46.559 10.3307 45.2291C10.3274 40.9141 10.329 36.5973 10.329 32.2823C10.329 32.0681 10.329 31.8539 10.329 31.6514Z" fill="#327292"/>
<path d="M50.8882 24.9124C50.8882 22.0235 50.8882 19.1944 50.8882 16.3586C52.4356 16.6475 54.0244 18.5568 53.9995 20.672C53.9763 22.6312 52.6481 24.489 50.8882 24.9124Z" fill="#327292"/>
</svg>
