<svg width="59" height="59" viewBox="0 0 59 59" fill="none" xmlns="http://www.w3.org/2000/svg">
<path d="M25.1379 43.5641L38.8029 29.8821L25.1379 16.2001M29.5079 2.51807C34.887 2.52044 40.1447 4.11771 44.6161 7.10793C49.0876 10.0981 52.572 14.347 54.6289 19.3174C56.6857 24.2877 57.2227 29.7564 56.1718 35.0319C55.1209 40.3074 52.5294 45.1528 48.725 48.9556C44.9205 52.7584 40.0739 55.3478 34.7979 56.3963C29.522 57.4449 24.0536 56.9055 19.0841 54.8464C14.1147 52.7874 9.86734 49.3011 6.87909 44.8283C3.89085 40.3556 2.2959 35.0972 2.2959 29.7181C2.2959 26.1451 2.99984 22.6071 4.36752 19.3063C5.7352 16.0055 7.73981 13.0064 10.2668 10.4805C12.7939 7.95461 15.7938 5.95132 19.0952 4.5851C22.3967 3.21888 25.9349 2.51649 29.5079 2.51807V2.51807Z" stroke="#043451" stroke-width="4" stroke-miterlimit="8" stroke-linecap="square"/>
</svg>
