<svg width="33" height="21" viewBox="0 0 33 21" fill="none" xmlns="http://www.w3.org/2000/svg">
<path d="M8.63975 10.5036C6.21647 13.0736 3.83446 15.5989 1.45338 18.1232C1.07733 18.5223 0.705019 18.9241 0.324272 19.3187C0.00729544 19.6471 -0.0892984 20.0247 0.0879459 20.431C0.271755 20.8498 0.648751 20.9983 1.11109 20.9974C3.03264 20.9938 4.95419 21.0144 6.87481 20.9777C7.19272 20.9715 7.5941 20.8041 7.80698 20.5813C10.7723 17.4744 13.7133 14.347 16.6561 11.2204C17.1231 10.7238 17.1137 10.2656 16.6326 9.75466C13.7001 6.63973 10.7639 3.52837 7.83137 0.413433C7.56316 0.127979 7.24618 -0.00177193 6.84105 1.71661e-05C4.95044 0.00806999 3.06077 0.00717735 1.17017 0.00091362C0.69564 -0.000875473 0.293324 0.119032 0.0945098 0.559294C-0.107117 1.00492 0.041993 1.38791 0.37585 1.74138C2.99231 4.50554 5.60315 7.27685 8.21493 10.0455C8.3481 10.1887 8.48032 10.3327 8.63975 10.5036Z" fill="#5CAEA0"/>
<path d="M24.6398 10.5036C22.2165 13.0736 19.8345 15.5989 17.4534 18.1232C17.0773 18.5223 16.705 18.9241 16.3243 19.3187C16.0073 19.6471 15.9107 20.0247 16.0879 20.431C16.2718 20.8498 16.6488 20.9983 17.1111 20.9974C19.0326 20.9938 20.9542 21.0144 22.8748 20.9777C23.1927 20.9715 23.5941 20.8041 23.807 20.5813C26.7723 17.4744 29.7133 14.347 32.6561 11.2204C33.1231 10.7238 33.1137 10.2656 32.6326 9.75466C29.7001 6.63973 26.7639 3.52837 23.8314 0.413433C23.5632 0.127979 23.2462 -0.00177193 22.841 1.71661e-05C20.9504 0.00806999 19.0608 0.00717735 17.1702 0.00091362C16.6956 -0.000875473 16.2933 0.119032 16.0945 0.559294C15.8929 1.00492 16.042 1.38791 16.3759 1.74138C18.9923 4.50554 21.6032 7.27685 24.2149 10.0455C24.3481 10.1887 24.4803 10.3327 24.6398 10.5036Z" fill="#5CAEA0"/>
</svg>
