<svg width="59" height="48" viewBox="0 0 59 48" fill="none" xmlns="http://www.w3.org/2000/svg">
<path fill-rule="evenodd" clip-rule="evenodd" d="M57.945 15.4799L41.7 12.9799L41.675 13.1169V17.0789L44.387 17.4969V20.5969H35.574V5.80591L37.607 5.33791V1.18091L1 9.59891V13.7569L3.712 13.1309V47.5089H55.233V19.1659L57.945 19.5839V15.4799ZM44.386 21.9369V32.0309H35.574V21.9369H44.386ZM15.236 21.9369H24.05V32.0309H15.236V21.9369ZM15.236 20.5909V10.4829L24.05 8.45691V20.5909H15.236ZM25.405 21.9369H34.218V32.0309H25.405V21.9369ZM25.405 20.5909V8.14491L34.218 6.11891V20.5909H25.405ZM2.356 10.6679L36.25 2.87391V4.26891L2.35 12.0629L2.356 10.6679ZM13.88 10.7939V20.5939H5.067V12.8239L13.88 10.7939ZM13.88 21.9359V32.0309H5.067V21.9369L13.88 21.9359ZM42.35 46.1629H37.607V38.7629H42.35V46.1629ZM53.875 46.1629H43.709V37.4149H36.25V46.1629H5.067V33.3769H53.877L53.875 46.1629ZM53.875 32.0309H45.742V17.7029L53.877 18.9569L53.875 32.0309ZM56.589 18.0129L43.031 15.9229V14.5429L56.589 16.6309V18.0129Z" fill="white"/>
<path d="M57.945 15.4809L41.7 12.9809L41.675 13.1179V17.0809L44.387 17.4989V20.5989H35.574V5.80591L37.607 5.33791V1.18091L1 9.59891V13.7569L3.712 13.1329V47.5089H55.233V19.1659L57.945 19.5839V15.4809ZM44.386 21.9369V32.0309H35.574V21.9369H44.386ZM15.236 21.9369H24.049V32.0309H15.236V21.9369ZM15.236 20.5909V10.4809L24.049 8.45491V20.5909H15.236ZM25.405 21.9369H34.218V32.0309H25.405V21.9369ZM25.405 20.5909V8.14491L34.218 6.11891V20.5909H25.405ZM2.356 10.6679L36.256 2.87391V4.26891L2.356 12.0629V10.6679ZM13.88 10.7939V20.5939H5.067V12.8209L13.88 10.7939ZM13.88 21.9359V32.0309H5.067V21.9369L13.88 21.9359ZM42.353 46.1629H37.607V38.7629H42.352L42.353 46.1629ZM53.877 46.1629H43.709V37.4149H36.251V46.1629H5.067V33.3809H53.877V46.1629ZM53.877 32.0309H45.742V17.7029L53.877 18.9569V32.0309ZM56.589 18.0129L43.031 15.9229V14.5429L56.589 16.6329V18.0129Z" fill="white" stroke="white" stroke-width="0.418" stroke-miterlimit="8"/>
</svg>
