<svg width="47" height="51" viewBox="0 0 47 51" fill="none" xmlns="http://www.w3.org/2000/svg">
<path d="M39.1076 6.82837C41.7771 6.82837 44.2834 6.82837 46.9695 6.82837C46.9695 7.33184 46.9695 7.77722 46.9695 8.22536C46.9695 21.8108 46.9501 35.3934 46.9999 48.9788C47.0054 50.3399 46.5849 50.741 45.2737 50.6608C43.6222 50.5584 41.9596 50.5999 40.3026 50.6469C39.398 50.6718 39.0273 50.3177 39.1076 49.4325C39.1297 49.2029 39.1103 48.9733 39.1103 48.7409C39.1103 35.3409 39.1103 21.9408 39.1103 8.54072C39.1076 8.00129 39.1076 7.45909 39.1076 6.82837Z" fill="#327292"/>
<path d="M27.1708 6.05382C25.7268 6.05382 24.576 6.00403 23.4308 6.07042C22.4376 6.12851 22.0614 5.82975 22.0559 4.76195C22.0338 0.974854 21.9923 0.974854 25.7628 0.974854C29.2124 0.974854 32.6647 0.974854 36.2471 0.974854C36.2997 1.44789 36.3827 1.84071 36.3827 2.23076C36.391 6.24193 36.3578 10.2503 36.4076 14.2615C36.4214 15.3459 36.0729 15.6751 34.9857 15.6696C31.2871 15.653 31.2871 15.6945 31.2816 11.9655C31.2816 11.462 31.2816 10.9585 31.2816 10.0816C30.7173 10.5408 30.3742 10.7787 30.0838 11.0692C28.0865 13.0471 26.1473 15.0886 24.0836 16.9946C23.511 17.523 22.5926 17.9213 21.818 17.949C18.7806 18.0569 15.7348 18.0292 12.6947 17.9739C11.6767 17.9545 10.9768 18.2533 10.346 19.0694C8.59773 21.3267 6.72217 23.4872 5.00151 25.7639C4.2878 26.7072 3.76773 26.721 2.9323 25.9852C2.04708 25.2051 1.05674 24.5467 0 23.75C2.31541 20.8896 4.64742 18.2727 6.66131 15.4317C8.08873 13.4178 9.67937 12.563 12.1663 12.8037C14.6781 13.0443 17.2314 12.8839 19.7654 12.8313C20.2633 12.8202 20.8774 12.6321 21.226 12.3029C23.0628 10.5574 24.8333 8.74269 26.6148 6.94181C26.7918 6.762 26.8914 6.51027 27.1708 6.05382Z" fill="#327292"/>
<path d="M35.4311 34.8903C35.4311 39.6373 35.4006 44.3843 35.4532 49.1285C35.4643 50.2655 35.1157 50.6998 33.9594 50.65C32.2581 50.5781 30.5485 50.603 28.8445 50.6417C27.9399 50.6611 27.4973 50.3983 27.5 49.3969C27.5221 39.7673 27.5221 30.1349 27.5 20.5054C27.4973 19.598 27.8264 19.2827 28.7144 19.3048C30.5098 19.3463 32.3107 19.3601 34.106 19.2993C35.1268 19.2661 35.4643 19.6146 35.4532 20.6492C35.4062 25.399 35.4311 30.1432 35.4311 34.8903Z" fill="#327292"/>
<path d="M23.5054 37.9383C23.5054 41.6646 23.4749 45.3936 23.5247 49.1198C23.5386 50.2291 23.2232 50.7077 22.0447 50.6524C20.2992 50.5749 18.5481 50.6081 16.7998 50.6385C15.9146 50.6551 15.5826 50.301 15.5854 49.4103C15.6047 41.8167 15.6075 34.2259 15.5799 26.6324C15.5771 25.725 15.898 25.4069 16.7804 25.4263C18.573 25.465 20.3711 25.4788 22.1637 25.4207C23.1706 25.3875 23.5386 25.7139 23.5247 26.7569C23.4749 30.4831 23.5054 34.2121 23.5054 37.9383Z" fill="#327292"/>
<path d="M11.2644 42.6386C11.2644 44.9845 11.2312 47.3331 11.281 49.6789C11.3003 50.6361 10.9739 50.9874 10.0085 50.9597C8.16886 50.9044 6.32649 50.9238 4.48688 50.9514C3.68465 50.9625 3.33609 50.6969 3.34163 49.8366C3.37206 45.0509 3.36929 40.2624 3.34163 35.4766C3.33609 34.5942 3.64039 34.2235 4.53668 34.2401C6.37628 34.2733 8.21865 34.2788 10.0583 34.2373C10.9545 34.218 11.2837 34.5748 11.2727 35.4573C11.2422 37.8501 11.2644 40.243 11.2644 42.6386Z" fill="#327292"/>
</svg>
