<svg width="50" height="47" viewBox="0 0 50 47" fill="none" xmlns="http://www.w3.org/2000/svg">
<path d="M35.5594 18.3405C33.6793 18.3405 31.9343 18.3405 30.1892 18.3405C23.1397 18.3405 16.092 18.3548 9.04252 18.3352C5.42448 18.3245 2.97928 15.2769 3.72563 11.7744C4.23742 9.37006 6.40007 7.68366 9.04963 7.6801C16.4243 7.66766 23.799 7.67655 31.1737 7.67655C32.5918 7.67655 34.0116 7.67655 35.5043 7.67655C35.5239 7.38511 35.5559 7.131 35.5577 6.87688C35.563 5.42504 35.563 3.97498 35.5594 2.52315C35.5577 1.71282 35.858 1.07486 36.6239 0.735449C37.4307 0.378265 38.1219 0.616387 38.7243 1.21169C38.8079 1.29521 38.8932 1.37874 38.9767 1.46226C42.2855 4.76932 45.5944 8.07638 48.9014 11.387C50.0938 12.5812 50.0938 13.4395 48.8979 14.6372C45.5926 17.9478 42.2766 21.2478 38.9785 24.5655C38.3067 25.2408 37.5977 25.717 36.6203 25.2816C35.6892 24.8676 35.5399 24.0519 35.5559 23.135C35.5772 21.5694 35.5594 20.0056 35.5594 18.3405Z" fill="#327292"/>
<path d="M14.2367 39.6686C14.2367 41.4243 14.2261 43.0503 14.2403 44.6763C14.2474 45.5488 13.9933 46.256 13.1403 46.6203C12.282 46.9864 11.5961 46.663 10.983 46.0481C7.57284 42.6327 4.15561 39.2243 0.74903 35.8053C-0.24611 34.8066 -0.249664 33.8665 0.738368 32.875C4.14317 29.4559 7.56218 26.0476 10.9723 22.6321C11.5836 22.0208 12.2589 21.6796 13.1243 22.0439C13.9808 22.4029 14.2456 23.103 14.2385 23.9756C14.2261 25.6033 14.2349 27.2311 14.2349 29.001C14.6046 29.001 14.944 29.001 15.2834 29.001C23.7545 29.001 32.2239 28.9939 40.695 29.0046C43.7284 29.0081 46.0421 31.1281 46.2127 34.014C46.3975 37.1167 44.0003 39.6437 40.8016 39.6615C36.3288 39.6846 31.8578 39.6686 27.385 39.6686C23.3565 39.6686 19.3297 39.6686 15.3012 39.6686C14.9831 39.6686 14.6632 39.6686 14.2367 39.6686Z" fill="#327292"/>
</svg>
