<svg width="197" height="141" viewBox="0 0 197 141" fill="none" xmlns="http://www.w3.org/2000/svg">
<path d="M13.71 140.601C23.26 121.421 32.17 103.511 41.51 84.7706C27.25 84.7706 13.88 84.7706 0.01 84.7706C0 56.3606 0 28.5506 0 0.0905773C1.76 0.0905773 3.38 0.0905773 5 0.0905773C29.48 0.0905773 53.95 0.190577 78.43 0.000577267C82.77 -0.0294227 84.12 1.10058 84.08 5.57058C83.87 30.5406 84.02 55.5206 83.91 80.5006C83.9 82.8906 83.34 85.4906 82.29 87.6306C74.32 103.891 66.08 120.011 58.15 136.291C56.51 139.651 54.47 140.751 50.82 140.691C38.88 140.471 26.93 140.601 13.71 140.601Z" fill="#F2F2F2"/>
<path d="M154.3 84.4807C141.28 84.4807 129.48 84.2906 117.68 84.5807C113.3 84.6907 112.01 83.4507 112.05 79.0107C112.26 54.3707 112.17 29.7206 112.12 5.08065C112.11 2.15065 112.14 0.000646198 116.18 0.0206462C141.99 0.160646 167.8 0.100646 193.6 0.120646C194.4 0.120646 195.19 0.390646 196.38 0.600646C196.47 2.48065 196.62 4.27065 196.62 6.07065C196.64 30.7106 196.69 55.3606 196.55 80.0006C196.54 82.7106 195.91 85.6507 194.72 88.0706C186.78 104.351 178.65 120.541 170.43 136.681C169.64 138.231 167.86 140.341 166.5 140.371C153.56 140.651 140.61 140.541 126.41 140.541C135.85 121.611 144.81 103.581 154.3 84.4807Z" fill="#F2F2F2"/>
</svg>
