<svg width="60" height="61" viewBox="0 0 60 61" fill="none" xmlns="http://www.w3.org/2000/svg">
<path d="M13.819 29.1872C10.9784 28.7766 8.33656 28.396 5.6947 28.0135C5.26345 27.9516 4.80596 27.9516 4.41221 27.7941C3.98471 27.6216 3.36222 27.3572 3.28534 27.0253C3.18034 26.5753 3.36034 25.8779 3.68284 25.5404C5.79408 23.3391 8.25781 21.586 10.9447 20.1479C15.1896 17.8773 19.7271 16.6717 24.5271 16.3904C24.9358 16.366 25.4327 16.1448 25.7139 15.8485C32.5333 8.68797 40.7495 3.96675 50.4038 1.87614C53.0044 1.31365 55.7137 1.2274 58.3818 1.00615C59.5631 0.908649 60.0018 1.42802 60 2.64301C59.9868 11.0636 57.3093 18.6779 52.9406 25.7654C50.7825 29.266 48.1725 32.4028 45.1913 35.2397C44.8744 35.5397 44.6307 36.0628 44.6026 36.4978C44.1038 44.3596 41.2763 51.2108 35.8501 56.9576C35.3683 57.4676 34.892 57.987 34.0914 57.762C33.317 57.5445 33.2083 56.8958 33.1126 56.2208C32.7114 53.382 32.2933 50.5452 31.8789 47.7083C31.862 47.5958 31.8376 47.4852 31.787 47.2208C31.4195 47.5415 31.1458 47.7758 30.8758 48.0158C29.8445 48.9289 29.3852 48.9271 28.4102 47.9521C24.1877 43.7334 19.9709 39.5109 15.7503 35.2903C14.8446 34.3847 13.9334 33.4828 13.0334 32.5716C12.0753 31.6022 12.0697 31.1334 12.9884 30.1059C13.2134 29.8566 13.4421 29.6053 13.819 29.1872ZM42.7707 24.4135C46.1663 24.4585 49.0275 21.6535 49.095 18.2185C49.1607 14.8661 46.2994 11.9504 42.8832 11.8904C39.5157 11.8323 36.617 14.6879 36.5757 18.1023C36.5364 21.5091 39.3432 24.3685 42.7707 24.4135Z" fill="#5CAEA0"/>
<path d="M12.2159 40.979C15.8497 41.0259 18.8365 43.3752 19.7646 46.844C20.6496 50.1533 19.1721 53.6408 16.0878 55.3733C12.2384 57.5351 8.04783 58.8626 3.88536 60.2501C3.14849 60.4957 2.40974 60.747 1.65787 60.9364C0.579756 61.2082 -0.258363 60.4001 0.0735094 59.3408C1.62037 54.3795 3.14474 49.4014 5.67785 44.8227C7.11034 42.2334 9.44282 41.1234 12.2159 40.979Z" fill="#5CAEA0"/>
</svg>
