<svg width="51" height="60" viewBox="0 0 51 60" fill="none" xmlns="http://www.w3.org/2000/svg">
<path d="M0.0172994 20.845C0.0172994 17.273 0.0364115 13.7009 0.000310786 10.1289C-0.00605993 9.45135 0.187185 9.1426 0.834874 8.90675C8.85772 5.98865 16.8678 3.03195 24.8886 0.107415C25.2474 -0.0233743 25.7316 -0.040527 26.0863 0.0881183C34.1091 3.00837 42.1192 5.96506 50.1442 8.88317C50.8428 9.13831 51.0021 9.50495 51 10.2061C50.9724 16.7069 50.9639 23.2078 50.9894 29.7087C51.0255 39.2863 47.1882 46.9472 39.8045 52.8584C35.9163 55.9716 31.5629 58.2079 26.8507 59.7366C26.237 59.936 25.481 60.1033 24.9013 59.9232C16.647 57.3589 9.56063 53.0449 4.58935 45.71C1.55264 41.2332 0.131972 36.2096 0.0321643 30.8108C-0.0315428 27.4896 0.0194229 24.1662 0.0172994 20.845ZM21.202 41.3833C27.3052 35.2254 33.4253 29.0526 39.3989 23.0256C38.5219 22.0843 37.5896 21.0809 36.4726 19.8823C31.3803 25.0539 26.2774 30.2361 21.0683 35.5256C18.8321 33.2186 16.5854 30.903 14.3917 28.6409C13.3724 29.668 12.4083 30.6414 11.4782 31.5783C14.706 34.8331 17.9785 38.135 21.202 41.3833Z" fill="#5CAEA0"/>
</svg>
