<svg width="60" height="60" viewBox="0 0 60 60" fill="none" xmlns="http://www.w3.org/2000/svg">
<path d="M29.3047 59.0941C26.8119 56.5619 24.2835 54.1948 22.0008 51.6119C20.0013 49.3498 18.2681 46.8514 16.4487 44.4336C16.2686 44.1954 16.1467 43.6777 16.2799 43.4789C17.9905 40.9204 17.1858 37.7055 14.2354 36.1017C14.8693 33.5996 15.4902 31.0655 16.1767 28.5502C16.2742 28.1938 16.6419 27.8036 16.9833 27.6386C22.1227 25.1645 27.4103 23.0562 32.8367 21.2968C33.3375 21.1355 33.6845 21.1955 34.0503 21.6138C36.0441 23.8928 38.0737 26.1418 40.0638 28.4245C40.2495 28.6364 40.3733 29.0529 40.302 29.3155C37.6104 39.3823 34.1103 49.1548 29.633 58.5708C29.5861 58.6777 29.5111 58.7715 29.3047 59.0941Z" fill="#5CAEA0"/>
<path d="M55.6302 45.4709C53.3569 41.832 51.1904 38.2269 48.8777 34.7175C47.5066 32.6354 45.886 30.7185 44.4304 28.6889C44.1847 28.3457 44.0496 27.7755 44.1322 27.3647C44.5017 25.5359 44.9425 23.7183 45.4264 21.9177C45.5164 21.5838 45.886 21.1674 46.2048 21.0811C47.8329 20.6422 48.994 19.6856 49.6055 18.14C49.8306 17.5679 50.1794 17.3691 50.699 17.3241C52.6272 17.1552 54.5555 16.9733 56.4874 16.8739C56.7594 16.8608 57.1871 17.2134 57.3165 17.5004C58.7195 20.5859 59.573 23.814 59.8749 27.2034C60.3926 32.9862 59.2972 38.4351 56.6825 43.5952C56.388 44.1785 56.0448 44.7375 55.724 45.3077C55.6809 45.3883 55.6321 45.4652 55.6302 45.4709Z" fill="#5CAEA0"/>
<path d="M42.8962 31.9375C46.1749 36.1372 49.0372 40.3256 51.4419 44.8161C52.0308 45.9134 52.5973 47.0257 53.1037 48.1605C53.22 48.4212 53.1694 48.9145 52.9912 49.1246C48.6377 54.2546 43.2132 57.6515 36.6238 59.1296C35.6241 59.3546 34.6074 59.516 33.5964 59.6848C33.3263 59.7298 33.0412 59.6923 32.6323 59.6923C36.8339 50.7433 40.1895 41.5674 42.8962 31.9375Z" fill="#5CAEA0"/>
<path d="M32.9195 0C37.2768 0.500813 41.1764 1.71064 44.7815 3.80393C44.9972 3.9296 45.181 4.36288 45.1491 4.62548C44.8809 6.79004 44.5695 8.94898 44.2338 11.1042C44.2019 11.3124 43.9524 11.5787 43.7461 11.6519C41.876 12.3084 40.7562 13.5895 40.3098 15.5158C40.2516 15.7653 39.914 16.056 39.6495 16.131C38.0927 16.57 36.5227 16.9657 34.9472 17.3334C34.7089 17.3896 34.3357 17.2977 34.1594 17.1308C31.9179 15.0019 29.6933 12.8561 27.4931 10.684C27.3037 10.4964 27.2061 10.0706 27.2662 9.80055C27.5137 8.677 27.5325 7.59285 27.1236 6.49556C27.0373 6.26485 27.103 5.85219 27.2643 5.67213C28.8905 3.86395 30.5411 2.07828 32.2161 0.313242C32.4187 0.0975365 32.7976 0.050644 32.9195 0Z" fill="#5CAEA0"/>
<path d="M8.36646 28.4995C6.82838 24.2661 5.82488 20.042 5.02208 15.7504C4.70509 14.0529 5.18902 12.8505 6.20378 11.5919C8.61781 8.59643 11.3957 6.0436 14.7701 4.04785C15.7455 4.83002 16.7321 5.5878 17.6737 6.39998C17.8519 6.55379 17.9569 6.94956 17.9044 7.19153C17.5405 8.83465 17.925 10.2602 18.9511 11.5769C19.1367 11.8133 19.1949 12.3422 19.058 12.6067C16.9853 16.6319 15.3178 20.8223 13.896 25.1139C13.8135 25.3652 13.6822 25.6878 13.4778 25.7985C11.8178 26.7082 10.1352 27.5729 8.36646 28.4995Z" fill="#5CAEA0"/>
<path d="M6.71197 33.1382C7.35908 34.5337 7.95556 35.7642 8.48826 37.0209C8.58017 37.2385 8.47137 37.6155 8.3307 37.8424C6.91642 40.1402 7.22403 42.5111 9.15226 44.3643C9.39422 44.5969 9.45049 45.0414 9.54803 45.4015C9.59492 45.5722 9.54803 45.7748 9.5274 45.9605C9.3417 47.658 9.15413 49.3555 8.7471 51.1975C7.57291 49.7307 6.31807 48.3182 5.23954 46.7839C3.28881 44.0116 1.8764 40.9655 1.06235 37.668C0.98732 37.366 1.10361 36.8258 1.3212 36.6758C3.06372 35.4772 4.85127 34.3461 6.71197 33.1382Z" fill="#5CAEA0"/>
<path d="M17.6211 23.4446C19.1217 20.1697 20.6128 16.8909 22.1397 13.6272C22.2391 13.4134 22.5955 13.284 22.8581 13.1958C23.0869 13.1189 23.4058 13.2408 23.5933 13.1264C24.8107 12.378 25.5516 13.1508 26.2793 13.9367C27.7386 15.5179 29.181 17.1141 30.5447 18.6091C26.5494 20.1734 22.2128 21.869 17.8762 23.5666C17.7899 23.5272 17.7055 23.4859 17.6211 23.4446Z" fill="#5CAEA0"/>
<path d="M25.0226 59.4651C21.3275 58.863 17.9475 57.5988 14.7869 55.7381C14.1154 55.3423 13.5021 54.8434 12.8174 54.4738C12.1365 54.1062 11.979 53.626 12.0559 52.8757C12.311 50.4279 12.4873 47.9708 12.7143 45.2754C13.1044 45.5342 13.3933 45.6299 13.5264 45.8287C16.7827 50.7093 20.5547 55.151 24.8519 59.1462C24.9157 59.2044 24.9401 59.3056 25.0226 59.4651Z" fill="#5CAEA0"/>
<path d="M0.225792 33.4868C-0.400692 28.3305 0.278312 23.4706 2.2403 18.4756C2.59293 19.9161 2.8424 21.1016 3.17627 22.2645C3.86466 24.6542 4.58493 27.0363 5.32583 29.4091C5.47026 29.8724 5.56217 30.1818 5.04635 30.4895C3.45013 31.4442 1.88767 32.4496 0.225792 33.4868Z" fill="#5CAEA0"/>
<path d="M55.216 13.6609C53.3759 13.8673 51.6803 14.0717 49.9809 14.2293C49.7708 14.248 49.4913 14.0623 49.3262 13.8935C48.9173 13.4734 48.636 12.8694 48.1558 12.588C47.3305 12.1022 47.3605 11.4908 47.4993 10.7086C47.7657 9.21366 47.9607 7.70559 48.2046 6.07373C51.0125 8.22704 53.2877 10.6917 55.216 13.6609Z" fill="#5CAEA0"/>
<path d="M17.8984 2.44191C21.1115 1.04451 24.304 0.243586 27.7815 0.15918C27.2394 0.763156 26.6955 1.36338 26.1572 1.97111C25.9715 2.18119 25.7783 2.39127 25.6357 2.62948C25.0692 3.58234 24.3734 3.92559 23.1954 3.62735C22.447 3.43791 21.5298 3.66112 20.757 3.91246C20.2112 4.09065 19.8642 4.13192 19.444 3.73052C19.0014 3.30473 18.5005 2.9371 17.8984 2.44191Z" fill="#5CAEA0"/>
<path d="M41.4218 25.0369C39.8893 23.3188 38.5032 21.7638 37.0063 20.0851C38.3475 19.7474 39.5592 19.4061 40.7896 19.1472C41.3092 19.0366 42.4834 20.3477 42.3709 20.8935C42.0933 22.2309 41.765 23.557 41.4218 25.0369Z" fill="#5CAEA0"/>
<path d="M11.0694 35.0475C10.5667 33.9202 10.064 32.7929 9.50879 31.5493C10.4316 31.0392 11.3395 30.5383 12.463 29.9175C12.0316 31.7613 11.649 33.3969 11.2644 35.0306C11.1988 35.0363 11.135 35.0419 11.0694 35.0475Z" fill="#5CAEA0"/>
</svg>
