<svg width="63" height="56" viewBox="0 0 63 56" fill="none" xmlns="http://www.w3.org/2000/svg">
<path d="M10.7851 20.3477C9.79271 22.1862 8.83714 24.0072 7.83698 25.8012C6.486 28.2229 6.63524 30.5016 8.31961 32.7166C11.1069 36.3799 13.8495 40.0761 16.6349 43.7414C19.2496 47.1826 23.8588 47.0127 26.2236 43.4073C26.9427 42.3124 27.6424 41.2039 28.3944 40.0336C29.9644 42.2312 31.4627 44.3613 32.994 46.4681C35.5428 49.9751 39.9641 50.0233 42.5381 46.557C45.9727 41.9319 49.3647 37.274 52.7955 32.6451C54.4024 30.4784 54.5458 28.246 53.2743 25.8843C52.3148 24.1038 51.3883 22.3059 50.5219 20.6606C51.4116 20.0504 52.2644 19.5019 53.0766 18.8975C53.8906 18.2892 54.6621 18.2602 55.4529 18.8917C55.8813 19.2335 56.2844 19.612 56.7419 19.9055C57.5172 20.4037 58.3158 20.4984 59.2171 20.1083C60.8646 19.3957 62.0237 20.1913 62.0256 21.9853C62.0295 32.5409 62.0295 43.0945 62.0256 53.65C62.0256 55.2084 61.3647 55.8862 59.7869 55.8882C40.6018 55.894 21.4166 55.894 2.23146 55.8882C0.659509 55.8882 0.00243028 55.2045 0.00243028 53.6403C0.000491991 43.1157 0.000491991 32.593 0.00243028 22.0703C0.00243028 20.4057 1.10919 19.4556 2.53189 20.0619C3.93715 20.6606 4.96638 20.1759 5.97235 19.3242C7.44545 18.0806 7.8428 18.0883 9.35078 19.3609C9.76364 19.7124 10.2463 19.9808 10.7851 20.3477Z" fill="#5CAEA0"/>
<path d="M15.9448 18.4112C16.3828 18.7742 16.7084 19.0272 17.0147 19.3014C18.575 20.688 19.8698 20.7034 21.4689 19.34C22.9575 18.0713 23.3665 18.0752 24.8357 19.3574C26.2952 20.632 27.5221 20.6745 29.0883 19.51C29.5263 19.1856 29.9314 18.7858 30.4179 18.5657C31.137 18.2393 31.7728 18.527 32.3543 19.033C34.4244 20.8347 35.3528 20.8232 37.452 19.0176C38.3397 18.2548 39.1189 18.22 39.964 18.9075C42.3791 20.8753 42.7629 20.8792 45.2923 18.9673C45.3389 18.9326 45.4086 18.9287 45.5075 18.8959C47.0853 21.9046 48.6611 24.9191 50.2485 27.9278C50.6905 28.7639 50.5839 29.5402 50.045 30.2741C46.5406 35.0459 43.042 39.8196 39.5182 44.576C38.5394 45.8969 36.9694 45.808 35.9711 44.4118C32.5113 39.5705 29.0689 34.7157 25.5955 29.884C25.2699 29.4321 24.8376 28.959 24.3472 28.7485C23.6301 28.4414 22.88 28.6114 22.3547 29.2853C21.7848 30.0153 21.8139 30.7723 22.3295 31.5061C23.4013 33.0336 24.4577 34.5728 25.5916 36.0539C26.0432 36.6429 26.0432 37.062 25.6343 37.6568C24.7775 38.8985 24.008 40.202 23.1765 41.4611C22.186 42.9616 20.6141 43.006 19.5287 41.5712C16.7143 37.8499 13.9115 34.1189 11.101 30.3938C10.5854 29.7102 10.285 28.9628 10.7114 28.1556C12.4074 24.9538 14.1363 21.7694 15.9448 18.4112Z" fill="#5CAEA0"/>
<path d="M32.4799 8.60316C33.3502 7.64725 34.1061 6.77632 34.9047 5.94786C35.994 4.81816 37.7074 4.87416 38.4808 6.18539C40.423 9.47023 42.2663 12.8149 44.1425 16.1268C43.0183 16.9688 42.1558 16.9533 40.9308 16.1191C38.7464 14.6302 38.7464 14.6302 36.6433 16.0882C35.24 17.0596 34.1507 16.9707 32.7086 15.7696C31.2006 14.5124 30.8634 14.5085 29.3205 15.7329C27.5663 17.1252 26.3646 17.0962 24.6899 15.6247C23.4417 14.5279 22.7962 14.5375 21.5286 15.673C20.1756 16.8858 19.0456 17.0557 17.776 16.2736C17.3613 16.0187 17.1946 15.7966 17.4136 15.2752C19.2433 10.9321 21.0304 6.57162 22.8524 2.22466C23.463 0.77245 24.6259 0 26.1746 0C27.7854 0 29.0026 0.768587 29.6732 2.28259C30.5842 4.33151 31.4952 6.38237 32.4799 8.60316Z" fill="#5CAEA0"/>
</svg>
