<svg width="53" height="50" viewBox="0 0 53 50" fill="none" xmlns="http://www.w3.org/2000/svg">
<path d="M26.3734 15.497C19.0533 15.497 11.735 15.497 4.41487 15.497C1.41179 15.497 0.00733074 14.0774 0.00733074 11.0423C0.00733074 10.4767 -0.00586548 9.91118 0.0111011 9.34563C0.0620008 7.68102 1.05926 6.28411 2.68616 5.88256C6.66388 4.90039 10.6623 3.99362 14.6551 3.06611C18.0692 2.27434 21.4776 1.46183 24.9067 0.737921C25.8003 0.549404 26.7994 0.460801 27.676 0.656859C34.9736 2.28942 42.2541 4.00304 49.5403 5.68462C51.1747 6.06166 52.4133 6.94392 52.6659 8.65565C52.8507 9.91118 52.8582 11.2365 52.6697 12.4901C52.3869 14.3753 50.8298 15.4913 48.8051 15.4913C41.3266 15.4988 33.85 15.497 26.3734 15.497Z" fill="#5CAEA0"/>
<path d="M26.4942 43.7727C34.2536 43.7727 42.013 43.767 49.7742 43.7764C51.9441 43.7783 53.3202 45.6503 52.6133 47.592C52.2099 48.6986 51.1862 49.415 49.9137 49.4244C47.7156 49.4414 45.5156 49.4301 43.3156 49.4301C29.9328 49.4301 16.5499 49.432 3.16705 49.4282C0.895416 49.4282 -0.512809 47.6411 0.17528 45.656C0.595674 44.4457 1.63441 43.7746 3.12181 43.7746C10.0027 43.7708 16.8817 43.7727 23.7626 43.7727C24.6712 43.7727 25.5818 43.7727 26.4942 43.7727Z" fill="#5CAEA0"/>
<path d="M15.087 39.9589C11.8822 39.9589 8.81688 39.9589 5.65921 39.9589C5.65921 39.5781 5.65921 39.2407 5.65921 38.9051C5.65921 34.4787 5.64978 30.0523 5.67052 25.6259C5.6724 25.0755 5.5706 24.7135 5.05407 24.4119C4.21139 23.9217 3.8042 23.1092 3.77969 22.1346C3.75707 21.2259 3.77592 20.3173 3.77592 19.3389C8.15706 19.3389 12.5005 19.3389 16.9326 19.3389C16.9326 20.4059 17.0532 21.5106 16.8873 22.5682C16.7893 23.1846 16.3538 23.8972 15.8505 24.2629C15.2246 24.7173 15.0681 25.1659 15.0738 25.8804C15.1039 30.2126 15.0889 34.5447 15.0889 38.8768C15.087 39.2143 15.087 39.5536 15.087 39.9589Z" fill="#5CAEA0"/>
<path d="M19.8054 19.3071C24.2525 19.3071 28.5733 19.3071 32.9809 19.3071C32.9809 20.3723 33.1373 21.4317 32.9281 22.412C32.7735 23.1397 32.2457 23.873 31.6895 24.399C31.2786 24.7873 31.0995 25.0871 31.1014 25.6319C31.1202 30.3712 31.1127 35.1105 31.1127 39.9272C27.9965 39.9272 24.9086 39.9272 21.6849 39.9272C21.6849 39.6255 21.6849 39.2938 21.6849 38.9638C21.6849 34.5375 21.6774 30.1111 21.6943 25.6847C21.6962 25.1154 21.5134 24.7854 21.0798 24.3669C20.5123 23.8202 20.026 23.036 19.8544 22.2763C19.647 21.3563 19.8054 20.3515 19.8054 19.3071Z" fill="#5CAEA0"/>
<path d="M47.1353 39.9832C43.9474 39.9832 40.9048 39.9832 37.7075 39.9832C37.7075 39.6458 37.7075 39.3177 37.7075 38.9897C37.7075 34.5313 37.6981 30.0747 37.7207 25.6163C37.7226 25.0602 37.6095 24.7039 37.0967 24.406C36.2842 23.9347 35.8713 23.1543 35.8355 22.2192C35.7997 21.2823 35.828 20.3416 35.828 19.333C40.2129 19.333 44.5563 19.333 48.9808 19.333C48.9808 20.4094 49.1128 21.5179 48.9318 22.5717C48.8206 23.2127 48.3399 23.914 47.8158 24.3231C47.2635 24.7529 47.1221 25.1525 47.1239 25.7916C47.1466 30.1558 47.1353 34.5181 47.1353 38.8823C47.1353 39.2216 47.1353 39.559 47.1353 39.9832Z" fill="#5CAEA0"/>
</svg>
