<svg width="49" height="49" viewBox="0 0 49 49" fill="none" xmlns="http://www.w3.org/2000/svg">
<path d="M42.8348 25.7438C44.7864 25.6208 46.6438 25.5024 48.5559 25.3809C48.5559 28.8739 48.5559 32.2243 48.5559 35.7295C47.6097 35.7295 46.6787 35.6794 45.7554 35.7371C39.3615 36.1441 33.4385 38.0668 27.9695 41.3776C27.3605 41.7467 27.0264 41.6738 26.4736 41.2622C24.5691 39.8483 22.5978 38.5224 20.6493 37.1662C20.426 37.0098 20.1861 36.8776 19.855 36.6726C20.4928 36.3704 21.0776 36.1608 21.5878 35.8373C23.6989 34.5008 25.8069 33.1598 27.8784 31.7641C31.3882 29.4009 35.1759 27.662 39.2704 26.6126C39.846 26.4652 39.9827 26.2268 39.9569 25.6922C39.9189 24.8584 39.9766 24.0201 39.9265 23.1878C39.9128 22.9555 39.7169 22.6396 39.5119 22.5257C37.4327 21.3638 36.5185 19.3546 37.41 17.1448C38.303 14.9305 39.4466 12.8134 40.5416 10.6857C40.9562 9.88073 41.8127 9.85491 42.2137 10.6447C43.3543 12.8893 44.5328 15.1279 45.4562 17.4653C46.2292 19.4244 45.2527 21.4793 43.3649 22.43C42.9153 22.6563 42.8075 22.9114 42.8242 23.3625C42.8561 24.1416 42.8348 24.9237 42.8348 25.7438Z" fill="#5CAEA0"/>
<path d="M0.0356445 48.9469C0.0356445 44.0854 0.0356445 39.2878 0.0356445 34.2729C2.11023 34.4339 4.16203 34.44 6.15915 34.7741C12.474 35.8357 18.1571 38.4267 23.2266 42.3101C25.2101 43.8288 27.0356 45.5525 28.9431 47.1715C29.6265 47.7517 30.3373 48.3014 31.1362 48.9454C20.7025 48.9469 10.401 48.9469 0.0356445 48.9469Z" fill="#5CAEA0"/>
<path d="M8.68912 12.821C8.82884 12.6069 8.93971 12.4201 9.06728 12.2454C9.5548 11.5893 10.4706 11.5407 10.8381 12.2621C11.7904 14.1211 12.7578 15.9876 13.4959 17.9361C14.1034 19.5384 13.3729 21.1497 11.9058 22.0427C11.5018 22.2888 11.3682 22.5394 11.3803 22.995C11.4122 24.1583 11.4243 25.3247 11.3773 26.4865C11.3545 27.05 11.561 27.2489 12.0789 27.416C15.4201 28.4958 18.4834 30.1345 21.3477 32.1575C21.4692 32.244 21.5816 32.3443 21.8443 32.5569C20.6491 33.1158 19.5207 33.5775 18.4591 34.1576C17.1181 34.8912 15.9198 34.8076 14.4861 34.2123C10.0879 32.3853 5.48309 31.4179 0.688465 31.5287C0.49103 31.5333 0.293595 31.5287 0.050599 31.5287C0.050599 29.5088 0.050599 27.5451 0.050599 25.5176C1.01195 25.5176 1.98394 25.5176 3.06679 25.5176C3.06679 24.6337 3.06679 23.7832 3.06679 22.9327C3.06679 21.7937 3.0516 20.6546 3.07439 19.5156C3.0835 19.0903 2.97111 18.858 2.55346 18.6529C0.433318 17.6111 -0.567523 15.3953 0.328526 13.1931C1.30507 10.795 2.52612 8.49266 3.69706 6.1766C4.09953 5.38078 4.96064 5.4552 5.39652 6.30721C6.46419 8.39546 7.48325 10.5065 8.5251 12.6069C8.55395 12.6692 8.60863 12.7193 8.68912 12.821ZM8.50839 26.3681C8.50839 25.1516 8.48865 24.0171 8.51902 22.8856C8.52965 22.4771 8.39449 22.2599 8.04062 22.061C7.24177 21.6114 6.70111 20.9189 6.4171 20.0471C6.29257 19.6659 6.22726 19.2665 6.13462 18.8762C6.0921 18.8823 6.04805 18.8868 6.00553 18.8929C6.00553 21.212 6.00553 23.5311 6.00553 25.8593C6.81805 26.0248 7.60323 26.1843 8.50839 26.3681Z" fill="#5CAEA0"/>
<path d="M48.5676 38.4858C48.5676 42.0275 48.5676 45.4598 48.5676 48.9559C48.3125 48.9681 48.068 48.9908 47.825 48.9908C44.1542 48.9924 40.4849 49.003 36.8142 48.9757C36.4193 48.9726 35.9591 48.839 35.6417 48.6096C33.552 47.1046 31.4941 45.557 29.2524 43.894C35.3304 40.284 41.6346 38.4524 48.5676 38.4858Z" fill="#5CAEA0"/>
<path d="M21.8276 13.952C20.3362 13.952 18.8402 14.0204 17.3534 13.9323C15.9972 13.8503 14.9052 12.6915 14.7488 11.3793C14.5726 9.90007 15.3502 8.46184 16.7581 8.12924C17.8029 7.88168 18.494 7.4291 19.2032 6.60292C20.8131 4.72881 23.8262 5.12216 25.0837 7.25445C25.3465 7.70096 25.6183 7.86498 26.1271 7.91054C27.661 8.04874 28.8168 9.12704 28.996 10.4848C29.1888 11.9519 28.4173 13.2975 27.0323 13.7895C26.5918 13.946 26.0952 13.9854 25.6214 13.9961C24.3563 14.0234 23.0912 14.0052 21.8261 14.0052C21.8276 13.9885 21.8276 13.9703 21.8276 13.952Z" fill="#5CAEA0"/>
<path d="M18.0659 26.6928C19.6181 24.4466 21.7397 23.2255 24.5433 23.306C27.1616 23.3804 29.1223 24.6106 30.6197 26.8218C29.9697 27.1879 29.3698 27.4916 28.8064 27.8515C27.4684 28.7066 26.1562 29.5981 24.8151 30.447C24.6086 30.5777 24.2213 30.6855 24.0573 30.5822C22.0799 29.3323 20.1284 28.0414 18.0659 26.6928Z" fill="#5CAEA0"/>
<path d="M43.1628 6.91457C42.1529 6.91457 41.1414 6.9252 40.1314 6.91153C38.7752 6.8933 37.8032 5.99118 37.7167 4.6957C37.6377 3.49135 38.5505 2.44039 39.855 2.29308C40.2575 2.24752 40.502 2.14576 40.7359 1.76304C41.8613 -0.0746181 44.4325 -0.0776555 45.5806 1.75241C45.813 2.1245 46.0514 2.24904 46.4645 2.2946C47.7782 2.44039 48.653 3.45187 48.5984 4.69267C48.5422 5.96536 47.5459 6.88571 46.1927 6.91305C46.1669 6.91305 46.1426 6.91305 46.1168 6.91305C45.1341 6.91608 44.1485 6.91608 43.1628 6.91457Z" fill="#5CAEA0"/>
<path d="M18.7673 22.0776C16.6426 23.3776 15.5309 25.3762 14.3706 27.3202C13.1344 26.5639 12.5496 25.1317 13.1101 23.7315C13.792 22.029 14.644 20.3918 15.4853 18.7576C15.8438 18.0605 16.5971 18.0696 16.9843 18.7424C17.5964 19.8101 18.1492 20.9112 18.7673 22.0776Z" fill="#5CAEA0"/>
</svg>
