<svg width="50" height="50" viewBox="0 0 50 50" fill="none" xmlns="http://www.w3.org/2000/svg">
<path d="M48.7092 11.7316C32.8947 11.7316 17.0818 11.7316 1.26729 11.7316C1.25323 11.6893 1.23916 11.6471 1.2251 11.6048C2.64715 10.8895 4.0692 10.171 5.49282 9.46041C11.5826 6.42228 17.6803 3.40137 23.7545 0.335067C24.6327 -0.107895 25.3578 -0.112591 26.2376 0.330372C33.5229 3.99773 40.8254 7.62752 48.1232 11.2698C48.3435 11.3794 48.556 11.5046 48.7717 11.6236C48.7514 11.658 48.7295 11.694 48.7092 11.7316Z" fill="white"/>
<path d="M24.9844 49.9986C17.3053 49.9986 9.62626 49.9986 1.94561 49.9986C0.190707 49.9986 -0.457812 49.047 0.331349 47.4864C0.820473 46.5191 1.44399 45.6097 2.10032 44.7441C2.33316 44.4373 2.82385 44.2933 3.22546 44.1572C3.48331 44.0695 3.79272 44.1305 4.07869 44.1305C18.032 44.1305 31.9853 44.1399 45.9371 44.1102C47.0434 44.1071 47.856 44.4045 48.4108 45.3608C48.8796 46.1685 49.4203 46.9433 49.8063 47.7885C50.361 49 49.6735 49.9924 48.3327 49.9955C43.9071 50.0049 39.4816 49.9986 35.056 49.9986C31.7009 49.9986 28.3427 49.9986 24.9844 49.9986Z" fill="white"/>
<path d="M0.0454102 14.6821C16.6959 14.6821 33.3043 14.6821 49.9892 14.6821C49.4141 16.9157 48.2499 18.7267 46.6262 20.2419C46.3778 20.4735 45.9058 20.5518 45.537 20.5533C31.8369 20.569 18.1352 20.569 4.43502 20.5486C4.02716 20.5486 3.50991 20.4015 3.23175 20.1307C1.79719 18.733 0.711118 17.0942 0.128233 15.1517C0.0876029 15.0093 0.0751014 14.8559 0.0454102 14.6821Z" fill="white"/>
<path d="M5.89771 23.5522C8.8262 23.5522 11.7094 23.5522 14.6488 23.5522C14.6488 29.4219 14.6488 35.2743 14.6488 41.1768C11.7453 41.1768 8.84495 41.1768 5.89771 41.1768C5.89771 35.3009 5.89771 29.4454 5.89771 23.5522Z" fill="white"/>
<path d="M44.0869 41.1848C41.1256 41.1848 38.2455 41.1848 35.3264 41.1848C35.3264 35.3089 35.3264 29.4768 35.3264 23.5806C38.2315 23.5806 41.1318 23.5806 44.0869 23.5806C44.0869 29.4314 44.0869 35.2854 44.0869 41.1848Z" fill="white"/>
<path d="M20.6824 23.5522C23.5749 23.5522 26.4268 23.5522 29.3256 23.5522C29.3256 29.4391 29.3256 35.2915 29.3256 41.1862C26.4472 41.1862 23.5952 41.1862 20.6824 41.1862C20.6824 35.3385 20.6824 29.4876 20.6824 23.5522Z" fill="white"/>
</svg>
