<svg width="40" height="50" viewBox="0 0 40 50" fill="none" xmlns="http://www.w3.org/2000/svg">
<path d="M39.612 6.1075C39.612 6.40213 39.6133 6.64344 39.612 6.88475C39.5973 11.1283 39.5693 15.3732 39.5707 19.6168C39.5747 27.5267 39.5893 35.4366 39.6253 43.3478C39.628 43.9224 39.436 44.1544 38.9161 44.317C33.1193 46.1262 27.3279 47.9553 21.5338 49.7778C21.3285 49.8432 21.1178 49.8938 20.8632 49.9645C20.8512 49.7045 20.8339 49.5085 20.8339 49.3125C20.8432 36.6671 20.8592 24.0231 20.8539 11.3776C20.8539 10.7777 20.9672 10.5271 21.6231 10.3724C27.5319 8.98188 33.4273 7.53669 39.3267 6.10883C39.3867 6.0955 39.4533 6.1075 39.612 6.1075ZM37.6762 20.6354C35.7524 21.186 33.9059 21.6993 32.0741 22.2632C31.8981 22.3179 31.7141 22.6845 31.7101 22.9098C31.6781 24.5523 31.6888 26.1962 31.6941 27.8387C31.6941 28.0027 31.7421 28.1666 31.7781 28.4013C33.7113 27.748 35.5777 27.1267 37.4322 26.4721C37.5669 26.4242 37.6882 26.1402 37.6962 25.9602C37.7429 24.8963 37.7695 23.8311 37.7695 22.7672C37.7668 22.0859 37.7109 21.4046 37.6762 20.6354ZM31.6901 38.9069C33.6166 38.251 35.4097 37.6204 37.2202 37.0391C37.6335 36.9058 37.7135 36.6938 37.7109 36.3205C37.6989 34.8753 37.7055 33.4315 37.7055 31.9863C37.7055 31.7316 37.7055 31.477 37.7055 31.129C35.7111 31.6996 33.8366 32.2302 31.9701 32.7835C31.8501 32.8195 31.7034 33.0342 31.7021 33.1661C31.6848 35.03 31.6901 36.8951 31.6901 38.9069ZM23.3909 31.3503C25.3894 30.6757 27.2559 30.0558 29.109 29.3985C29.2637 29.3439 29.409 29.0359 29.417 28.8399C29.4503 27.9973 29.4317 27.1521 29.4317 26.3068C29.4317 25.4242 29.4317 24.543 29.4317 23.5591C27.4332 24.1377 25.5414 24.679 23.6562 25.2443C23.5403 25.2789 23.4029 25.4962 23.4016 25.6296C23.3856 27.4934 23.3909 29.3572 23.3909 31.3503ZM31.6901 18.3356C31.8434 18.3436 31.9141 18.3663 31.9701 18.3476C33.7739 17.7463 35.5804 17.1491 37.3736 16.5171C37.5282 16.4625 37.6842 16.1652 37.6909 15.9759C37.7215 14.9346 37.7069 13.8907 37.7069 12.8482C37.7069 12.1482 37.7069 11.4483 37.7069 10.6857C35.7484 11.2457 33.8966 11.7616 32.0594 12.3202C31.8941 12.3709 31.7141 12.6948 31.7074 12.8962C31.6728 13.9827 31.6928 15.0693 31.6928 16.1572C31.6901 16.8811 31.6901 17.605 31.6901 18.3356ZM29.4303 33.6394C27.4559 34.2034 25.6014 34.718 23.7616 35.2819C23.5869 35.3353 23.4056 35.6979 23.4003 35.9205C23.3683 37.3631 23.3843 38.8069 23.3843 40.2508C23.3843 40.6134 23.3843 40.976 23.3843 41.4227C25.3854 40.7481 27.2519 40.1255 29.1104 39.4829C29.2424 39.4375 29.4157 39.2482 29.417 39.1256C29.4357 37.3311 29.4303 35.5366 29.4303 33.6394ZM23.3856 20.8487C23.5229 20.8687 23.5723 20.8914 23.6083 20.8794C25.4561 20.2661 27.3052 19.6568 29.1437 19.0169C29.2824 18.9689 29.4157 18.6929 29.4223 18.5169C29.453 17.7637 29.4357 17.0077 29.4357 16.2532C29.4357 15.2599 29.4357 14.268 29.4357 13.1948C27.4412 13.7641 25.5507 14.296 23.6696 14.8573C23.5416 14.896 23.3989 15.1479 23.3976 15.3013C23.3789 17.1411 23.3856 18.9822 23.3856 20.8487Z" fill="white"/>
<path d="M0.0160231 6.03906C4.79155 7.18828 9.44309 8.3055 14.0933 9.42806C15.4278 9.75069 16.7517 10.1267 18.0982 10.3933C18.6208 10.4973 18.7208 10.7013 18.7195 11.1746C18.7075 15.4208 18.7142 19.6657 18.7208 23.912C18.7342 32.1805 18.7502 40.4476 18.7648 48.7162C18.7662 49.0908 18.7648 49.4641 18.7648 49.9374C18.4769 49.868 18.2702 49.8307 18.0729 49.7681C12.3001 47.9509 6.53004 46.1271 0.753283 44.3233C0.21067 44.1539 -0.00264174 43.918 2.46623e-05 43.3127C0.0266887 37.6226 0.0160231 31.9325 0.0160231 26.2424C0.0160231 19.775 0.0160231 13.3077 0.0173563 6.84032C0.0160231 6.60034 0.0160231 6.36036 0.0160231 6.03906ZM7.88058 18.1885C7.9419 18.1112 7.99123 18.0779 7.99123 18.0432C7.98456 16.27 7.98057 14.4969 7.95123 12.7237C7.94857 12.5997 7.77659 12.4118 7.6446 12.3651C5.78745 11.7212 3.92364 11.0986 2.05449 10.4666C2.00383 10.5906 1.9585 10.6493 1.9585 10.7079C1.95183 12.5078 1.9385 14.3089 1.9665 16.1087C1.96916 16.274 2.19981 16.514 2.37712 16.582C2.91307 16.786 3.47435 16.926 4.02762 17.086C5.31683 17.4579 6.6087 17.8259 7.88058 18.1885ZM7.97257 28.6715C7.97257 27.2623 7.97257 26.0011 7.97257 24.7412C7.97257 22.9667 7.97523 22.96 6.2874 22.3694C4.87954 21.8775 3.46501 21.4042 1.94916 20.8869C1.94916 22.9014 1.9385 24.7772 1.9705 26.6504C1.97316 26.8037 2.24647 27.021 2.43578 27.089C2.99706 27.2903 3.57967 27.4329 4.15428 27.5956C5.38349 27.9422 6.61403 28.2889 7.97257 28.6715ZM7.96457 38.5558C7.96457 37.0626 7.96457 35.6921 7.96457 34.3216C7.96457 32.8377 7.9699 32.8244 6.57537 32.3405C5.07819 31.8205 3.57034 31.3286 1.95583 30.7859C1.95583 32.7911 1.95183 34.6896 1.96783 36.5867C1.96916 36.6947 2.12115 36.8653 2.23447 36.9C4.09828 37.4506 5.96877 37.9826 7.96457 38.5558ZM10.2057 23.4133C10.2057 25.4051 10.195 27.2663 10.2257 29.1274C10.2283 29.2808 10.4883 29.5087 10.671 29.5661C11.9175 29.9594 13.1734 30.3193 14.4293 30.6819C14.9932 30.8446 15.5625 30.9859 16.2117 31.1606C16.2117 29.2861 16.2171 27.5129 16.1997 25.7384C16.1984 25.6051 16.0611 25.3931 15.9398 25.3505C14.0813 24.7079 12.2135 24.0866 10.2057 23.4133ZM10.323 12.9784C10.2803 13.093 10.215 13.189 10.2137 13.2837C10.2057 15.0595 10.1923 16.8353 10.2243 18.6098C10.227 18.7805 10.4976 19.0364 10.691 19.0964C11.9575 19.4937 13.2374 19.847 14.5132 20.215C15.0545 20.371 15.5945 20.5256 16.2131 20.7029C16.2131 18.8245 16.2224 17.0513 16.1971 15.2795C16.1944 15.1275 15.9891 14.8955 15.8291 14.8395C14.0106 14.2089 12.1855 13.6036 10.323 12.9784ZM10.2003 33.387C10.2003 34.9429 10.2003 36.3601 10.2003 37.7759C10.2003 39.4104 10.1963 39.4237 11.7522 39.8837C13.208 40.313 14.6732 40.7103 16.2131 41.1436C16.2131 39.2678 16.2251 37.4746 16.1917 35.6815C16.1891 35.5308 15.9158 35.3188 15.7265 35.2495C14.7292 34.8842 13.7187 34.5536 12.7121 34.2149C11.9202 33.951 11.1269 33.6923 10.2003 33.387Z" fill="white"/>
<path d="M0.629213 3.77285C3.93022 3.10892 7.22989 2.44765 10.5309 1.78238C13.3519 1.21444 16.169 0.627832 18.9941 0.0825524C19.4807 -0.0121049 20.0166 -0.0334361 20.5006 0.0612212C24.3909 0.823812 28.2745 1.62373 32.1594 2.40899C34.2432 2.83028 36.3283 3.24357 38.4121 3.6622C38.5988 3.69953 38.7801 3.75685 39.0774 3.83418C36.2377 4.6261 33.5086 5.39269 30.7782 6.14862C27.3852 7.08719 23.9936 8.03243 20.5912 8.93634C20.1259 9.06033 19.5727 9.08033 19.1127 8.95634C12.936 7.28317 6.77127 5.57267 0.603882 3.87151C0.611881 3.83951 0.61988 3.80618 0.629213 3.77285Z" fill="white"/>
</svg>
