<svg width="48" height="50" viewBox="0 0 48 50" fill="none" xmlns="http://www.w3.org/2000/svg">
<path d="M8.70755 30.7664C6.19715 29.4595 3.81745 28.2074 1.42573 26.9788C0.614467 26.5625 -0.00299375 26.0585 1.09189e-05 24.9974C0.00301559 23.9331 0.635499 23.4416 1.44225 23.0269C3.82947 21.7998 6.20616 20.5509 8.69253 19.2549C8.38605 19.0781 8.17873 18.9513 7.9654 18.8386C5.73443 17.6695 3.50797 16.4941 1.26949 15.3421C0.48827 14.9399 -0.0090031 14.3905 0.00151326 13.4202C0.0105273 12.4764 0.524326 11.9583 1.26798 11.5718C8.4822 7.82017 15.6964 4.06701 22.9031 0.298195C23.6919 -0.114997 24.401 -0.0899552 25.1822 0.318541C32.3724 4.07796 39.5701 7.82017 46.7678 11.5655C47.5084 11.9505 47.9937 12.4514 47.9982 13.4217C48.0027 14.4125 47.543 14.9556 46.7648 15.3578C44.5037 16.5254 42.2502 17.707 39.9937 18.884C39.8179 18.9764 39.6482 19.0781 39.3537 19.244C40.4925 19.8419 41.5396 20.3944 42.5883 20.9421C43.9704 21.6637 45.3526 22.3899 46.7407 23.1004C47.5114 23.4964 48.0012 24.0145 47.9997 25.0162C47.9967 26.021 47.4934 26.5218 46.7257 26.9193C44.2979 28.1761 41.8761 29.447 39.3522 30.7664C39.7864 31.0074 40.1274 31.2062 40.4775 31.3893C42.5552 32.4708 44.6329 33.5539 46.7167 34.626C47.5144 35.0361 48.0147 35.5776 47.9997 36.6106C47.9862 37.6248 47.4453 38.0912 46.6851 38.4871C39.531 42.2059 32.3784 45.9262 25.2363 49.6684C24.3995 50.1066 23.6603 50.1129 22.822 49.6731C15.6634 45.923 8.49272 42.1949 1.32207 38.4684C0.554373 38.0693 0.0075226 37.5559 0.00301559 36.5746C-0.00149142 35.6011 0.507801 35.0627 1.28601 34.662C3.52449 33.5101 5.75096 32.3347 7.98193 31.1671C8.17723 31.0638 8.37103 30.9511 8.70755 30.7664ZM41.9227 13.4984C41.7169 13.3576 41.5817 13.2433 41.4315 13.1651C35.8067 10.232 30.182 7.29429 24.5422 4.38942C24.2628 4.24543 23.794 4.247 23.5131 4.39099C17.8688 7.29742 12.2395 10.2336 6.61029 13.1682C6.46006 13.2464 6.33086 13.3654 6.17311 13.4796C6.27527 13.5485 6.33537 13.597 6.39997 13.6315C12.1419 16.6255 17.8823 19.6227 23.6348 22.5918C23.8661 22.7107 24.2628 22.6653 24.5076 22.5401C27.332 21.0971 30.1414 19.6227 32.9553 18.1594C35.9224 16.6177 38.8895 15.0745 41.9227 13.4984ZM6.0995 24.988C6.30081 25.1085 6.36391 25.1492 6.42851 25.1836C12.1584 28.173 17.8853 31.1686 23.6303 34.1299C23.8932 34.2645 24.3544 34.1737 24.6458 34.0234C28.7848 31.8933 32.9102 29.735 37.0386 27.583C38.6356 26.7503 40.2326 25.9177 41.9377 25.0271C41.6147 24.8362 41.4119 24.7047 41.1986 24.5936C39.4814 23.6952 37.7462 22.8344 36.0531 21.889C35.3936 21.5212 34.8813 21.5025 34.2022 21.8687C31.2531 23.4604 28.2605 24.9661 25.3024 26.5421C24.422 27.0117 23.6333 27.0164 22.7469 26.5437C19.6581 24.8988 16.5468 23.2976 13.4369 21.6965C13.2161 21.5838 12.8795 21.4758 12.6918 21.5713C10.5224 22.6685 8.37103 23.8032 6.0995 24.988ZM41.9843 36.5495C39.7624 35.3929 37.7027 34.3364 35.6595 33.244C35.2614 33.0311 34.9609 33.0327 34.5628 33.244C31.4484 34.8905 28.3176 36.501 25.2017 38.1444C24.3995 38.567 23.6498 38.5732 22.8476 38.1475C20.4017 36.8485 17.9424 35.5745 15.4876 34.2942C14.6613 33.8638 13.8335 33.1016 13.0072 33.1031C12.1509 33.1047 11.2916 33.8356 10.4443 34.2707C9.02605 35.0001 7.61536 35.7466 6.12053 36.5276C6.34288 36.6732 6.46006 36.7655 6.59076 36.8328C12.2215 39.7659 17.8568 42.6926 23.4815 45.6398C23.9247 45.8714 24.2567 45.7947 24.6669 45.5803C29.2836 43.1606 33.9093 40.7597 38.5319 38.3525C39.6407 37.775 40.7509 37.1928 41.9843 36.5495Z" fill="#2B3A57"/>
</svg>
